<?xml version="1.0" encoding="utf-8"?>
<!-- Generator: Adobe Illustrator 23.0.0, SVG Export Plug-In . SVG Version: 6.00 Build 0)  -->
<svg version="1.1" id="Capa_1" xmlns="http://www.w3.org/2000/svg" xmlns:xlink="http://www.w3.org/1999/xlink" x="0px" y="0px"
	 viewBox="0 0 1080 1080" style="enable-background:new 0 0 1080 1080;" xml:space="preserve">
<style type="text/css">
	.st0{fill:#A6F506;}
	.st1{fill:#DF0000;}
	.st2{fill:#FFFFFF;}
</style>
<rect x="554.73" y="531.1" width="438.86" height="364.5"/>
<g>
	<g>
		<path class="st0" d="M339.44,287.84c-25.66,0-50.03,0-75.22,0c3.06-8.62,5.71-16.39,8.56-24.08c2.85-7.69,2.94-7.66,11.27-7.66
			c21.86,0,43.72-0.01,65.58,0.03c9.74,0.02,19.48,0.53,28.7,3.98c7.3,2.73,12.7,7.66,8.83,17.35c-3.53,8.85-10.2,15.24-16.96,21.49
			c-19.9,18.39-42.42,33.26-65.5,47.19c-23.73,14.31-47.97,27.76-72,41.57c-1.22,0.7-2.53,1.24-4.6,2.24
			c0.54-2.21,0.77-3.67,1.25-5.04c4.15-11.61,8.38-23.2,12.5-34.82c2.93-8.27,5.82-16.55,8.52-24.89c1.02-3.16,2.45-4.56,6.1-4.5
			c14.61,0.24,29.25-0.3,43.85,0.19c15.45,0.52,25.73-6.52,32.39-19.9C334.71,297.01,336.77,293.07,339.44,287.84z"/>
		<path class="st0" d="M224.17,281.24c-8.04-8.14-12.79-16.82-15.11-27.16c-5.75-25.64,11.28-54.42,34.58-64
			c9.49-3.9,19.52-5.53,29.65-5.57c43.33-0.19,86.67-0.09,130-0.08c1.27,0,2.54,0.16,4.43,0.28c-7.1,22.41-21.01,38.74-40.22,52.44
			c2.21-4.78,4.05-8.46,5.61-12.25c1.15-2.78,0.5-4.41-3.07-4.4c-32.4,0.09-64.81-0.16-97.2,0.21c-14.71,0.17-27.08,5.6-33.56,19.96
			c-2.69,5.97-4.71,12.24-6.99,18.4C229.66,266.18,227.08,273.3,224.17,281.24z"/>
	</g>
	<g>
		<g>
			<path class="st0" d="M143.46,214.12c11.97-0.25,21.22,7.3,21.53,19.18c0.59,22.72,0.17,45.46,0.17,68.16
				c-6.83,1.25-14.44-2.04-17.97-8.65c-2.04-3.82-3.76-8.35-3.84-12.6c-0.38-21.56-0.17-43.14-0.16-64.71
				C143.2,215.13,143.34,214.76,143.46,214.12z"/>
			<path class="st0" d="M192.55,304.75c-9.03,0.45-15.82-4.08-19.05-10.7c-1.8-3.69-2.78-7.57-2.77-11.71
				c0.02-28.21,0.01-56.42,0.01-84.63c0-0.65,0-1.3,0-2.19c5.34-0.17,10.14,1.09,14.2,4.52c5.3,4.48,7.63,10.55,7.67,17.21
				c0.17,28.73,0.08,57.47,0.07,86.2C192.67,303.88,192.59,304.32,192.55,304.75z"/>
			<path class="st0" d="M136.65,271.93c-5.8,0.33-10.51-3.63-10.7-9.92c-0.34-11.15-0.1-22.32-0.1-33.66
				c3.9-0.12,7.09,1.13,8.98,4.47c1.02,1.81,1.82,4.02,1.86,6.06c0.18,10.78,0.09,21.56,0.09,32.34
				C136.77,271.41,136.7,271.59,136.65,271.93z"/>
		</g>
		<g>
			<path class="st0" d="M458.25,301.3c-11.62,0.87-21.53-7.45-21.79-19.39c-0.5-22.48-0.16-44.98-0.15-67.48
				c0-0.23,0.21-0.46,0.32-0.69c11.79-0.52,21.1,7.46,21.45,20.24C458.69,256.31,458.25,278.67,458.25,301.3z"/>
			<path class="st0" d="M431.05,303.15c-8.73,0.47-15.33-3.9-18.51-10.24c-1.73-3.46-2.76-7.11-2.76-11
				c-0.01-28.04-0.01-56.07,0-84.11c0-0.25,0.04-0.5,0.08-1c5.27-0.15,10.05,1.13,14.04,4.66c5,4.41,7.15,10.29,7.19,16.7
				c0.15,28.04,0.07,56.07,0.06,84.11C431.15,302.52,431.1,302.77,431.05,303.15z"/>
			<path class="st0" d="M462.76,228.77c6.15,0.05,10.41,3.93,10.53,10.12c0.2,10.62,0.05,21.25,0.04,31.88
				c0,0.11-0.09,0.23-0.14,0.34c-5.48,0.8-10.43-3.87-10.48-10.16c-0.09-10.44-0.03-20.87-0.03-31.31
				C462.67,229.39,462.72,229.15,462.76,228.77z"/>
		</g>
	</g>
</g>
<g>
	<path class="st0" d="M141.31,442.13v7.94h-20.97c0,0-5.14-0.07-5.14,4.27c0,4.35,5.14,4.27,5.14,4.27h10.46c0,0,12,0.27,12,12.21
		s-12,12.21-12,12.21h-22.1v-7.94h20.97c0,0,5.14,0.07,5.14-4.27s-5.14-4.27-5.14-4.27h-10.46c0,0-12-0.27-12-12.21
		c0-11.94,12-12.21,12-12.21H141.31z"/>
	<path class="st0" d="M185.09,458.61c0,0,5.14,0.07,5.14-4.27s-5.14-4.27-5.14-4.27h-19.87v-7.94h20.99c0,0,12,0.27,12,12.21
		c0,11.94-12,12.21-12,12.21h-13.05v16.49h-7.94l0.03-24.43H185.09z"/>
	<path class="st0" d="M236.39,442.13l12.77,40.92h-9.08l-10.61-33.21l-10.61,33.21h-9.08l12.77-40.92H236.39z"/>
	<path class="st0" d="M298.21,442.13v7.94h-14.34c0,0-11.05,0.66-11.05,12.52s11.05,12.52,11.05,12.52h14.34v7.94h-14.69
		c0,0-18.7-0.58-18.7-20.46s18.7-20.46,18.7-20.46H298.21z"/>
	<path class="st0" d="M350.49,442.13v7.94h-31.86v-7.94H350.49z M350.49,458.61v7.94h-31.86v-7.94H350.49z M350.49,475.1v7.94
		h-31.86v-7.94H350.49z"/>
	<path class="st0" d="M406.2,442.13v7.94h-31.86v-7.94H406.2z M406.2,458.61v7.94h-23.92v16.49h-7.94v-16.49v-6.14v-1.8H406.2z
		 M374.34,483.04h7.94H374.34z"/>
	<path class="st0" d="M428.69,483.04v-40.92h7.94v40.92H428.69z"/>
	<path class="st0" d="M470.01,483.04v-32.98h-12.99v-7.94h12.99h7.94h12.99v7.94h-12.99v32.98H470.01z"/>
</g>
<g>
	<g>
		<path class="st1" d="M822.87,289.92c-25.66,0-50.03,0-75.22,0c3.06-8.62,5.71-16.39,8.56-24.08c2.85-7.69,2.94-7.66,11.27-7.66
			c21.86,0,43.72-0.01,65.58,0.03c9.74,0.02,19.48,0.53,28.7,3.98c7.3,2.73,12.7,7.66,8.83,17.35c-3.53,8.85-10.2,15.24-16.96,21.49
			c-19.9,18.39-42.42,33.26-65.5,47.19c-23.73,14.31-47.97,27.76-72,41.57c-1.22,0.7-2.53,1.24-4.6,2.24
			c0.54-2.21,0.77-3.67,1.25-5.04c4.15-11.61,8.38-23.2,12.5-34.82c2.93-8.27,5.82-16.55,8.52-24.89c1.02-3.16,2.45-4.56,6.1-4.5
			c14.61,0.24,29.25-0.3,43.85,0.19c15.45,0.52,25.73-6.52,32.39-19.9C818.14,299.09,820.2,295.15,822.87,289.92z"/>
		<path class="st1" d="M707.6,283.33c-8.04-8.14-12.79-16.82-15.11-27.16c-5.75-25.64,11.28-54.42,34.58-64
			c9.49-3.9,19.52-5.53,29.65-5.57c43.33-0.19,86.67-0.09,130-0.08c1.27,0,2.54,0.16,4.43,0.28c-7.1,22.41-21.01,38.74-40.22,52.44
			c2.21-4.78,4.05-8.46,5.61-12.25c1.15-2.78,0.5-4.41-3.07-4.4c-32.4,0.09-64.81-0.16-97.2,0.21c-14.71,0.17-27.08,5.6-33.56,19.96
			c-2.69,5.97-4.71,12.24-6.99,18.4C713.09,268.27,710.51,275.39,707.6,283.33z"/>
	</g>
	<g>
		<g>
			<path class="st1" d="M626.89,216.21c11.97-0.25,21.22,7.3,21.53,19.18c0.59,22.72,0.17,45.46,0.17,68.16
				c-6.83,1.25-14.44-2.04-17.97-8.65c-2.04-3.82-3.76-8.35-3.84-12.6c-0.38-21.56-0.17-43.14-0.16-64.71
				C626.63,217.22,626.77,216.84,626.89,216.21z"/>
			<path class="st1" d="M675.98,306.83c-9.03,0.45-15.82-4.08-19.05-10.7c-1.8-3.69-2.78-7.57-2.77-11.71
				c0.02-28.21,0.01-56.42,0.01-84.63c0-0.65,0-1.3,0-2.19c5.34-0.17,10.14,1.09,14.2,4.52c5.3,4.48,7.63,10.55,7.67,17.21
				c0.17,28.73,0.08,57.47,0.07,86.2C676.1,305.97,676.02,306.41,675.98,306.83z"/>
			<path class="st1" d="M620.07,274.01c-5.8,0.33-10.51-3.63-10.7-9.92c-0.34-11.15-0.1-22.32-0.1-33.66
				c3.9-0.12,7.09,1.13,8.98,4.47c1.02,1.81,1.82,4.02,1.86,6.06c0.18,10.78,0.09,21.56,0.09,32.34
				C620.19,273.49,620.13,273.68,620.07,274.01z"/>
		</g>
		<g>
			<path class="st1" d="M941.68,303.39c-11.62,0.87-21.53-7.45-21.79-19.39c-0.5-22.48-0.16-44.98-0.15-67.48
				c0-0.23,0.21-0.46,0.32-0.69c11.79-0.52,21.1,7.46,21.45,20.24C942.12,258.39,941.68,280.75,941.68,303.39z"/>
			<path class="st1" d="M914.48,305.23c-8.73,0.47-15.33-3.9-18.51-10.24c-1.73-3.46-2.76-7.11-2.76-11
				c-0.01-28.04-0.01-56.07,0-84.11c0-0.25,0.04-0.5,0.08-1c5.27-0.15,10.05,1.13,14.04,4.66c5,4.41,7.15,10.29,7.19,16.7
				c0.15,28.04,0.07,56.07,0.06,84.11C914.58,304.6,914.53,304.85,914.48,305.23z"/>
			<path class="st1" d="M946.19,230.85c6.15,0.05,10.41,3.93,10.53,10.12c0.2,10.62,0.05,21.25,0.04,31.88
				c0,0.11-0.09,0.23-0.14,0.34c-5.48,0.8-10.43-3.87-10.48-10.16c-0.09-10.44-0.03-20.87-0.03-31.31
				C946.1,231.48,946.15,231.23,946.19,230.85z"/>
		</g>
	</g>
</g>
<g>
	<path class="st1" d="M624.74,444.21v7.94h-20.97c0,0-5.14-0.07-5.14,4.27c0,4.35,5.14,4.27,5.14,4.27h10.46c0,0,12,0.27,12,12.21
		s-12,12.21-12,12.21h-22.1v-7.94h20.97c0,0,5.14,0.07,5.14-4.27s-5.14-4.27-5.14-4.27h-10.46c0,0-12-0.27-12-12.21
		c0-11.94,12-12.21,12-12.21H624.74z"/>
	<path class="st1" d="M668.52,460.7c0,0,5.14,0.07,5.14-4.27s-5.14-4.27-5.14-4.27h-19.87v-7.94h20.99c0,0,12,0.27,12,12.21
		c0,11.94-12,12.21-12,12.21h-13.05v16.49h-7.94l0.03-24.43H668.52z"/>
	<path class="st1" d="M719.82,444.21l12.77,40.92h-9.08l-10.61-33.21l-10.61,33.21h-9.08l12.77-40.92H719.82z"/>
	<path class="st1" d="M781.63,444.21v7.94h-14.34c0,0-11.05,0.66-11.05,12.52s11.05,12.52,11.05,12.52h14.34v7.94h-14.69
		c0,0-18.7-0.58-18.7-20.46s18.7-20.46,18.7-20.46H781.63z"/>
	<path class="st1" d="M833.92,444.21v7.94h-31.86v-7.94H833.92z M833.92,460.7v7.94h-31.86v-7.94H833.92z M833.92,477.18v7.94
		h-31.86v-7.94H833.92z"/>
	<path class="st1" d="M889.63,444.21v7.94h-31.86v-7.94H889.63z M889.63,460.7v7.94h-23.92v16.49h-7.94v-16.49v-6.14v-1.8H889.63z
		 M857.77,485.12h7.94H857.77z"/>
	<path class="st1" d="M912.12,485.12v-40.92h7.94v40.92H912.12z"/>
	<path class="st1" d="M953.44,485.12v-32.98h-12.99v-7.94h12.99h7.94h12.99v7.94h-12.99v32.98H953.44z"/>
</g>
<g>
	<g>
		<path d="M328.03,662.19c-25.66,0-50.03,0-75.22,0c3.06-8.62,5.71-16.39,8.56-24.08c2.85-7.69,2.94-7.66,11.27-7.66
			c21.86,0,43.72-0.01,65.58,0.03c9.74,0.02,19.48,0.53,28.7,3.98c7.3,2.73,12.7,7.66,8.83,17.35c-3.53,8.85-10.2,15.24-16.96,21.49
			c-19.9,18.39-42.42,33.26-65.5,47.19c-23.73,14.31-47.97,27.76-72,41.57c-1.22,0.7-2.53,1.24-4.6,2.24
			c0.54-2.21,0.77-3.67,1.25-5.04c4.15-11.61,8.38-23.2,12.5-34.82c2.93-8.27,5.82-16.55,8.52-24.89c1.02-3.16,2.45-4.56,6.1-4.5
			c14.61,0.24,29.25-0.3,43.85,0.19c15.45,0.52,25.73-6.52,32.39-19.9C323.29,671.35,325.35,667.41,328.03,662.19z"/>
		<path d="M212.76,655.59c-8.04-8.14-12.79-16.82-15.11-27.16c-5.75-25.64,11.28-54.42,34.58-64c9.49-3.9,19.52-5.53,29.65-5.57
			c43.33-0.19,86.67-0.09,130-0.08c1.27,0,2.54,0.16,4.43,0.28c-7.1,22.41-21.01,38.74-40.22,52.44c2.21-4.78,4.05-8.46,5.61-12.25
			c1.15-2.78,0.5-4.41-3.07-4.4c-32.4,0.09-64.81-0.16-97.2,0.21c-14.71,0.17-27.08,5.6-33.56,19.96
			c-2.69,5.97-4.71,12.24-6.99,18.4C218.25,640.53,215.66,647.65,212.76,655.59z"/>
	</g>
	<g>
		<g>
			<path d="M132.05,588.47c11.97-0.25,21.22,7.3,21.53,19.18c0.59,22.72,0.17,45.46,0.17,68.16c-6.83,1.25-14.44-2.04-17.97-8.65
				c-2.04-3.82-3.76-8.35-3.84-12.6c-0.38-21.56-0.17-43.14-0.16-64.71C131.78,589.48,131.92,589.11,132.05,588.47z"/>
			<path d="M181.13,679.09c-9.03,0.45-15.82-4.08-19.05-10.7c-1.8-3.69-2.78-7.57-2.77-11.71c0.02-28.21,0.01-56.42,0.01-84.63
				c0-0.65,0-1.3,0-2.19c5.34-0.17,10.14,1.09,14.2,4.52c5.3,4.48,7.63,10.55,7.67,17.21c0.17,28.73,0.08,57.47,0.07,86.2
				C181.25,678.23,181.17,678.67,181.13,679.09z"/>
			<path d="M125.23,646.27c-5.8,0.33-10.51-3.63-10.7-9.92c-0.34-11.15-0.1-22.32-0.1-33.66c3.9-0.12,7.09,1.13,8.98,4.47
				c1.02,1.81,1.82,4.02,1.86,6.06c0.18,10.78,0.09,21.56,0.09,32.34C125.35,645.75,125.29,645.94,125.23,646.27z"/>
		</g>
		<g>
			<path d="M446.83,675.65c-11.62,0.87-21.53-7.45-21.79-19.39c-0.5-22.48-0.16-44.98-0.15-67.48c0-0.23,0.21-0.46,0.32-0.69
				c11.79-0.52,21.1,7.46,21.45,20.24C447.27,630.66,446.83,653.01,446.83,675.65z"/>
			<path d="M419.64,677.49c-8.73,0.47-15.33-3.9-18.51-10.24c-1.73-3.46-2.76-7.11-2.76-11c-0.01-28.04-0.01-56.07,0-84.11
				c0-0.25,0.04-0.5,0.08-1c5.27-0.15,10.05,1.13,14.04,4.66c5,4.41,7.15,10.29,7.19,16.7c0.15,28.04,0.07,56.07,0.06,84.11
				C419.73,676.86,419.68,677.11,419.64,677.49z"/>
			<path d="M451.34,603.11c6.15,0.05,10.41,3.93,10.53,10.12c0.2,10.62,0.05,21.25,0.04,31.88c0,0.11-0.09,0.23-0.14,0.34
				c-5.48,0.8-10.43-3.87-10.48-10.16c-0.09-10.44-0.03-20.87-0.03-31.31C451.26,603.74,451.3,603.49,451.34,603.11z"/>
		</g>
	</g>
</g>
<g>
	<path d="M129.89,816.47v7.94h-20.97c0,0-5.14-0.07-5.14,4.27c0,4.35,5.14,4.27,5.14,4.27h10.46c0,0,12,0.27,12,12.21
		s-12,12.21-12,12.21h-22.1v-7.94h20.97c0,0,5.14,0.07,5.14-4.27s-5.14-4.27-5.14-4.27h-10.46c0,0-12-0.27-12-12.21
		s12-12.21,12-12.21H129.89z"/>
	<path d="M173.67,832.96c0,0,5.14,0.07,5.14-4.27s-5.14-4.27-5.14-4.27h-19.87v-7.94h20.99c0,0,12,0.27,12,12.21
		c0,11.95-12,12.21-12,12.21h-13.05v16.49h-7.94l0.03-24.43H173.67z"/>
	<path d="M224.97,816.47l12.77,40.92h-9.08l-10.61-33.21l-10.61,33.21h-9.08l12.77-40.92H224.97z"/>
	<path d="M286.79,816.47v7.94h-14.34c0,0-11.05,0.66-11.05,12.52s11.05,12.52,11.05,12.52h14.34v7.94H272.1
		c0,0-18.7-0.58-18.7-20.46s18.7-20.46,18.7-20.46H286.79z"/>
	<path d="M339.07,816.47v7.94h-31.86v-7.94H339.07z M339.07,832.96v7.94h-31.86v-7.94H339.07z M339.07,849.45v7.94h-31.86v-7.94
		H339.07z"/>
	<path d="M394.78,816.47v7.94h-31.86v-7.94H394.78z M394.78,832.96v7.94h-23.92v16.49h-7.94V840.9v-6.14v-1.8H394.78z
		 M362.92,857.39h7.94H362.92z"/>
	<path d="M417.27,857.39v-40.92h7.94v40.92H417.27z"/>
	<path d="M458.59,857.39v-32.98H445.6v-7.94h12.99h7.94h12.99v7.94h-12.99v32.98H458.59z"/>
</g>
<g>
	<g>
		<g>
			<path class="st2" d="M807.89,672.53c-25.66,0-50.03,0-75.22,0c3.06-8.62,5.71-16.39,8.56-24.08c2.85-7.69,2.94-7.66,11.27-7.66
				c21.86,0,43.72-0.01,65.58,0.03c9.74,0.02,19.48,0.53,28.7,3.98c7.3,2.73,12.7,7.66,8.83,17.35
				c-3.53,8.85-10.2,15.24-16.96,21.49c-19.9,18.39-42.42,33.26-65.5,47.19c-23.73,14.31-47.97,27.76-72,41.57
				c-1.22,0.7-2.53,1.24-4.6,2.24c0.54-2.21,0.77-3.67,1.25-5.04c4.15-11.61,8.38-23.2,12.5-34.82c2.93-8.27,5.82-16.55,8.52-24.89
				c1.02-3.16,2.45-4.56,6.1-4.5c14.61,0.24,29.25-0.3,43.85,0.19c15.45,0.52,25.73-6.52,32.39-19.9
				C803.16,681.7,805.22,677.76,807.89,672.53z"/>
		</g>
		<g>
			<path class="st2" d="M692.62,665.93c-8.04-8.14-12.79-16.82-15.11-27.16c-5.75-25.64,11.28-54.42,34.58-64
				c9.49-3.9,19.52-5.53,29.65-5.57c43.33-0.19,86.67-0.09,130-0.08c1.27,0,2.54,0.16,4.43,0.28c-7.1,22.41-21.01,38.74-40.22,52.44
				c2.21-4.78,4.05-8.46,5.61-12.25c1.15-2.78,0.5-4.41-3.07-4.4c-32.4,0.09-64.81-0.16-97.2,0.21
				c-14.71,0.17-27.08,5.6-33.56,19.96c-2.69,5.97-4.71,12.24-6.99,18.4C698.11,650.87,695.53,657.99,692.62,665.93z"/>
		</g>
	</g>
	<g>
		<g>
			<g>
				<path class="st2" d="M611.91,598.81c11.97-0.25,21.22,7.3,21.53,19.18c0.59,22.72,0.17,45.46,0.17,68.16
					c-6.83,1.25-14.44-2.04-17.97-8.65c-2.04-3.82-3.76-8.35-3.84-12.6c-0.38-21.56-0.17-43.14-0.16-64.71
					C611.65,599.82,611.78,599.45,611.91,598.81z"/>
			</g>
			<g>
				<path class="st2" d="M660.99,689.44c-9.03,0.45-15.82-4.08-19.05-10.7c-1.8-3.69-2.78-7.57-2.77-11.71
					c0.02-28.21,0.01-56.42,0.01-84.63c0-0.65,0-1.3,0-2.19c5.34-0.17,10.14,1.09,14.2,4.52c5.3,4.48,7.63,10.55,7.67,17.21
					c0.17,28.73,0.08,57.47,0.07,86.2C661.12,688.57,661.03,689.01,660.99,689.44z"/>
			</g>
			<g>
				<path class="st2" d="M605.09,656.61c-5.8,0.33-10.51-3.63-10.7-9.92c-0.34-11.15-0.1-22.32-0.1-33.66
					c3.9-0.12,7.09,1.13,8.98,4.47c1.02,1.81,1.82,4.02,1.86,6.06c0.18,10.78,0.09,21.56,0.09,32.34
					C605.21,656.09,605.15,656.28,605.09,656.61z"/>
			</g>
		</g>
		<g>
			<g>
				<path class="st2" d="M926.7,685.99c-11.62,0.87-21.53-7.45-21.79-19.39c-0.5-22.48-0.16-44.98-0.15-67.48
					c0-0.23,0.21-0.46,0.32-0.69c11.79-0.52,21.1,7.46,21.45,20.24C927.13,641,926.7,663.36,926.7,685.99z"/>
			</g>
			<g>
				<path class="st2" d="M899.5,687.84c-8.73,0.47-15.33-3.9-18.51-10.24c-1.73-3.46-2.76-7.11-2.76-11
					c-0.01-28.04-0.01-56.07,0-84.11c0-0.25,0.04-0.5,0.08-1c5.27-0.15,10.05,1.13,14.04,4.66c5,4.41,7.15,10.29,7.19,16.7
					c0.15,28.04,0.07,56.07,0.06,84.11C899.59,687.21,899.54,687.45,899.5,687.84z"/>
			</g>
			<g>
				<path class="st2" d="M931.2,613.45c6.15,0.05,10.41,3.93,10.53,10.12c0.2,10.62,0.05,21.25,0.04,31.88
					c0,0.11-0.09,0.23-0.14,0.34c-5.48,0.8-10.43-3.87-10.48-10.16c-0.09-10.44-0.03-20.87-0.03-31.31
					C931.12,614.08,931.17,613.84,931.2,613.45z"/>
			</g>
		</g>
	</g>
</g>
<g>
	<path class="st2" d="M609.75,826.81v7.94h-20.97c0,0-5.14-0.07-5.14,4.27s5.14,4.27,5.14,4.27h10.46c0,0,12,0.27,12,12.21
		c0,11.94-12,12.21-12,12.21h-22.1v-7.94h20.97c0,0,5.14,0.07,5.14-4.27s-5.14-4.27-5.14-4.27h-10.46c0,0-12-0.27-12-12.21
		c0-11.94,12-12.21,12-12.21H609.75z"/>
	<path class="st2" d="M653.54,843.3c0,0,5.14,0.07,5.14-4.27s-5.14-4.27-5.14-4.27h-19.87v-7.94h20.99c0,0,12,0.27,12,12.21
		c0,11.94-12,12.21-12,12.21h-13.05v16.49h-7.94l0.03-24.43H653.54z"/>
	<path class="st2" d="M704.84,826.81l12.77,40.92h-9.08l-10.61-33.21l-10.61,33.21h-9.08l12.77-40.92H704.84z"/>
	<path class="st2" d="M766.65,826.81v7.94h-14.34c0,0-11.05,0.66-11.05,12.52c0,11.86,11.05,12.52,11.05,12.52h14.34v7.94h-14.69
		c0,0-18.7-0.58-18.7-20.46c0-19.88,18.7-20.46,18.7-20.46H766.65z"/>
	<path class="st2" d="M818.94,826.81v7.94h-31.86v-7.94H818.94z M818.94,843.3v7.94h-31.86v-7.94H818.94z M818.94,859.79v7.94
		h-31.86v-7.94H818.94z"/>
	<path class="st2" d="M874.64,826.81v7.94h-31.86v-7.94H874.64z M874.64,843.3v7.94h-23.92v16.49h-7.94v-16.49v-6.14v-1.8H874.64z
		 M842.78,867.73h7.94H842.78z"/>
	<path class="st2" d="M897.13,867.73v-40.92h7.94v40.92H897.13z"/>
	<path class="st2" d="M938.45,867.73v-32.98h-12.99v-7.94h12.99h7.94h12.99v7.94h-12.99v32.98H938.45z"/>
</g>
<g>
	<rect x="1637.91" y="542.81" width="418.68" height="462.9"/>
	<g>
		<g>
			<g>
				<path class="st0" d="M1434.47,281.86c-19.88,0-38.77,0-58.29,0c2.37-6.68,4.42-12.7,6.63-18.67c2.21-5.96,2.28-5.94,8.74-5.94
					c16.94,0,33.88-0.01,50.83,0.02c7.55,0.02,15.1,0.41,22.24,3.09c5.66,2.12,9.84,5.93,6.84,13.45
					c-2.74,6.86-7.9,11.81-13.14,16.66c-15.43,14.25-32.87,25.78-50.76,36.57c-18.39,11.09-37.18,21.52-55.8,32.22
					c-0.94,0.54-1.96,0.96-3.57,1.74c0.42-1.71,0.59-2.85,0.97-3.9c3.21-9,6.5-17.98,9.69-26.99c2.27-6.41,4.51-12.83,6.6-19.29
					c0.79-2.45,1.9-3.54,4.73-3.49c11.33,0.19,22.67-0.23,33.98,0.15c11.98,0.4,19.94-5.05,25.11-15.42
					C1430.8,288.96,1432.4,285.91,1434.47,281.86z"/>
				<path class="st0" d="M1345.13,276.74c-6.23-6.31-9.92-13.04-11.71-21.05c-4.46-19.87,8.74-42.18,26.8-49.6
					c7.35-3.02,15.13-4.28,22.98-4.32c33.58-0.15,67.17-0.07,100.75-0.06c0.98,0,1.97,0.12,3.43,0.22
					c-5.5,17.37-16.28,30.02-31.17,40.64c1.71-3.71,3.14-6.55,4.35-9.49c0.89-2.16,0.38-3.42-2.38-3.41
					c-25.11,0.07-50.23-0.13-75.33,0.16c-11.4,0.13-20.99,4.34-26.01,15.47c-2.09,4.63-3.65,9.49-5.42,14.26
					C1349.39,265.07,1347.39,270.59,1345.13,276.74z"/>
			</g>
			<g>
				<g>
					<path class="st0" d="M1282.58,224.72c9.27-0.19,16.45,5.66,16.69,14.86c0.46,17.61,0.13,35.23,0.13,52.83
						c-5.29,0.97-11.19-1.58-13.92-6.7c-1.58-2.96-2.91-6.47-2.97-9.76c-0.29-16.71-0.13-33.43-0.12-50.15
						C1282.38,225.51,1282.48,225.22,1282.58,224.72z"/>
					<path class="st0" d="M1320.62,294.96c-7,0.35-12.26-3.17-14.77-8.29c-1.4-2.86-2.15-5.87-2.15-9.08
						c0.02-21.86,0.01-43.73,0.01-65.59c0-0.5,0-1.01,0-1.7c4.14-0.13,7.86,0.84,11.01,3.5c4.11,3.47,5.91,8.18,5.94,13.34
						c0.13,22.27,0.06,44.54,0.06,66.8C1320.72,294.29,1320.66,294.63,1320.62,294.96z"/>
					<path class="st0" d="M1277.3,269.52c-4.5,0.26-8.14-2.81-8.3-7.69c-0.27-8.64-0.07-17.3-0.07-26.09
						c3.02-0.09,5.49,0.88,6.96,3.47c0.79,1.4,1.41,3.11,1.44,4.7c0.14,8.35,0.07,16.71,0.07,25.07
						C1277.39,269.12,1277.34,269.26,1277.3,269.52z"/>
				</g>
				<g>
					<path class="st0" d="M1526.55,292.29c-9,0.68-16.68-5.78-16.89-15.03c-0.39-17.42-0.12-34.86-0.12-52.3
						c0-0.18,0.16-0.36,0.25-0.54c9.14-0.4,16.36,5.78,16.63,15.68C1526.89,257.42,1526.55,274.75,1526.55,292.29z"/>
					<path class="st0" d="M1505.47,293.72c-6.77,0.36-11.88-3.02-14.34-7.94c-1.34-2.68-2.14-5.51-2.14-8.53
						c-0.01-21.73,0-43.46,0-65.19c0-0.2,0.03-0.39,0.06-0.77c4.09-0.12,7.79,0.88,10.89,3.61c3.88,3.42,5.54,7.98,5.57,12.95
						c0.12,21.73,0.05,43.46,0.05,65.19C1505.54,293.23,1505.5,293.42,1505.47,293.72z"/>
					<path class="st0" d="M1530.04,236.07c4.77,0.04,8.07,3.05,8.16,7.84c0.16,8.23,0.04,16.47,0.03,24.71
						c0,0.09-0.07,0.18-0.11,0.26c-4.25,0.62-8.08-3-8.12-7.87c-0.07-8.09-0.02-16.18-0.02-24.26
						C1529.97,236.56,1530.01,236.37,1530.04,236.07z"/>
				</g>
			</g>
		</g>
		<g>
			<path d="M1243.58,303.49l-3.32,0.32l-0.84-8.76c0,0-0.17-2.15-1.99-1.98c-1.82,0.17-1.58,2.32-1.58,2.32l0.42,4.37
				c0,0,0.37,5.03-4.63,5.5c-4.99,0.48-5.58-4.53-5.58-4.53l-0.88-9.23l3.32-0.32l0.84,8.76c0,0,0.17,2.15,1.99,1.98
				c1.82-0.17,1.58-2.32,1.58-2.32l-0.42-4.37c0,0-0.37-5.03,4.63-5.5c4.99-0.48,5.58,4.53,5.58,4.53L1243.58,303.49z"/>
			<path d="M1228.53,317.34l13.44-3.29l1.77-0.43l1.47-0.36l2.09,8.56c0,0,1.09,4.92-3.78,6.11c-4.87,1.19-6.18-3.67-6.18-3.67
				l-1.3-5.32l-6.72,1.64L1228.53,317.34z M1239.29,318.14l1.19,4.86c0,0,0.48,2.1,2.25,1.67s1.23-2.52,1.23-2.52l-1.19-4.86
				L1239.29,318.14z"/>
			<path d="M1253.85,341.78l-14.15,11.13l-1.36-3.56l2.94-2.34l-2.36-6.19l-3.75,0.21l-1.36-3.56l17.96-1.1L1253.85,341.78z
				 M1244.02,344.82l5.77-4.6l-7.37,0.41L1244.02,344.82z"/>
			<path d="M1265.24,364.98l-2.93,1.59l-2.87-5.29c0,0-2.46-3.94-6.83-1.57c-4.37,2.38-2.4,6.58-2.4,6.58l2.87,5.29l-2.93,1.59
				l-2.94-5.42c0,0-3.53-7.01,3.8-11c7.33-3.98,11.29,2.8,11.29,2.8L1265.24,364.98z"/>
			<path d="M1277.73,382.91l-2.68,1.97l-5.94-8.09l-2.89,2.12l5.94,8.09l-2.68,1.97l-5.94-8.09l-2.89,2.12l5.94,8.09l-2.68,1.97
				l-7.92-10.78l1.35-0.99l1.33-0.98l2.89-2.12l2.68-1.97l2.89-2.12l1.44-1.06l1.24-0.91L1277.73,382.91z"/>
			<path d="M1293.5,399.99l-2.38,2.33l-7.03-7.17l-2.56,2.51l7.03,7.17l-2.38,2.33l-7.03-7.17l-4.95,4.85l-2.33-2.38l4.95-4.85
				l2.38-2.33l2.56-2.51l0.83-0.81l1.55-1.52L1293.5,399.99z M1271.86,402.46l2.33,2.38L1271.86,402.46z"/>
			<path d="M1289.78,419.49l10.9-13.28l2.58,2.12l-10.9,13.28L1289.78,419.49z"/>
			<path d="M1305.18,431.04l7.6-11.57l-4.56-2.99l1.83-2.79l4.56,2.99l2.79,1.83l4.56,2.99l-1.83,2.79l-4.56-2.99l-7.6,11.57
				L1305.18,431.04z"/>
			<path d="M1354.9,436.44l-1.16,3.12l-8.25-3.07c0,0-2.01-0.78-2.65,0.93c-0.64,1.71,1.4,2.43,1.4,2.43l4.11,1.53
				c0,0,4.68,1.86,2.93,6.56c-1.75,4.7-6.51,3.05-6.51,3.05l-8.69-3.24l1.16-3.12l8.25,3.07c0,0,2.01,0.78,2.65-0.93
				c0.64-1.71-1.39-2.43-1.39-2.43l-4.11-1.53c0,0-4.68-1.87-2.93-6.56c1.75-4.7,6.51-3.05,6.51-3.05L1354.9,436.44z"/>
			<path d="M1360.8,456.01l2.9-13.54l0.38-1.78l0.32-1.48l8.62,1.85c0,0,4.9,1.17,3.85,6.07s-6,3.96-6,3.96l-5.36-1.15l-1.45,6.77
				L1360.8,456.01z M1366.2,446.68l4.9,1.05c0,0,2.1,0.48,2.49-1.3c0.38-1.78-1.73-2.21-1.73-2.21l-4.9-1.05L1366.2,446.68z"/>
			<path d="M1393.86,443.9l3.83,17.58l-3.8-0.34l-0.82-3.66l-6.6-0.58l-1.45,3.46l-3.8-0.34l6.85-16.64L1393.86,443.9z
				 M1392.3,454.07l-1.62-7.21l-2.86,6.81L1392.3,454.07z"/>
			<path d="M1419.7,443.81l0.14,3.33l-6.02,0.26c0,0-4.62,0.48-4.41,5.45c0.22,4.97,4.86,5.05,4.86,5.05l6.02-0.26l0.14,3.33
				l-6.16,0.27c0,0-7.85,0.1-8.22-8.24c-0.36-8.34,7.47-8.92,7.47-8.92L1419.7,443.81z"/>
			<path d="M1441.29,440.5l0.59,3.28l-9.88,1.78l0.64,3.53l9.88-1.78l0.59,3.28l-9.88,1.78l0.64,3.53l9.88-1.78l0.59,3.28
				l-13.17,2.37l-0.3-1.65l-0.29-1.63l-0.64-3.53l-0.59-3.28l-0.64-3.53l-0.32-1.77l-0.27-1.52L1441.29,440.5z"/>
			<path d="M1463.54,433.83l1.05,3.16l-9.52,3.18l1.14,3.4l9.52-3.18l1.05,3.16l-9.52,3.18l2.19,6.56l-3.16,1.05l-2.19-6.56
				l-1.05-3.16l-1.14-3.4l-0.37-1.1l-0.69-2.06L1463.54,433.83z M1456.29,454.35l3.16-1.05L1456.29,454.35z"/>
			<path d="M1479.49,445.66l-7.19-15.6l3.03-1.4l7.19,15.6L1479.49,445.66z"/>
			<path d="M1496.59,436.85l-7.11-11.89l-4.68,2.8l-1.71-2.86l4.68-2.8l2.86-1.71l4.68-2.8l1.71,2.86l-4.68,2.8l7.1,11.88
				L1496.59,436.85z"/>
			<path d="M1523.16,394.47l2.3,2.41l-6.37,6.07c0,0-1.58,1.47-0.32,2.79c1.26,1.32,2.8-0.19,2.8-0.19l3.18-3.03
				c0,0,3.73-3.39,7.19,0.24c3.46,3.63-0.11,7.19-0.11,7.19l-6.72,6.4l-2.3-2.41l6.37-6.07c0,0,1.58-1.46,0.32-2.79
				c-1.26-1.32-2.8,0.19-2.8,0.19l-3.18,3.03c0,0-3.73,3.4-7.19-0.24c-3.46-3.63,0.11-7.19,0.11-7.19L1523.16,394.47z"/>
			<path d="M1543.33,397.75l-10.89-8.55l-1.43-1.13l-1.19-0.93l5.44-6.93c0,0,3.2-3.89,7.15-0.8c3.94,3.1,0.92,7.13,0.92,7.13
				l-3.39,4.31l5.45,4.27L1543.33,397.75z M1537.32,388.79l3.09-3.94c0,0,1.36-1.68-0.08-2.8c-1.44-1.13-2.74,0.59-2.74,0.59
				l-3.09,3.94L1537.32,388.79z"/>
			<path d="M1546.95,362.77l17.47,4.29l-1.97,3.26l-3.65-0.87l-3.42,5.67l2.47,2.82l-1.97,3.26l-11.93-13.47L1546.95,362.77z
				 M1555.4,368.64l-7.18-1.71l4.86,5.56L1555.4,368.64z"/>
			<path d="M1558.22,339.48l3.06,1.33l-2.4,5.52c0,0-1.59,4.37,2.98,6.35c4.57,1.98,6.67-2.16,6.67-2.16l2.4-5.52l3.06,1.33
				l-2.45,5.66c0,0-3.35,7.11-11.01,3.78c-7.66-3.32-4.76-10.62-4.76-10.62L1558.22,339.48z"/>
			<path d="M1564.64,318.63l3.21,0.9l-2.7,9.67l3.45,0.97l2.7-9.67l3.21,0.9l-2.7,9.67l3.46,0.97l2.7-9.67l3.21,0.9l-3.6,12.88
				l-1.62-0.45l-1.59-0.45l-3.46-0.97l-3.21-0.9l-3.46-0.97l-1.73-0.48l-1.48-0.41L1564.64,318.63z"/>
			<path d="M1568.34,295.67l3.31,0.43l-1.3,9.96l3.56,0.46l1.3-9.96l3.31,0.43l-1.3,9.96l6.86,0.9l-0.43,3.31l-6.87-0.9l-3.31-0.43
				l-3.56-0.46l-1.15-0.15l-2.16-0.28L1568.34,295.67z M1583.65,311.16l0.43-3.31L1583.65,311.16z"/>
			<path d="M1585.96,286.52l-17.18-0.37l0.07-3.33l17.18,0.37L1585.96,286.52z"/>
			<path d="M1585.54,267.31l-13.79,1.16l0.46,5.43l-3.32,0.28l-0.46-5.43l-0.28-3.32l-0.46-5.43l3.32-0.28l0.46,5.43l13.79-1.16
				L1585.54,267.31z"/>
		</g>
		<g>
			<path d="M1223.74,241.22l3.03,0.12l-0.31,8c0,0-0.1,1.96,1.56,2.02c1.66,0.06,1.71-1.9,1.71-1.9l0.16-3.99
				c0,0,0.28-4.58,4.84-4.4c4.56,0.18,4.48,4.76,4.48,4.76l-0.33,8.44l-3.03-0.12l0.31-8c0,0,0.1-1.96-1.56-2.02
				c-1.66-0.06-1.71,1.9-1.71,1.9l-0.15,3.99c0,0-0.28,4.58-4.84,4.4c-4.56-0.18-4.48-4.76-4.48-4.76L1223.74,241.22z"/>
			<path d="M1240.33,232.61l-12.42-2.14l-1.63-0.28l-1.36-0.23l1.36-7.9c0,0,0.88-4.5,5.38-3.73c4.5,0.78,3.82,5.31,3.82,5.31
				l-0.85,4.92l6.21,1.07L1240.33,232.61z M1231.65,228.03l0.77-4.49c0,0,0.36-1.93-1.28-2.21c-1.64-0.28-1.94,1.66-1.94,1.66
				l-0.77,4.49L1231.65,228.03z"/>
			<path d="M1231.27,201.55l16.38-0.31l-0.97,3.33l-3.42,0.09l-1.69,5.79l2.83,1.91l-0.97,3.33l-13.65-9.06L1231.27,201.55z
				 M1240.08,204.73l-6.72,0.17l5.58,3.76L1240.08,204.73z"/>
			<path d="M1240.48,177.56l2.79,1.2l-2.16,5.04c0,0-1.44,3.98,2.73,5.77c4.16,1.79,6.06-1.99,6.06-1.99l2.17-5.04l2.79,1.2
				l-2.22,5.16c0,0-3.03,6.48-10.01,3.48c-6.98-3-4.36-9.66-4.36-9.66L1240.48,177.56z"/>
			<path d="M1251.11,158.28l2.62,1.53l-4.62,7.88l2.82,1.65l4.62-7.88l2.62,1.53l-4.62,7.88l2.82,1.65l4.62-7.88l2.62,1.53
				l-6.16,10.5l-1.32-0.77l-1.3-0.76l-2.82-1.65l-2.62-1.53l-2.82-1.65l-1.41-0.83l-1.21-0.71L1251.11,158.28z"/>
			<path d="M1264.91,139.31l2.4,1.86l-5.61,7.22l2.58,2l5.61-7.22l2.4,1.86l-5.61,7.22l4.98,3.86l-1.86,2.4l-4.98-3.87l-2.4-1.86
				l-2.58-2l-0.83-0.65l-1.56-1.21L1264.91,139.31z M1269.79,158.52l1.86-2.4L1269.79,158.52z"/>
			<path d="M1283.19,142.36l-11.33-10.77l2.09-2.2l11.33,10.77L1283.19,142.36z"/>
			<path d="M1294.68,131.18l-8.25-9.52l-3.75,3.25l-1.99-2.29l3.75-3.25l2.29-1.99l3.75-3.25l1.99,2.29l-3.75,3.25l8.25,9.53
				L1294.68,131.18z"/>
			<path d="M1321.08,94.21l1.48,2.65l-6.99,3.91c0,0-1.73,0.93-0.92,2.38c0.81,1.45,2.51,0.47,2.51,0.47l3.49-1.95
				c0,0,4.05-2.15,6.28,1.83c2.23,3.98-1.72,6.31-1.72,6.31l-7.37,4.12l-1.48-2.65l6.99-3.91c0,0,1.73-0.93,0.91-2.38
				c-0.81-1.45-2.51-0.47-2.51-0.47l-3.49,1.95c0,0-4.05,2.15-6.28-1.83c-2.23-3.98,1.72-6.31,1.72-6.31L1321.08,94.21z"/>
			<path d="M1337.08,103.86l-4.65-11.71l-0.61-1.54l-0.51-1.28l7.46-2.96c0,0,4.3-1.6,5.98,2.65c1.68,4.24-2.54,6.03-2.54,6.03
				l-4.64,1.84l2.32,5.86L1337.08,103.86z M1336.45,94.07l4.23-1.68c0,0,1.84-0.7,1.22-2.24c-0.61-1.54-2.43-0.79-2.43-0.79
				l-4.23,1.68L1336.45,94.07z"/>
			<path d="M1358.88,79.94l8.81,13.81l-3.35,0.91l-1.85-2.87l-5.82,1.58l-0.15,3.41l-3.35,0.91l0.62-16.37L1358.88,79.94z
				 M1360.75,89.12l-3.65-5.65l-0.3,6.72L1360.75,89.12z"/>
			<path d="M1384.15,75.3l0.43,3.01l-5.43,0.78c0,0-4.14,0.85-3.5,5.33c0.64,4.49,4.86,4.14,4.86,4.14l5.43-0.78l0.43,3.01
				l-5.56,0.79c0,0-7.11,0.79-8.18-6.73c-1.08-7.52,5.97-8.75,5.97-8.75L1384.15,75.3z"/>
			<path d="M1406.17,74.29l0.06,3.03l-9.14,0.18l0.06,3.27l9.14-0.18l0.06,3.03l-9.14,0.18l0.06,3.26l9.14-0.18l0.06,3.03
				l-12.17,0.24l-0.03-1.53l-0.03-1.51l-0.06-3.26l-0.06-3.03l-0.06-3.27l-0.03-1.63l-0.03-1.4L1406.17,74.29z"/>
			<path d="M1429.52,76.13l-0.33,3.02l-9.09-1l-0.36,3.25l9.09,1l-0.33,3.02l-9.09-1l-0.69,6.27l-3.02-0.33l0.69-6.26l0.33-3.02
				l0.36-3.25l0.12-1.05l0.22-1.97L1429.52,76.13z M1415.71,90.34l3.02,0.33L1415.71,90.34z"/>
			<path d="M1436.45,93.29l3.25-15.3l2.97,0.63l-3.25,15.3L1436.45,93.29z"/>
			<path d="M1452,97.25l3.81-12.01l-4.73-1.5l0.92-2.89l4.73,1.5l2.89,0.92l4.73,1.5l-0.92,2.89l-4.73-1.5l-3.81,12.01L1452,97.25z"
				/>
			<path d="M1508.88,108.2l-1.69,2.52l-6.66-4.46c0,0-1.61-1.11-2.54,0.27c-0.93,1.38,0.72,2.45,0.72,2.45l3.32,2.22
				c0,0,3.75,2.64,1.22,6.43c-2.54,3.79-6.41,1.33-6.41,1.33l-7.02-4.7l1.69-2.52l6.66,4.46c0,0,1.62,1.12,2.54-0.27
				c0.92-1.38-0.72-2.45-0.72-2.45l-3.32-2.22c0,0-3.75-2.64-1.22-6.43c2.54-3.79,6.41-1.33,6.41-1.33L1508.88,108.2z"/>
			<path d="M1507.52,126.84l8.32-9.46l1.1-1.25l0.91-1.03l6.03,5.3c0,0,3.38,3.11,0.36,6.53c-3.02,3.43-6.53,0.48-6.53,0.48
				l-3.75-3.3l-4.16,4.73L1507.52,126.84z M1515.97,121.83l3.42,3.01c0,0,1.46,1.32,2.55,0.07c1.1-1.25-0.4-2.52-0.4-2.52
				l-3.42-3.01L1515.97,121.83z"/>
			<path d="M1538.74,135.38l-8.29,14.12l-2.33-2.57l1.71-2.96l-4.05-4.46l-3.11,1.42l-2.33-2.57l14.85-6.9L1538.74,135.38z
				 M1531.42,141.22l3.36-5.82l-6.11,2.79L1531.42,141.22z"/>
			<path d="M1554.37,155.69l-2.48,1.76l-3.17-4.47c0,0-2.65-3.3-6.34-0.68c-3.7,2.62-1.46,6.21-1.46,6.21l3.17,4.47l-2.48,1.75
				l-3.25-4.58c0,0-3.95-5.96,2.25-10.35c6.2-4.39,10.51,1.31,10.51,1.31L1554.37,155.69z"/>
			<path d="M1565.32,174.82l-2.67,1.44l-4.33-8.05l-2.88,1.55l4.33,8.05l-2.67,1.44l-4.33-8.05l-2.88,1.55l4.33,8.05l-2.67,1.44
				l-5.76-10.72l1.35-0.72l1.33-0.71l2.88-1.55l2.67-1.44l2.88-1.55l1.44-0.77l1.23-0.66L1565.32,174.82z"/>
			<path d="M1574.32,196.52l-2.84,1.07l-3.23-8.55l-3.06,1.15l3.23,8.55l-2.84,1.07l-3.23-8.55l-5.89,2.23l-1.07-2.84l5.89-2.23
				l2.84-1.07l3.06-1.15l0.99-0.37l1.85-0.7L1574.32,196.52z M1555.39,190.66l1.07,2.84L1555.39,190.66z"/>
			<path d="M1562.18,210.5l15.1-4.04l0.78,2.93l-15.1,4.04L1562.18,210.5z"/>
			<path d="M1565.7,226.12l12.43-2.05l-0.81-4.9l2.99-0.49l0.81,4.9l0.49,2.99l0.81,4.9l-2.99,0.49l-0.81-4.9l-12.43,2.05
				L1565.7,226.12z"/>
		</g>
	</g>
	<g>
		<g>
			<g>
				<path class="st1" d="M1879.68,282.26c-19.88,0-38.77,0-58.29,0c2.37-6.68,4.42-12.7,6.63-18.67c2.21-5.96,2.28-5.94,8.74-5.94
					c16.94,0,33.88-0.01,50.83,0.02c7.55,0.01,15.1,0.41,22.24,3.09c5.66,2.12,9.84,5.93,6.84,13.45
					c-2.74,6.86-7.9,11.81-13.14,16.66c-15.43,14.25-32.87,25.78-50.76,36.57c-18.39,11.09-37.18,21.52-55.8,32.22
					c-0.94,0.54-1.96,0.96-3.57,1.74c0.42-1.71,0.59-2.85,0.97-3.9c3.21-9,6.5-17.98,9.69-26.99c2.27-6.41,4.51-12.83,6.6-19.29
					c0.79-2.45,1.9-3.54,4.73-3.49c11.33,0.19,22.67-0.23,33.98,0.15c11.98,0.4,19.94-5.05,25.11-15.42
					C1876.01,289.36,1877.61,286.31,1879.68,282.26z"/>
				<path class="st1" d="M1790.35,277.14c-6.23-6.31-9.92-13.04-11.71-21.05c-4.46-19.87,8.74-42.18,26.8-49.6
					c7.35-3.02,15.13-4.28,22.98-4.32c33.58-0.15,67.17-0.07,100.75-0.06c0.98,0,1.97,0.12,3.43,0.22
					c-5.5,17.37-16.28,30.02-31.17,40.64c1.71-3.71,3.14-6.55,4.35-9.49c0.89-2.16,0.38-3.42-2.38-3.41
					c-25.11,0.07-50.23-0.13-75.33,0.16c-11.4,0.13-20.99,4.34-26.01,15.47c-2.09,4.63-3.65,9.49-5.42,14.26
					C1794.6,265.47,1792.6,270.99,1790.35,277.14z"/>
			</g>
			<g>
				<g>
					<path class="st1" d="M1727.79,225.12c9.27-0.19,16.45,5.66,16.69,14.86c0.46,17.61,0.13,35.23,0.13,52.83
						c-5.29,0.97-11.19-1.58-13.92-6.7c-1.58-2.96-2.91-6.47-2.97-9.76c-0.29-16.71-0.13-33.43-0.12-50.15
						C1727.59,225.91,1727.7,225.62,1727.79,225.12z"/>
					<path class="st1" d="M1765.83,295.36c-7,0.35-12.26-3.17-14.77-8.29c-1.4-2.86-2.15-5.87-2.15-9.08
						c0.02-21.86,0.01-43.73,0.01-65.59c0-0.5,0-1.01,0-1.7c4.14-0.13,7.86,0.84,11.01,3.5c4.11,3.47,5.91,8.18,5.94,13.34
						c0.13,22.27,0.06,44.54,0.06,66.8C1765.93,294.69,1765.87,295.03,1765.83,295.36z"/>
					<path class="st1" d="M1722.51,269.92c-4.5,0.26-8.14-2.81-8.3-7.69c-0.27-8.64-0.07-17.3-0.07-26.09
						c3.02-0.09,5.49,0.88,6.96,3.47c0.79,1.4,1.41,3.11,1.44,4.7c0.14,8.35,0.07,16.71,0.07,25.07
						C1722.6,269.52,1722.55,269.67,1722.51,269.92z"/>
				</g>
				<g>
					<path class="st1" d="M1971.76,292.69c-9,0.68-16.68-5.78-16.89-15.03c-0.39-17.42-0.12-34.86-0.12-52.3
						c0-0.18,0.16-0.36,0.25-0.54c9.14-0.4,16.36,5.78,16.63,15.68C1972.1,257.82,1971.76,275.15,1971.76,292.69z"/>
					<path class="st1" d="M1950.68,294.12c-6.77,0.36-11.88-3.02-14.34-7.94c-1.34-2.68-2.14-5.51-2.14-8.53
						c-0.01-21.73,0-43.46,0-65.19c0-0.2,0.03-0.39,0.06-0.77c4.09-0.12,7.79,0.88,10.89,3.61c3.88,3.42,5.54,7.98,5.57,12.95
						c0.12,21.73,0.05,43.46,0.05,65.19C1950.75,293.63,1950.71,293.82,1950.68,294.12z"/>
					<path class="st1" d="M1975.25,236.47c4.77,0.04,8.07,3.05,8.16,7.84c0.16,8.23,0.04,16.47,0.03,24.71
						c0,0.09-0.07,0.18-0.11,0.26c-4.25,0.62-8.08-3-8.12-7.87c-0.07-8.09-0.02-16.18-0.02-24.26
						C1975.19,236.96,1975.22,236.77,1975.25,236.47z"/>
				</g>
			</g>
		</g>
		<g>
			<path d="M1688.79,303.89l-3.32,0.32l-0.84-8.76c0,0-0.17-2.15-1.99-1.98c-1.82,0.17-1.58,2.32-1.58,2.32l0.42,4.37
				c0,0,0.37,5.03-4.63,5.5c-4.99,0.48-5.58-4.53-5.58-4.53l-0.88-9.23l3.32-0.32l0.84,8.76c0,0,0.17,2.15,1.99,1.98
				c1.82-0.17,1.58-2.32,1.58-2.32l-0.42-4.37c0,0-0.37-5.03,4.63-5.5c4.99-0.48,5.58,4.53,5.58,4.53L1688.79,303.89z"/>
			<path d="M1673.75,317.74l13.44-3.29l1.77-0.43l1.47-0.36l2.09,8.56c0,0,1.09,4.92-3.78,6.11c-4.87,1.19-6.18-3.67-6.18-3.67
				l-1.3-5.32l-6.72,1.64L1673.75,317.74z M1684.5,318.54l1.19,4.86c0,0,0.48,2.1,2.25,1.67s1.23-2.52,1.23-2.52l-1.19-4.86
				L1684.5,318.54z"/>
			<path d="M1699.06,342.18l-14.15,11.13l-1.36-3.56l2.94-2.34l-2.36-6.19l-3.75,0.21l-1.36-3.56l17.96-1.1L1699.06,342.18z
				 M1689.23,345.22l5.77-4.6l-7.37,0.41L1689.23,345.22z"/>
			<path d="M1710.46,365.38l-2.93,1.59l-2.87-5.29c0,0-2.46-3.94-6.83-1.57c-4.37,2.38-2.4,6.58-2.4,6.58l2.87,5.29l-2.93,1.59
				l-2.94-5.42c0,0-3.53-7.01,3.8-11c7.33-3.98,11.29,2.8,11.29,2.8L1710.46,365.38z"/>
			<path d="M1722.94,383.32l-2.68,1.97l-5.94-8.09l-2.89,2.12l5.94,8.09l-2.68,1.97l-5.94-8.09l-2.89,2.12l5.94,8.09l-2.68,1.97
				l-7.92-10.78l1.35-0.99l1.33-0.98l2.89-2.12l2.68-1.97l2.89-2.12l1.44-1.06l1.24-0.91L1722.94,383.32z"/>
			<path d="M1738.71,400.4l-2.38,2.33l-7.03-7.17l-2.56,2.51l7.03,7.17l-2.38,2.33l-7.03-7.17l-4.95,4.85l-2.33-2.38l4.95-4.85
				l2.38-2.33l2.56-2.51l0.83-0.81l1.55-1.52L1738.71,400.4z M1717.07,402.86l2.33,2.38L1717.07,402.86z"/>
			<path d="M1734.99,419.89l10.9-13.28l2.58,2.12l-10.9,13.28L1734.99,419.89z"/>
			<path d="M1750.39,431.44l7.6-11.57l-4.56-2.99l1.83-2.79l4.56,2.99l2.79,1.83l4.56,2.99l-1.83,2.79l-4.56-2.99l-7.6,11.57
				L1750.39,431.44z"/>
			<path d="M1800.11,436.84l-1.16,3.12l-8.25-3.07c0,0-2.01-0.78-2.65,0.93c-0.64,1.71,1.4,2.43,1.4,2.43l4.11,1.53
				c0,0,4.68,1.86,2.93,6.56c-1.75,4.7-6.51,3.05-6.51,3.05l-8.69-3.24l1.16-3.12l8.25,3.07c0,0,2.01,0.78,2.65-0.93
				c0.64-1.71-1.39-2.43-1.39-2.43l-4.11-1.53c0,0-4.68-1.87-2.93-6.56c1.75-4.7,6.51-3.05,6.51-3.05L1800.11,436.84z"/>
			<path d="M1806.01,456.42l2.9-13.54l0.38-1.78l0.32-1.48l8.62,1.85c0,0,4.9,1.17,3.85,6.07s-6,3.96-6,3.96l-5.36-1.15l-1.45,6.77
				L1806.01,456.42z M1811.42,447.08l4.9,1.05c0,0,2.1,0.48,2.49-1.3c0.38-1.78-1.73-2.21-1.73-2.21l-4.9-1.05L1811.42,447.08z"/>
			<path d="M1839.07,444.3l3.83,17.58l-3.8-0.34l-0.82-3.66l-6.6-0.58l-1.45,3.46l-3.8-0.34l6.85-16.64L1839.07,444.3z
				 M1837.52,454.47l-1.62-7.21l-2.86,6.81L1837.52,454.47z"/>
			<path d="M1864.92,444.22l0.14,3.33l-6.02,0.26c0,0-4.62,0.48-4.41,5.45c0.22,4.97,4.86,5.05,4.86,5.05l6.02-0.26l0.14,3.33
				l-6.16,0.27c0,0-7.85,0.1-8.22-8.24c-0.36-8.34,7.47-8.92,7.47-8.92L1864.92,444.22z"/>
			<path d="M1886.5,440.9l0.59,3.28l-9.88,1.78l0.64,3.53l9.88-1.78l0.59,3.28l-9.88,1.78l0.64,3.53l9.88-1.78l0.59,3.28
				l-13.17,2.37l-0.3-1.65l-0.29-1.63l-0.64-3.53l-0.59-3.28l-0.64-3.53l-0.32-1.77l-0.27-1.52L1886.5,440.9z"/>
			<path d="M1908.75,434.23l1.05,3.16l-9.52,3.18l1.14,3.4l9.52-3.18l1.05,3.16l-9.52,3.18l2.19,6.56l-3.16,1.05l-2.19-6.56
				l-1.05-3.16l-1.14-3.4l-0.37-1.1l-0.69-2.06L1908.75,434.23z M1901.5,454.75l3.16-1.05L1901.5,454.75z"/>
			<path d="M1924.7,446.06l-7.19-15.6l3.03-1.4l7.19,15.6L1924.7,446.06z"/>
			<path d="M1941.81,437.25l-7.11-11.89l-4.68,2.8l-1.71-2.86l4.68-2.8l2.86-1.71l4.68-2.8l1.71,2.86l-4.68,2.8l7.1,11.88
				L1941.81,437.25z"/>
			<path d="M1968.37,394.87l2.3,2.41l-6.37,6.07c0,0-1.58,1.47-0.32,2.79c1.26,1.32,2.8-0.19,2.8-0.19l3.18-3.03
				c0,0,3.73-3.39,7.19,0.24s-0.11,7.19-0.11,7.19l-6.72,6.4l-2.3-2.41l6.37-6.07c0,0,1.58-1.46,0.32-2.79
				c-1.26-1.32-2.8,0.19-2.8,0.19l-3.18,3.03c0,0-3.73,3.4-7.19-0.24c-3.46-3.63,0.11-7.19,0.11-7.19L1968.37,394.87z"/>
			<path d="M1988.54,398.15l-10.89-8.55l-1.43-1.13l-1.19-0.93l5.44-6.93c0,0,3.2-3.89,7.15-0.8c3.94,3.1,0.92,7.13,0.92,7.13
				l-3.39,4.31l5.45,4.27L1988.54,398.15z M1982.53,389.19l3.09-3.94c0,0,1.36-1.68-0.08-2.8c-1.44-1.13-2.74,0.59-2.74,0.59
				l-3.09,3.94L1982.53,389.19z"/>
			<path d="M1992.16,363.17l17.47,4.29l-1.97,3.26l-3.65-0.87l-3.42,5.67l2.47,2.82l-1.97,3.26l-11.93-13.47L1992.16,363.17z
				 M2000.62,369.04l-7.18-1.71l4.86,5.56L2000.62,369.04z"/>
			<path d="M2003.43,339.88l3.06,1.33l-2.4,5.52c0,0-1.59,4.37,2.98,6.35c4.57,1.98,6.67-2.16,6.67-2.16l2.4-5.52l3.06,1.33
				l-2.45,5.66c0,0-3.35,7.11-11.01,3.78s-4.76-10.62-4.76-10.62L2003.43,339.88z"/>
			<path d="M2009.85,319.03l3.21,0.9l-2.7,9.67l3.45,0.97l2.7-9.67l3.21,0.9l-2.7,9.67l3.46,0.97l2.7-9.67l3.21,0.9l-3.6,12.88
				l-1.62-0.45l-1.59-0.45l-3.46-0.97l-3.21-0.9l-3.46-0.97l-1.73-0.48l-1.48-0.41L2009.85,319.03z"/>
			<path d="M2013.55,296.07l3.31,0.43l-1.3,9.96l3.56,0.46l1.3-9.96l3.31,0.43l-1.3,9.96l6.86,0.9l-0.43,3.31l-6.87-0.9l-3.31-0.43
				l-3.56-0.46l-1.15-0.15l-2.16-0.28L2013.55,296.07z M2028.86,311.56l0.43-3.31L2028.86,311.56z"/>
			<path d="M2031.17,286.93l-17.18-0.37l0.07-3.33l17.18,0.37L2031.17,286.93z"/>
			<path d="M2030.75,267.72l-13.79,1.16l0.46,5.43l-3.32,0.28l-0.46-5.43l-0.28-3.32l-0.46-5.43l3.32-0.28l0.46,5.43l13.79-1.16
				L2030.75,267.72z"/>
		</g>
		<g>
			<path d="M1668.95,241.62l3.03,0.12l-0.31,8c0,0-0.1,1.96,1.56,2.02c1.66,0.06,1.71-1.9,1.71-1.9l0.16-3.99
				c0,0,0.28-4.58,4.84-4.4c4.56,0.18,4.48,4.76,4.48,4.76l-0.33,8.44l-3.03-0.12l0.31-8c0,0,0.1-1.96-1.56-2.02
				c-1.66-0.06-1.71,1.9-1.71,1.9l-0.15,3.99c0,0-0.28,4.58-4.84,4.4c-4.56-0.18-4.48-4.76-4.48-4.76L1668.95,241.62z"/>
			<path d="M1685.54,233.01l-12.42-2.14l-1.63-0.28l-1.36-0.23l1.36-7.9c0,0,0.88-4.5,5.38-3.73c4.5,0.78,3.82,5.31,3.82,5.31
				l-0.85,4.92l6.21,1.07L1685.54,233.01z M1676.86,228.44l0.77-4.49c0,0,0.36-1.93-1.28-2.21c-1.64-0.28-1.94,1.66-1.94,1.66
				l-0.77,4.49L1676.86,228.44z"/>
			<path d="M1676.48,201.95l16.38-0.31l-0.97,3.33l-3.42,0.09l-1.69,5.79l2.83,1.91l-0.97,3.33l-13.65-9.06L1676.48,201.95z
				 M1685.29,205.14l-6.72,0.17l5.58,3.76L1685.29,205.14z"/>
			<path d="M1685.69,177.96l2.79,1.2l-2.16,5.04c0,0-1.44,3.98,2.73,5.77c4.16,1.79,6.06-1.99,6.06-1.99l2.17-5.04l2.79,1.2
				l-2.22,5.16c0,0-3.03,6.48-10.01,3.48c-6.98-3-4.36-9.66-4.36-9.66L1685.69,177.96z"/>
			<path d="M1696.32,158.68l2.62,1.53l-4.62,7.88l2.82,1.65l4.62-7.88l2.62,1.53l-4.62,7.88l2.82,1.65l4.62-7.88l2.62,1.53
				l-6.16,10.5l-1.32-0.77l-1.3-0.76l-2.82-1.65l-2.62-1.53l-2.82-1.65l-1.41-0.83l-1.21-0.71L1696.32,158.68z"/>
			<path d="M1710.12,139.72l2.4,1.86l-5.61,7.22l2.58,2l5.61-7.22l2.4,1.86l-5.61,7.22l4.98,3.86l-1.86,2.4l-4.98-3.87l-2.4-1.86
				l-2.58-2l-0.83-0.65l-1.56-1.21L1710.12,139.72z M1715,158.92l1.86-2.4L1715,158.92z"/>
			<path d="M1728.4,142.76l-11.33-10.77l2.09-2.2l11.33,10.77L1728.4,142.76z"/>
			<path d="M1739.89,131.58l-8.25-9.52l-3.75,3.25l-1.99-2.29l3.75-3.25l2.29-1.99l3.75-3.25l1.99,2.29l-3.75,3.25l8.25,9.53
				L1739.89,131.58z"/>
			<path d="M1766.3,94.61l1.48,2.65l-6.99,3.91c0,0-1.73,0.93-0.92,2.38c0.81,1.45,2.51,0.47,2.51,0.47l3.49-1.95
				c0,0,4.05-2.15,6.28,1.83c2.23,3.98-1.72,6.31-1.72,6.31l-7.37,4.12l-1.48-2.65l6.99-3.91c0,0,1.73-0.93,0.91-2.38
				s-2.51-0.47-2.51-0.47l-3.49,1.95c0,0-4.05,2.15-6.28-1.83c-2.23-3.98,1.72-6.31,1.72-6.31L1766.3,94.61z"/>
			<path d="M1782.29,104.27l-4.65-11.71l-0.61-1.54l-0.51-1.28l7.46-2.96c0,0,4.3-1.6,5.98,2.65c1.68,4.24-2.54,6.03-2.54,6.03
				l-4.64,1.84l2.32,5.86L1782.29,104.27z M1781.67,94.47l4.23-1.68c0,0,1.84-0.7,1.22-2.24c-0.61-1.54-2.43-0.79-2.43-0.79
				l-4.23,1.68L1781.67,94.47z"/>
			<path d="M1804.09,80.35l8.81,13.81l-3.35,0.91l-1.85-2.87l-5.82,1.58l-0.15,3.41l-3.35,0.91l0.62-16.37L1804.09,80.35z
				 M1805.96,89.52l-3.65-5.65l-0.3,6.72L1805.96,89.52z"/>
			<path d="M1829.36,75.7l0.43,3.01l-5.43,0.78c0,0-4.14,0.85-3.5,5.33c0.64,4.49,4.86,4.14,4.86,4.14l5.43-0.78l0.43,3.01
				l-5.56,0.79c0,0-7.11,0.79-8.18-6.73c-1.08-7.52,5.97-8.75,5.97-8.75L1829.36,75.7z"/>
			<path d="M1851.38,74.69l0.06,3.03l-9.14,0.18l0.06,3.27l9.14-0.18l0.06,3.03l-9.14,0.18l0.06,3.26l9.14-0.18l0.06,3.03
				l-12.17,0.24l-0.03-1.53l-0.03-1.51l-0.06-3.26l-0.06-3.03l-0.06-3.27l-0.03-1.63l-0.03-1.4L1851.38,74.69z"/>
			<path d="M1874.73,76.53l-0.33,3.02l-9.09-1l-0.36,3.25l9.09,1l-0.33,3.02l-9.09-1l-0.69,6.27l-3.02-0.33l0.69-6.26l0.33-3.02
				l0.36-3.25l0.12-1.05l0.22-1.97L1874.73,76.53z M1860.92,90.74l3.02,0.33L1860.92,90.74z"/>
			<path d="M1881.67,93.7l3.25-15.3l2.97,0.63l-3.25,15.3L1881.67,93.7z"/>
			<path d="M1897.21,97.65l3.81-12.01l-4.73-1.5l0.92-2.89l4.73,1.5l2.89,0.92l4.73,1.5l-0.92,2.89l-4.73-1.5l-3.81,12.01
				L1897.21,97.65z"/>
			<path d="M1954.09,108.6l-1.69,2.52l-6.66-4.46c0,0-1.61-1.11-2.54,0.27c-0.93,1.38,0.72,2.45,0.72,2.45l3.32,2.22
				c0,0,3.75,2.64,1.22,6.43c-2.54,3.79-6.41,1.33-6.41,1.33l-7.02-4.7l1.69-2.52l6.66,4.46c0,0,1.62,1.12,2.54-0.27
				c0.92-1.38-0.72-2.45-0.72-2.45l-3.32-2.22c0,0-3.75-2.64-1.22-6.43c2.54-3.79,6.41-1.33,6.41-1.33L1954.09,108.6z"/>
			<path d="M1952.73,127.24l8.32-9.46l1.1-1.25l0.91-1.03l6.03,5.3c0,0,3.38,3.11,0.36,6.53c-3.02,3.43-6.53,0.48-6.53,0.48
				l-3.75-3.3l-4.16,4.73L1952.73,127.24z M1961.18,122.23l3.42,3.01c0,0,1.46,1.32,2.55,0.07c1.1-1.25-0.4-2.52-0.4-2.52
				l-3.42-3.01L1961.18,122.23z"/>
			<path d="M1983.95,135.78l-8.29,14.12l-2.33-2.57l1.71-2.96l-4.05-4.46l-3.11,1.42l-2.33-2.57l14.85-6.9L1983.95,135.78z
				 M1976.63,141.63l3.36-5.82l-6.11,2.79L1976.63,141.63z"/>
			<path d="M1999.59,156.09l-2.48,1.76l-3.17-4.47c0,0-2.65-3.3-6.34-0.68c-3.7,2.62-1.46,6.21-1.46,6.21l3.17,4.47l-2.48,1.75
				l-3.25-4.58c0,0-3.95-5.96,2.25-10.35c6.2-4.39,10.51,1.31,10.51,1.31L1999.59,156.09z"/>
			<path d="M2010.53,175.22l-2.67,1.44l-4.33-8.05l-2.88,1.55l4.33,8.05l-2.67,1.44l-4.33-8.05l-2.88,1.55l4.33,8.05l-2.67,1.44
				l-5.76-10.72l1.35-0.72l1.33-0.71l2.88-1.55l2.67-1.44l2.88-1.55l1.44-0.77l1.23-0.66L2010.53,175.22z"/>
			<path d="M2019.53,196.92l-2.84,1.07l-3.23-8.55l-3.06,1.15l3.23,8.55l-2.84,1.07l-3.23-8.55l-5.89,2.23l-1.07-2.84l5.89-2.23
				l2.84-1.07l3.06-1.15l0.99-0.37l1.85-0.7L2019.53,196.92z M2000.6,191.06l1.07,2.84L2000.6,191.06z"/>
			<path d="M2007.39,210.9l15.1-4.04l0.78,2.93l-15.1,4.04L2007.39,210.9z"/>
			<path d="M2010.91,226.52l12.43-2.05l-0.81-4.9l2.99-0.49l0.81,4.9l0.49,2.99l0.81,4.9l-2.99,0.49l-0.81-4.9l-12.43,2.05
				L2010.91,226.52z"/>
		</g>
	</g>
	<g>
		<g>
			<g>
				<path d="M1436.21,778.38c-19.88,0-38.77,0-58.29,0c2.37-6.68,4.42-12.7,6.63-18.67c2.21-5.96,2.28-5.94,8.74-5.94
					c16.94,0,33.88-0.01,50.83,0.02c7.55,0.02,15.1,0.41,22.24,3.09c5.66,2.12,9.84,5.93,6.84,13.45
					c-2.74,6.86-7.9,11.81-13.14,16.66c-15.43,14.25-32.87,25.78-50.76,36.57c-18.39,11.09-37.18,21.52-55.8,32.22
					c-0.94,0.54-1.96,0.96-3.56,1.74c0.42-1.71,0.59-2.85,0.97-3.9c3.21-9,6.5-17.98,9.69-26.99c2.27-6.41,4.51-12.83,6.6-19.29
					c0.79-2.45,1.9-3.54,4.73-3.49c11.33,0.19,22.67-0.23,33.98,0.15c11.98,0.4,19.94-5.05,25.11-15.42
					C1432.55,785.49,1434.14,782.43,1436.21,778.38z"/>
				<path d="M1346.88,773.27c-6.23-6.31-9.92-13.04-11.71-21.05c-4.46-19.87,8.74-42.18,26.8-49.6c7.35-3.02,15.13-4.28,22.98-4.32
					c33.58-0.15,67.17-0.07,100.75-0.06c0.98,0,1.97,0.12,3.43,0.22c-5.5,17.37-16.28,30.02-31.17,40.64
					c1.71-3.71,3.14-6.55,4.35-9.49c0.89-2.16,0.38-3.42-2.38-3.41c-25.11,0.07-50.23-0.13-75.33,0.16
					c-11.4,0.13-20.99,4.34-26.01,15.47c-2.09,4.63-3.65,9.49-5.42,14.26C1351.13,761.6,1349.13,767.11,1346.88,773.27z"/>
			</g>
			<g>
				<g>
					<path d="M1284.33,721.25c9.27-0.19,16.45,5.66,16.69,14.86c0.46,17.61,0.13,35.23,0.13,52.83c-5.29,0.97-11.19-1.58-13.92-6.7
						c-1.58-2.96-2.91-6.47-2.97-9.76c-0.29-16.71-0.13-33.43-0.12-50.15C1284.12,722.03,1284.23,721.74,1284.33,721.25z"/>
					<path d="M1322.37,791.48c-7,0.35-12.26-3.17-14.77-8.29c-1.4-2.86-2.15-5.87-2.15-9.08c0.02-21.86,0.01-43.73,0.01-65.59
						c0-0.5,0-1.01,0-1.7c4.14-0.13,7.86,0.84,11.01,3.5c4.11,3.47,5.91,8.18,5.94,13.34c0.13,22.27,0.06,44.54,0.06,66.8
						C1322.46,790.81,1322.4,791.16,1322.37,791.48z"/>
					<path d="M1279.04,766.05c-4.5,0.26-8.14-2.81-8.3-7.69c-0.27-8.64-0.07-17.3-0.07-26.09c3.02-0.09,5.49,0.88,6.96,3.47
						c0.79,1.4,1.41,3.11,1.44,4.7c0.14,8.35,0.07,16.71,0.07,25.07C1279.14,765.64,1279.09,765.79,1279.04,766.05z"/>
				</g>
				<g>
					<path d="M1528.29,788.81c-9,0.68-16.68-5.78-16.89-15.03c-0.39-17.42-0.12-34.86-0.12-52.3c0-0.18,0.16-0.36,0.25-0.54
						c9.14-0.4,16.36,5.78,16.63,15.68C1528.63,753.94,1528.29,771.27,1528.29,788.81z"/>
					<path d="M1507.21,790.24c-6.77,0.36-11.88-3.02-14.34-7.94c-1.34-2.68-2.14-5.51-2.14-8.53c-0.01-21.73,0-43.46,0-65.19
						c0-0.2,0.03-0.39,0.06-0.77c4.09-0.12,7.79,0.88,10.88,3.61c3.88,3.42,5.54,7.98,5.57,12.95c0.12,21.73,0.05,43.46,0.05,65.19
						C1507.29,789.76,1507.25,789.95,1507.21,790.24z"/>
					<path d="M1531.78,732.6c4.77,0.04,8.07,3.05,8.16,7.84c0.16,8.23,0.04,16.47,0.03,24.71c0,0.09-0.07,0.18-0.11,0.26
						c-4.25,0.62-8.08-3-8.12-7.87c-0.07-8.09-0.02-16.18-0.02-24.26C1531.72,733.08,1531.75,732.89,1531.78,732.6z"/>
				</g>
			</g>
		</g>
		<g>
			<path d="M1245.32,800.02l-3.32,0.32l-0.84-8.76c0,0-0.17-2.15-1.99-1.98c-1.82,0.17-1.58,2.32-1.58,2.32l0.42,4.37
				c0,0,0.37,5.03-4.63,5.5c-4.99,0.48-5.58-4.53-5.58-4.53l-0.88-9.23l3.32-0.32l0.84,8.76c0,0,0.17,2.15,1.99,1.98
				c1.82-0.17,1.58-2.32,1.58-2.32l-0.42-4.37c0,0-0.37-5.03,4.63-5.5c4.99-0.48,5.58,4.53,5.58,4.53L1245.32,800.02z"/>
			<path d="M1230.28,813.86l13.44-3.29l1.77-0.43l1.47-0.36l2.09,8.56c0,0,1.09,4.92-3.78,6.11c-4.87,1.19-6.18-3.67-6.18-3.67
				l-1.3-5.32l-6.72,1.64L1230.28,813.86z M1241.03,814.66l1.19,4.86c0,0,0.48,2.1,2.25,1.67s1.23-2.52,1.23-2.52l-1.19-4.86
				L1241.03,814.66z"/>
			<path d="M1255.6,838.3l-14.15,11.13l-1.36-3.56l2.94-2.34l-2.36-6.19l-3.75,0.21l-1.36-3.56l17.96-1.1L1255.6,838.3z
				 M1245.77,841.35l5.77-4.6l-7.37,0.41L1245.77,841.35z"/>
			<path d="M1266.99,861.5l-2.93,1.59l-2.87-5.29c0,0-2.46-3.94-6.83-1.57c-4.37,2.38-2.4,6.58-2.4,6.58l2.87,5.29l-2.93,1.59
				l-2.94-5.42c0,0-3.53-7.01,3.8-11c7.33-3.98,11.29,2.8,11.29,2.8L1266.99,861.5z"/>
			<path d="M1279.47,879.44l-2.68,1.97l-5.94-8.09l-2.89,2.12l5.94,8.09l-2.68,1.97l-5.94-8.09l-2.89,2.12l5.94,8.09l-2.68,1.97
				l-7.92-10.78l1.35-0.99l1.33-0.98l2.89-2.12l2.68-1.97l2.89-2.12l1.44-1.06l1.24-0.91L1279.47,879.44z"/>
			<path d="M1295.24,896.52l-2.38,2.33l-7.03-7.17l-2.56,2.51l7.03,7.17l-2.38,2.33l-7.03-7.17l-4.95,4.85l-2.33-2.38l4.95-4.85
				l2.38-2.33l2.56-2.51l0.83-0.81l1.55-1.52L1295.24,896.52z M1273.61,898.99l2.33,2.38L1273.61,898.99z"/>
			<path d="M1291.53,916.02l10.9-13.28l2.58,2.12l-10.9,13.28L1291.53,916.02z"/>
			<path d="M1306.92,927.56l7.6-11.57l-4.56-2.99l1.83-2.79l4.56,2.99l2.79,1.83l4.56,2.99l-1.83,2.79l-4.56-2.99l-7.6,11.57
				L1306.92,927.56z"/>
			<path d="M1356.65,932.97l-1.16,3.12l-8.25-3.07c0,0-2.01-0.78-2.65,0.93c-0.64,1.71,1.4,2.43,1.4,2.43l4.11,1.53
				c0,0,4.68,1.86,2.93,6.56c-1.75,4.7-6.51,3.05-6.51,3.05l-8.69-3.24l1.16-3.12l8.25,3.07c0,0,2.01,0.78,2.65-0.93
				c0.64-1.71-1.39-2.43-1.39-2.43l-4.11-1.53c0,0-4.68-1.87-2.93-6.56c1.75-4.7,6.51-3.05,6.51-3.05L1356.65,932.97z"/>
			<path d="M1362.54,952.54l2.9-13.54l0.38-1.78l0.32-1.48l8.62,1.85c0,0,4.9,1.17,3.85,6.07s-6,3.96-6,3.96l-5.36-1.15l-1.45,6.77
				L1362.54,952.54z M1367.95,943.21l4.9,1.05c0,0,2.1,0.48,2.49-1.3c0.38-1.78-1.73-2.21-1.73-2.21l-4.9-1.05L1367.95,943.21z"/>
			<path d="M1395.61,940.43l3.83,17.58l-3.8-0.34l-0.82-3.66l-6.6-0.58l-1.45,3.46l-3.8-0.34l6.85-16.64L1395.61,940.43z
				 M1394.05,950.6l-1.62-7.21l-2.86,6.81L1394.05,950.6z"/>
			<path d="M1421.45,940.34l0.14,3.33l-6.02,0.26c0,0-4.62,0.48-4.41,5.45c0.22,4.97,4.86,5.05,4.86,5.05l6.02-0.26l0.14,3.33
				l-6.16,0.27c0,0-7.85,0.1-8.22-8.24c-0.36-8.34,7.47-8.92,7.47-8.92L1421.45,940.34z"/>
			<path d="M1443.04,937.02l0.59,3.28l-9.88,1.78l0.64,3.53l9.88-1.78l0.59,3.28l-9.88,1.78l0.64,3.53l9.88-1.78l0.59,3.28
				l-13.17,2.37l-0.3-1.65l-0.29-1.63l-0.64-3.53l-0.59-3.28l-0.64-3.53l-0.32-1.77l-0.27-1.52L1443.04,937.02z"/>
			<path d="M1465.28,930.36l1.05,3.16l-9.52,3.18l1.14,3.4l9.52-3.18l1.05,3.16l-9.52,3.18l2.19,6.56l-3.16,1.05l-2.19-6.56
				l-1.05-3.16l-1.14-3.4l-0.37-1.1l-0.69-2.06L1465.28,930.36z M1458.03,950.88l3.16-1.05L1458.03,950.88z"/>
			<path d="M1481.24,942.19l-7.19-15.6l3.03-1.4l7.19,15.6L1481.24,942.19z"/>
			<path d="M1498.34,933.37l-7.11-11.89l-4.68,2.8l-1.71-2.86l4.68-2.8l2.86-1.71l4.68-2.8l1.71,2.86l-4.68,2.8l7.1,11.88
				L1498.34,933.37z"/>
			<path d="M1524.9,890.99l2.3,2.41l-6.37,6.07c0,0-1.58,1.47-0.32,2.79c1.26,1.32,2.8-0.19,2.8-0.19l3.18-3.03
				c0,0,3.73-3.39,7.19,0.24c3.46,3.63-0.11,7.19-0.11,7.19l-6.72,6.4l-2.3-2.41l6.37-6.07c0,0,1.58-1.46,0.32-2.79
				c-1.26-1.32-2.8,0.19-2.8,0.19l-3.18,3.03c0,0-3.73,3.4-7.19-0.24c-3.46-3.63,0.11-7.19,0.11-7.19L1524.9,890.99z"/>
			<path d="M1545.08,894.27l-10.89-8.55l-1.43-1.13l-1.19-0.93l5.44-6.93c0,0,3.2-3.89,7.15-0.8c3.94,3.1,0.92,7.13,0.92,7.13
				l-3.39,4.31l5.45,4.27L1545.08,894.27z M1539.07,885.32l3.09-3.94c0,0,1.36-1.68-0.08-2.8c-1.44-1.13-2.74,0.59-2.74,0.59
				l-3.09,3.94L1539.07,885.32z"/>
			<path d="M1548.7,859.29l17.47,4.29l-1.97,3.26l-3.65-0.87l-3.42,5.67l2.47,2.82l-1.97,3.26l-11.93-13.47L1548.7,859.29z
				 M1557.15,865.16l-7.18-1.71l4.86,5.56L1557.15,865.16z"/>
			<path d="M1559.97,836l3.06,1.33l-2.4,5.52c0,0-1.59,4.37,2.98,6.35c4.57,1.98,6.67-2.16,6.67-2.16l2.4-5.52l3.06,1.33l-2.45,5.66
				c0,0-3.35,7.11-11.01,3.78s-4.76-10.62-4.76-10.62L1559.97,836z"/>
			<path d="M1566.38,815.15l3.21,0.9l-2.7,9.67l3.45,0.97l2.7-9.67l3.21,0.9l-2.7,9.67l3.46,0.97l2.7-9.67l3.21,0.9l-3.6,12.88
				l-1.62-0.45l-1.59-0.45l-3.46-0.97l-3.21-0.9l-3.46-0.97l-1.73-0.48l-1.48-0.41L1566.38,815.15z"/>
			<path d="M1570.09,792.2l3.31,0.43l-1.3,9.96l3.56,0.46l1.3-9.96l3.31,0.43l-1.3,9.96l6.86,0.9l-0.43,3.31l-6.87-0.9l-3.31-0.43
				l-3.56-0.46l-1.15-0.15l-2.16-0.28L1570.09,792.2z M1585.39,807.69l0.43-3.31L1585.39,807.69z"/>
			<path d="M1587.71,783.05l-17.18-0.37l0.07-3.33l17.18,0.37L1587.71,783.05z"/>
			<path d="M1587.28,763.84l-13.79,1.16l0.46,5.43l-3.32,0.28l-0.46-5.43l-0.28-3.32l-0.46-5.43l3.32-0.28l0.46,5.43l13.79-1.16
				L1587.28,763.84z"/>
		</g>
		<g>
			<path d="M1225.48,737.75l3.03,0.12l-0.31,8c0,0-0.1,1.96,1.56,2.02c1.66,0.06,1.71-1.9,1.71-1.9l0.15-3.99
				c0,0,0.28-4.58,4.84-4.4c4.56,0.18,4.48,4.76,4.48,4.76l-0.33,8.44l-3.03-0.12l0.31-8c0,0,0.1-1.96-1.56-2.02
				c-1.66-0.06-1.71,1.9-1.71,1.9l-0.16,3.99c0,0-0.28,4.58-4.84,4.4c-4.56-0.18-4.48-4.76-4.48-4.76L1225.48,737.75z"/>
			<path d="M1242.07,729.14l-12.42-2.14l-1.63-0.28l-1.36-0.23l1.36-7.9c0,0,0.88-4.5,5.38-3.73c4.5,0.78,3.82,5.31,3.82,5.31
				l-0.85,4.92l6.21,1.07L1242.07,729.14z M1233.39,724.56l0.77-4.49c0,0,0.36-1.93-1.28-2.21c-1.64-0.28-1.94,1.66-1.94,1.66
				l-0.77,4.49L1233.39,724.56z"/>
			<path d="M1233.02,698.07l16.38-0.31l-0.97,3.33l-3.42,0.09l-1.69,5.79l2.83,1.91l-0.97,3.33l-13.65-9.06L1233.02,698.07z
				 M1241.83,701.26l-6.72,0.17l5.58,3.76L1241.83,701.26z"/>
			<path d="M1242.22,674.08l2.79,1.2l-2.16,5.04c0,0-1.44,3.98,2.73,5.77c4.16,1.79,6.06-1.99,6.06-1.99l2.17-5.04l2.79,1.2
				l-2.22,5.16c0,0-3.03,6.48-10.01,3.48c-6.98-3-4.36-9.66-4.36-9.66L1242.22,674.08z"/>
			<path d="M1252.86,654.81l2.62,1.53l-4.62,7.88l2.82,1.65l4.62-7.88l2.62,1.53l-4.62,7.88l2.82,1.65l4.62-7.88l2.62,1.53
				l-6.16,10.5l-1.32-0.77l-1.3-0.76l-2.82-1.65l-2.62-1.53l-2.82-1.65l-1.41-0.83l-1.21-0.71L1252.86,654.81z"/>
			<path d="M1266.66,635.84l2.4,1.86l-5.61,7.22l2.58,2l5.61-7.22l2.4,1.86l-5.61,7.22l4.98,3.86l-1.86,2.4l-4.98-3.87l-2.4-1.86
				l-2.58-2l-0.83-0.65l-1.56-1.21L1266.66,635.84z M1271.54,655.05l1.86-2.4L1271.54,655.05z"/>
			<path d="M1284.94,638.88l-11.33-10.77l2.09-2.2l11.33,10.77L1284.94,638.88z"/>
			<path d="M1296.42,627.7l-8.25-9.52l-3.75,3.25l-1.99-2.29l3.75-3.25l2.29-1.99l3.75-3.25l1.99,2.29l-3.75,3.25l8.25,9.53
				L1296.42,627.7z"/>
			<path d="M1322.83,590.73l1.48,2.65l-6.99,3.91c0,0-1.73,0.93-0.92,2.38s2.51,0.47,2.51,0.47l3.49-1.95c0,0,4.05-2.15,6.28,1.83
				c2.23,3.98-1.72,6.31-1.72,6.31l-7.37,4.12l-1.48-2.65l6.99-3.91c0,0,1.73-0.93,0.91-2.38c-0.81-1.45-2.51-0.47-2.51-0.47
				l-3.49,1.95c0,0-4.05,2.15-6.28-1.83c-2.23-3.98,1.72-6.31,1.72-6.31L1322.83,590.73z"/>
			<path d="M1338.82,600.39l-4.65-11.71l-0.61-1.54l-0.51-1.28l7.46-2.96c0,0,4.3-1.6,5.99,2.65c1.68,4.24-2.54,6.03-2.54,6.03
				l-4.64,1.84l2.32,5.86L1338.82,600.39z M1338.2,590.6l4.23-1.68c0,0,1.84-0.7,1.22-2.24c-0.61-1.54-2.43-0.79-2.43-0.79
				l-4.23,1.68L1338.2,590.6z"/>
			<path d="M1360.62,576.47l8.81,13.81l-3.35,0.91l-1.85-2.87l-5.82,1.58l-0.15,3.41l-3.35,0.91l0.62-16.37L1360.62,576.47z
				 M1362.49,585.65l-3.65-5.65l-0.3,6.72L1362.49,585.65z"/>
			<path d="M1385.9,571.82l0.43,3.01l-5.43,0.78c0,0-4.14,0.85-3.5,5.33c0.64,4.49,4.86,4.14,4.86,4.14l5.43-0.78l0.43,3.01
				l-5.56,0.79c0,0-7.11,0.79-8.18-6.73c-1.08-7.52,5.97-8.75,5.97-8.75L1385.9,571.82z"/>
			<path d="M1407.91,570.82l0.06,3.03l-9.14,0.18l0.06,3.27l9.14-0.18l0.06,3.03l-9.14,0.18l0.06,3.26l9.14-0.18l0.06,3.03
				l-12.17,0.24l-0.03-1.53l-0.03-1.51l-0.06-3.26l-0.06-3.03l-0.06-3.27l-0.03-1.63l-0.03-1.4L1407.91,570.82z"/>
			<path d="M1431.26,572.65l-0.33,3.02l-9.09-1l-0.36,3.25l9.09,1l-0.33,3.02l-9.09-1l-0.69,6.27l-3.02-0.33l0.69-6.26l0.33-3.02
				l0.36-3.25l0.12-1.05l0.22-1.97L1431.26,572.65z M1417.45,586.87l3.02,0.33L1417.45,586.87z"/>
			<path d="M1438.2,589.82l3.25-15.3l2.97,0.63l-3.25,15.3L1438.2,589.82z"/>
			<path d="M1453.74,593.77l3.81-12.01l-4.73-1.5l0.92-2.89l4.73,1.5l2.89,0.92l4.73,1.5l-0.92,2.89l-4.73-1.5l-3.81,12.01
				L1453.74,593.77z"/>
			<path d="M1510.63,604.73l-1.69,2.52l-6.66-4.46c0,0-1.62-1.11-2.54,0.27c-0.93,1.38,0.72,2.45,0.72,2.45l3.32,2.22
				c0,0,3.75,2.64,1.22,6.43c-2.54,3.79-6.41,1.33-6.41,1.33l-7.02-4.7l1.69-2.52l6.66,4.46c0,0,1.62,1.12,2.54-0.27
				s-0.72-2.45-0.72-2.45l-3.32-2.22c0,0-3.75-2.64-1.22-6.43c2.54-3.79,6.41-1.33,6.41-1.33L1510.63,604.73z"/>
			<path d="M1509.27,623.36l8.32-9.46l1.1-1.25l0.91-1.03l6.03,5.3c0,0,3.38,3.11,0.36,6.53c-3.02,3.43-6.53,0.48-6.53,0.48
				l-3.75-3.3l-4.16,4.73L1509.27,623.36z M1517.71,618.36l3.42,3.01c0,0,1.46,1.32,2.55,0.07c1.1-1.25-0.4-2.52-0.4-2.52
				l-3.42-3.01L1517.71,618.36z"/>
			<path d="M1540.48,631.91l-8.29,14.12l-2.33-2.57l1.71-2.96l-4.05-4.46l-3.11,1.42l-2.33-2.57l14.85-6.9L1540.48,631.91z
				 M1533.17,637.75l3.36-5.82l-6.11,2.79L1533.17,637.75z"/>
			<path d="M1556.12,652.22l-2.48,1.76l-3.17-4.47c0,0-2.65-3.3-6.34-0.68c-3.7,2.62-1.46,6.21-1.46,6.21l3.17,4.47l-2.48,1.75
				l-3.25-4.58c0,0-3.95-5.96,2.25-10.35c6.2-4.39,10.51,1.31,10.51,1.31L1556.12,652.22z"/>
			<path d="M1567.07,671.34l-2.67,1.44l-4.33-8.05l-2.88,1.55l4.33,8.05l-2.67,1.44l-4.33-8.05l-2.88,1.55l4.33,8.05l-2.67,1.44
				l-5.76-10.72l1.35-0.72l1.33-0.71l2.88-1.55l2.67-1.44l2.88-1.55l1.44-0.77l1.23-0.66L1567.07,671.34z"/>
			<path d="M1576.07,693.04l-2.84,1.07l-3.23-8.55l-3.06,1.15l3.23,8.55l-2.84,1.07l-3.23-8.55l-5.89,2.23l-1.07-2.84l5.89-2.23
				l2.84-1.07l3.06-1.15l0.99-0.37l1.85-0.7L1576.07,693.04z M1557.13,687.19l1.07,2.84L1557.13,687.19z"/>
			<path d="M1563.92,707.02l15.1-4.04l0.78,2.93l-15.1,4.04L1563.92,707.02z"/>
			<path d="M1567.44,722.65l12.43-2.05l-0.81-4.9l2.99-0.49l0.81,4.9l0.49,2.99l0.81,4.9l-2.99,0.49l-0.81-4.9l-12.43,2.05
				L1567.44,722.65z"/>
		</g>
	</g>
	<g>
		<g>
			<g>
				<path class="st2" d="M1876.86,779.38c-19.88,0-38.77,0-58.29,0c2.37-6.68,4.42-12.7,6.63-18.67c2.21-5.96,2.28-5.94,8.74-5.94
					c16.94,0,33.88-0.01,50.83,0.02c7.55,0.02,15.1,0.41,22.24,3.09c5.66,2.12,9.84,5.93,6.84,13.45
					c-2.74,6.86-7.9,11.81-13.14,16.66c-15.43,14.25-32.87,25.78-50.76,36.57c-18.39,11.09-37.18,21.52-55.8,32.22
					c-0.94,0.54-1.96,0.96-3.57,1.74c0.42-1.71,0.59-2.85,0.97-3.9c3.21-9,6.5-17.98,9.69-26.99c2.27-6.41,4.51-12.83,6.6-19.29
					c0.79-2.45,1.9-3.54,4.73-3.49c11.33,0.19,22.67-0.23,33.98,0.15c11.98,0.4,19.94-5.05,25.11-15.42
					C1873.19,786.49,1874.79,783.44,1876.86,779.38z"/>
				<path class="st2" d="M1787.53,774.27c-6.23-6.31-9.92-13.04-11.71-21.05c-4.46-19.87,8.74-42.18,26.8-49.6
					c7.35-3.02,15.13-4.28,22.98-4.32c33.58-0.15,67.17-0.07,100.75-0.06c0.98,0,1.97,0.12,3.43,0.22
					c-5.5,17.37-16.28,30.02-31.17,40.64c1.71-3.71,3.14-6.55,4.35-9.49c0.89-2.16,0.38-3.42-2.38-3.41
					c-25.11,0.07-50.23-0.13-75.33,0.16c-11.4,0.13-20.99,4.34-26.01,15.47c-2.09,4.63-3.65,9.49-5.42,14.26
					C1791.78,762.6,1789.78,768.12,1787.53,774.27z"/>
			</g>
			<g>
				<g>
					<path class="st2" d="M1724.98,722.25c9.27-0.19,16.45,5.66,16.69,14.86c0.46,17.61,0.13,35.23,0.13,52.83
						c-5.29,0.97-11.19-1.58-13.92-6.7c-1.58-2.96-2.91-6.47-2.97-9.76c-0.29-16.71-0.13-33.43-0.12-50.15
						C1724.77,723.04,1724.88,722.75,1724.98,722.25z"/>
					<path class="st2" d="M1763.02,792.49c-7,0.35-12.26-3.17-14.77-8.29c-1.4-2.86-2.15-5.87-2.15-9.08
						c0.02-21.86,0.01-43.73,0.01-65.59c0-0.5,0-1.01,0-1.7c4.14-0.13,7.86,0.84,11.01,3.5c4.11,3.47,5.91,8.18,5.94,13.34
						c0.13,22.27,0.06,44.54,0.06,66.8C1763.11,791.82,1763.05,792.16,1763.02,792.49z"/>
					<path class="st2" d="M1719.69,767.05c-4.5,0.26-8.14-2.81-8.3-7.69c-0.27-8.64-0.07-17.3-0.07-26.09
						c3.02-0.09,5.49,0.88,6.96,3.47c0.79,1.4,1.41,3.11,1.44,4.7c0.14,8.35,0.07,16.71,0.07,25.07
						C1719.78,766.65,1719.74,766.79,1719.69,767.05z"/>
				</g>
				<g>
					<path class="st2" d="M1968.94,789.82c-9,0.68-16.68-5.78-16.89-15.03c-0.39-17.42-0.12-34.86-0.12-52.3
						c0-0.18,0.16-0.36,0.25-0.54c9.14-0.4,16.36,5.78,16.63,15.68C1969.28,754.95,1968.94,772.27,1968.94,789.82z"/>
					<path class="st2" d="M1947.86,791.25c-6.77,0.36-11.88-3.02-14.34-7.94c-1.34-2.68-2.14-5.51-2.14-8.53
						c-0.01-21.73,0-43.46,0-65.19c0-0.2,0.03-0.39,0.06-0.77c4.09-0.12,7.79,0.88,10.89,3.61c3.88,3.42,5.54,7.98,5.57,12.95
						c0.12,21.73,0.05,43.46,0.05,65.19C1947.94,790.76,1947.89,790.95,1947.86,791.25z"/>
					<path class="st2" d="M1972.43,733.6c4.77,0.04,8.07,3.05,8.16,7.84c0.16,8.23,0.04,16.47,0.03,24.71
						c0,0.09-0.07,0.18-0.11,0.27c-4.25,0.62-8.08-3-8.12-7.87c-0.07-8.09-0.02-16.18-0.02-24.26
						C1972.37,734.09,1972.4,733.9,1972.43,733.6z"/>
				</g>
			</g>
		</g>
		<g>
			<path class="st2" d="M1685.97,801.02l-3.32,0.32l-0.84-8.76c0,0-0.17-2.15-1.99-1.98c-1.82,0.17-1.58,2.32-1.58,2.32l0.42,4.37
				c0,0,0.37,5.03-4.63,5.5c-4.99,0.48-5.58-4.53-5.58-4.53l-0.88-9.23l3.32-0.32l0.84,8.76c0,0,0.17,2.15,1.99,1.98
				c1.82-0.17,1.58-2.32,1.58-2.32l-0.42-4.37c0,0-0.37-5.03,4.63-5.5c4.99-0.48,5.58,4.53,5.58,4.53L1685.97,801.02z"/>
			<path class="st2" d="M1670.93,814.87l13.44-3.29l1.77-0.43l1.47-0.36l2.09,8.56c0,0,1.09,4.92-3.78,6.11
				c-4.87,1.19-6.18-3.67-6.18-3.67l-1.3-5.32l-6.72,1.64L1670.93,814.87z M1681.68,815.67l1.19,4.86c0,0,0.48,2.1,2.25,1.67
				s1.23-2.52,1.23-2.52l-1.19-4.86L1681.68,815.67z"/>
			<path class="st2" d="M1696.25,839.31l-14.15,11.13l-1.36-3.56l2.94-2.34l-2.36-6.19l-3.75,0.21l-1.36-3.56l17.96-1.1
				L1696.25,839.31z M1686.42,842.35l5.77-4.6l-7.37,0.41L1686.42,842.35z"/>
			<path class="st2" d="M1707.64,862.51l-2.93,1.59l-2.87-5.29c0,0-2.46-3.94-6.83-1.57c-4.37,2.38-2.4,6.58-2.4,6.58l2.87,5.29
				l-2.93,1.59l-2.94-5.42c0,0-3.53-7.01,3.8-11c7.33-3.98,11.29,2.8,11.29,2.8L1707.64,862.51z"/>
			<path class="st2" d="M1720.12,880.44l-2.68,1.97l-5.94-8.09l-2.89,2.12l5.94,8.09l-2.68,1.97l-5.94-8.09l-2.89,2.12l5.94,8.09
				l-2.68,1.97l-7.92-10.78l1.35-0.99l1.33-0.98l2.89-2.12l2.68-1.97l2.89-2.12l1.44-1.06l1.24-0.91L1720.12,880.44z"/>
			<path class="st2" d="M1735.89,897.52l-2.38,2.33l-7.03-7.17l-2.56,2.51l7.03,7.17l-2.38,2.33l-7.03-7.17l-4.95,4.85l-2.33-2.38
				l4.95-4.85l2.38-2.33l2.56-2.51l0.83-0.81l1.55-1.52L1735.89,897.52z M1714.25,899.99l2.33,2.38L1714.25,899.99z"/>
			<path class="st2" d="M1732.18,917.02l10.9-13.28l2.58,2.12l-10.9,13.28L1732.18,917.02z"/>
			<path class="st2" d="M1747.57,928.56l7.6-11.57l-4.56-2.99l1.83-2.79l4.56,2.99l2.79,1.83l4.56,2.99l-1.83,2.79l-4.56-2.99
				l-7.6,11.57L1747.57,928.56z"/>
			<path class="st2" d="M1797.3,933.97l-1.16,3.12l-8.25-3.07c0,0-2.01-0.78-2.65,0.93c-0.64,1.71,1.4,2.43,1.4,2.43l4.11,1.53
				c0,0,4.68,1.86,2.93,6.56c-1.75,4.7-6.51,3.05-6.51,3.05l-8.69-3.24l1.16-3.12l8.25,3.07c0,0,2.01,0.78,2.65-0.93
				s-1.39-2.43-1.39-2.43l-4.11-1.53c0,0-4.68-1.87-2.93-6.56c1.75-4.7,6.51-3.05,6.51-3.05L1797.3,933.97z"/>
			<path class="st2" d="M1803.19,953.54l2.9-13.54l0.38-1.78l0.32-1.48l8.62,1.85c0,0,4.9,1.17,3.85,6.07s-6,3.96-6,3.96l-5.36-1.15
				l-1.45,6.77L1803.19,953.54z M1808.6,944.21l4.9,1.05c0,0,2.1,0.48,2.49-1.3c0.38-1.78-1.73-2.21-1.73-2.21l-4.9-1.05
				L1808.6,944.21z"/>
			<path class="st2" d="M1836.26,941.43l3.83,17.58l-3.8-0.34l-0.82-3.66l-6.6-0.58l-1.45,3.46l-3.8-0.34l6.85-16.64L1836.26,941.43
				z M1834.7,951.6l-1.62-7.21l-2.86,6.81L1834.7,951.6z"/>
			<path class="st2" d="M1862.1,941.34l0.14,3.33l-6.02,0.26c0,0-4.62,0.48-4.41,5.45c0.22,4.97,4.86,5.05,4.86,5.05l6.02-0.26
				l0.14,3.33l-6.16,0.27c0,0-7.85,0.1-8.22-8.24c-0.36-8.34,7.47-8.92,7.47-8.92L1862.1,941.34z"/>
			<path class="st2" d="M1883.68,938.03l0.59,3.28l-9.88,1.78l0.64,3.53l9.88-1.78l0.59,3.28l-9.88,1.78l0.64,3.53l9.88-1.78
				l0.59,3.28l-13.17,2.37l-0.3-1.65l-0.29-1.63l-0.64-3.53l-0.59-3.28l-0.64-3.53l-0.32-1.77l-0.27-1.52L1883.68,938.03z"/>
			<path class="st2" d="M1905.93,931.36l1.05,3.16l-9.52,3.18l1.14,3.4l9.52-3.18l1.05,3.16l-9.52,3.18l2.19,6.56l-3.16,1.05
				l-2.19-6.56l-1.05-3.16l-1.14-3.4l-0.37-1.1l-0.69-2.06L1905.93,931.36z M1898.68,951.88l3.16-1.05L1898.68,951.88z"/>
			<path class="st2" d="M1921.89,943.19l-7.19-15.6l3.03-1.4l7.19,15.6L1921.89,943.19z"/>
			<path class="st2" d="M1938.99,934.37l-7.11-11.89l-4.68,2.8l-1.71-2.86l4.68-2.8l2.86-1.71l4.68-2.8l1.71,2.86l-4.68,2.8
				l7.1,11.88L1938.99,934.37z"/>
			<path class="st2" d="M1965.55,892l2.3,2.41l-6.37,6.07c0,0-1.58,1.47-0.32,2.79c1.26,1.32,2.8-0.19,2.8-0.19l3.18-3.03
				c0,0,3.73-3.39,7.19,0.24c3.46,3.63-0.11,7.19-0.11,7.19l-6.72,6.4l-2.3-2.41l6.37-6.07c0,0,1.58-1.46,0.32-2.79
				c-1.26-1.32-2.8,0.19-2.8,0.19l-3.18,3.03c0,0-3.73,3.4-7.19-0.24c-3.46-3.63,0.11-7.19,0.11-7.19L1965.55,892z"/>
			<path class="st2" d="M1985.72,895.28l-10.89-8.55l-1.43-1.13l-1.19-0.93l5.44-6.93c0,0,3.2-3.89,7.15-0.8
				c3.94,3.1,0.92,7.13,0.92,7.13l-3.39,4.31l5.45,4.27L1985.72,895.28z M1979.71,886.32l3.09-3.94c0,0,1.36-1.68-0.08-2.8
				c-1.44-1.13-2.74,0.59-2.74,0.59l-3.09,3.94L1979.71,886.32z"/>
			<path class="st2" d="M1989.35,860.3l17.47,4.29l-1.97,3.26l-3.65-0.87l-3.42,5.67l2.47,2.82l-1.97,3.26l-11.93-13.47
				L1989.35,860.3z M1997.8,866.17l-7.18-1.71l4.86,5.56L1997.8,866.17z"/>
			<path class="st2" d="M2000.61,837l3.06,1.33l-2.4,5.52c0,0-1.59,4.37,2.98,6.35c4.57,1.98,6.67-2.16,6.67-2.16l2.4-5.52
				l3.06,1.33l-2.45,5.66c0,0-3.35,7.11-11.01,3.78s-4.76-10.62-4.76-10.62L2000.61,837z"/>
			<path class="st2" d="M2007.03,816.16l3.21,0.9l-2.7,9.67l3.45,0.97l2.7-9.67l3.21,0.9l-2.7,9.67l3.46,0.97l2.7-9.67l3.21,0.9
				l-3.6,12.88l-1.62-0.45l-1.59-0.45l-3.46-0.97l-3.21-0.9l-3.46-0.97l-1.73-0.48l-1.48-0.41L2007.03,816.16z"/>
			<path class="st2" d="M2010.74,793.2l3.31,0.43l-1.3,9.96l3.56,0.46l1.3-9.96l3.31,0.43l-1.3,9.96l6.86,0.9l-0.43,3.31l-6.87-0.9
				l-3.31-0.43l-3.56-0.46l-1.15-0.15l-2.16-0.28L2010.74,793.2z M2026.04,808.69l0.43-3.31L2026.04,808.69z"/>
			<path class="st2" d="M2028.36,784.05l-17.18-0.37l0.07-3.33l17.18,0.37L2028.36,784.05z"/>
			<path class="st2" d="M2027.93,764.84l-13.79,1.16l0.46,5.43l-3.32,0.28l-0.46-5.43l-0.28-3.32l-0.46-5.43l3.32-0.28l0.46,5.43
				l13.79-1.16L2027.93,764.84z"/>
		</g>
		<g>
			<path class="st2" d="M1666.13,738.75l3.03,0.12l-0.31,8c0,0-0.1,1.96,1.56,2.02c1.66,0.06,1.71-1.9,1.71-1.9l0.16-3.99
				c0,0,0.28-4.58,4.84-4.4c4.56,0.18,4.48,4.76,4.48,4.76l-0.33,8.44l-3.03-0.12l0.31-8c0,0,0.1-1.96-1.56-2.02
				c-1.66-0.06-1.71,1.9-1.71,1.9l-0.15,3.99c0,0-0.28,4.58-4.84,4.4c-4.56-0.18-4.48-4.76-4.48-4.76L1666.13,738.75z"/>
			<path class="st2" d="M1682.72,730.14l-12.42-2.14l-1.63-0.28l-1.36-0.23l1.36-7.9c0,0,0.88-4.5,5.38-3.73
				c4.5,0.78,3.82,5.31,3.82,5.31l-0.85,4.92l6.21,1.07L1682.72,730.14z M1674.04,725.56l0.77-4.49c0,0,0.36-1.93-1.28-2.21
				c-1.64-0.28-1.94,1.66-1.94,1.66l-0.77,4.49L1674.04,725.56z"/>
			<path class="st2" d="M1673.67,699.07l16.38-0.31l-0.97,3.33l-3.42,0.09l-1.69,5.79l2.83,1.91l-0.97,3.33l-13.65-9.06
				L1673.67,699.07z M1682.48,702.26l-6.72,0.17l5.58,3.76L1682.48,702.26z"/>
			<path class="st2" d="M1682.87,675.09l2.79,1.2l-2.16,5.04c0,0-1.44,3.98,2.73,5.77c4.16,1.79,6.06-1.99,6.06-1.99l2.17-5.04
				l2.79,1.2l-2.22,5.16c0,0-3.03,6.48-10.01,3.48c-6.98-3-4.36-9.66-4.36-9.66L1682.87,675.09z"/>
			<path class="st2" d="M1693.51,655.81l2.62,1.53l-4.62,7.88l2.82,1.65l4.62-7.88l2.62,1.53l-4.62,7.88l2.82,1.65l4.62-7.88
				l2.62,1.53l-6.16,10.5l-1.32-0.77l-1.3-0.76l-2.82-1.65l-2.62-1.53l-2.82-1.65l-1.41-0.83l-1.21-0.71L1693.51,655.81z"/>
			<path class="st2" d="M1707.31,636.84l2.4,1.86l-5.61,7.22l2.58,2l5.61-7.22l2.4,1.86l-5.61,7.22l4.98,3.86l-1.86,2.4l-4.98-3.87
				l-2.4-1.86l-2.58-2l-0.83-0.65l-1.56-1.21L1707.31,636.84z M1712.18,656.05l1.86-2.4L1712.18,656.05z"/>
			<path class="st2" d="M1725.58,639.89l-11.33-10.77l2.09-2.2l11.33,10.77L1725.58,639.89z"/>
			<path class="st2" d="M1737.07,628.71l-8.25-9.52l-3.75,3.25l-1.99-2.29l3.75-3.25l2.29-1.99l3.75-3.25l1.99,2.29l-3.75,3.25
				l8.25,9.53L1737.07,628.71z"/>
			<path class="st2" d="M1763.48,591.74l1.48,2.65l-6.99,3.91c0,0-1.73,0.93-0.92,2.38c0.81,1.45,2.51,0.47,2.51,0.47l3.49-1.95
				c0,0,4.05-2.15,6.28,1.83c2.23,3.98-1.72,6.31-1.72,6.31l-7.37,4.12l-1.48-2.65l6.99-3.91c0,0,1.73-0.93,0.91-2.38
				s-2.51-0.47-2.51-0.47l-3.49,1.95c0,0-4.05,2.15-6.28-1.83c-2.23-3.98,1.72-6.31,1.72-6.31L1763.48,591.74z"/>
			<path class="st2" d="M1779.47,601.39l-4.65-11.71l-0.61-1.54l-0.51-1.28l7.46-2.96c0,0,4.3-1.6,5.98,2.65
				c1.68,4.24-2.54,6.03-2.54,6.03l-4.64,1.84l2.32,5.86L1779.47,601.39z M1778.85,591.6l4.23-1.68c0,0,1.84-0.7,1.22-2.24
				c-0.61-1.54-2.43-0.79-2.43-0.79l-4.23,1.68L1778.85,591.6z"/>
			<path class="st2" d="M1801.27,577.47l8.81,13.81l-3.35,0.91l-1.85-2.87l-5.82,1.58l-0.15,3.41l-3.35,0.91l0.62-16.37
				L1801.27,577.47z M1803.14,586.65l-3.65-5.65l-0.3,6.72L1803.14,586.65z"/>
			<path class="st2" d="M1826.54,572.83l0.43,3.01l-5.43,0.78c0,0-4.14,0.85-3.5,5.33c0.64,4.49,4.86,4.14,4.86,4.14l5.43-0.78
				l0.43,3.01l-5.56,0.79c0,0-7.11,0.79-8.18-6.73c-1.08-7.52,5.97-8.75,5.97-8.75L1826.54,572.83z"/>
			<path class="st2" d="M1848.56,571.82l0.06,3.03l-9.14,0.18l0.06,3.27l9.14-0.18l0.06,3.03l-9.14,0.18l0.06,3.26l9.14-0.18
				l0.06,3.03l-12.17,0.24l-0.03-1.53l-0.03-1.51l-0.06-3.26l-0.06-3.03l-0.06-3.27l-0.03-1.63l-0.03-1.4L1848.56,571.82z"/>
			<path class="st2" d="M1871.91,573.65l-0.33,3.02l-9.09-1l-0.36,3.25l9.09,1l-0.33,3.02l-9.09-1l-0.69,6.27l-3.02-0.33l0.69-6.26
				l0.33-3.02l0.36-3.25l0.12-1.05l0.22-1.97L1871.91,573.65z M1858.1,587.87l3.02,0.33L1858.1,587.87z"/>
			<path class="st2" d="M1878.85,590.82l3.25-15.3l2.97,0.63l-3.25,15.3L1878.85,590.82z"/>
			<path class="st2" d="M1894.39,594.78l3.81-12.01l-4.73-1.5l0.92-2.89l4.73,1.5l2.89,0.92l4.73,1.5l-0.92,2.89l-4.73-1.5
				l-3.81,12.01L1894.39,594.78z"/>
			<path class="st2" d="M1951.27,605.73l-1.69,2.52l-6.66-4.46c0,0-1.61-1.11-2.54,0.27c-0.93,1.38,0.72,2.45,0.72,2.45l3.32,2.22
				c0,0,3.75,2.64,1.22,6.43c-2.54,3.79-6.41,1.33-6.41,1.33l-7.02-4.7l1.69-2.52l6.66,4.46c0,0,1.62,1.12,2.54-0.27
				c0.92-1.38-0.72-2.45-0.72-2.45l-3.32-2.22c0,0-3.75-2.64-1.22-6.43c2.54-3.79,6.41-1.33,6.41-1.33L1951.27,605.73z"/>
			<path class="st2" d="M1949.92,624.37l8.32-9.46l1.1-1.25l0.91-1.03l6.03,5.3c0,0,3.38,3.11,0.36,6.53
				c-3.02,3.43-6.53,0.48-6.53,0.48l-3.75-3.3l-4.16,4.73L1949.92,624.37z M1958.36,619.36l3.42,3.01c0,0,1.46,1.32,2.55,0.07
				c1.1-1.25-0.4-2.52-0.4-2.52l-3.42-3.01L1958.36,619.36z"/>
			<path class="st2" d="M1981.13,632.91l-8.29,14.12l-2.33-2.57l1.71-2.96l-4.05-4.46l-3.11,1.42l-2.33-2.57l14.85-6.9
				L1981.13,632.91z M1973.81,638.75l3.36-5.82l-6.11,2.79L1973.81,638.75z"/>
			<path class="st2" d="M1996.77,653.22l-2.48,1.76l-3.17-4.47c0,0-2.65-3.3-6.34-0.68c-3.7,2.62-1.46,6.21-1.46,6.21l3.17,4.47
				l-2.48,1.75l-3.25-4.58c0,0-3.95-5.96,2.25-10.35c6.2-4.39,10.51,1.31,10.51,1.31L1996.77,653.22z"/>
			<path class="st2" d="M2007.72,672.35l-2.67,1.44l-4.33-8.05l-2.88,1.55l4.33,8.05l-2.67,1.44l-4.33-8.05l-2.88,1.55l4.33,8.05
				l-2.67,1.44l-5.76-10.72l1.35-0.72l1.33-0.71l2.88-1.55l2.67-1.44l2.88-1.55l1.44-0.77l1.23-0.66L2007.72,672.35z"/>
			<path class="st2" d="M2016.72,694.05l-2.84,1.07l-3.23-8.55l-3.06,1.15l3.23,8.55l-2.84,1.07l-3.23-8.55l-5.89,2.23l-1.07-2.84
				l5.89-2.23l2.84-1.07l3.06-1.15l0.99-0.37l1.85-0.7L2016.72,694.05z M1997.78,688.19l1.07,2.84L1997.78,688.19z"/>
			<path class="st2" d="M2004.57,708.03l15.1-4.04l0.78,2.93l-15.1,4.04L2004.57,708.03z"/>
			<path class="st2" d="M2008.09,723.65l12.43-2.05l-0.81-4.9l2.99-0.49l0.81,4.9l0.49,2.99l0.81,4.9l-2.99,0.49l-0.81-4.9
				l-12.43,2.05L2008.09,723.65z"/>
		</g>
	</g>
</g>
<g>
	<rect x="2740.77" y="570.3" width="438.86" height="286.11"/>
	<g>
		<g>
			<path class="st0" d="M2525.48,327.04c-25.66,0-50.03,0-75.22,0c3.05-8.62,5.71-16.39,8.56-24.08c2.85-7.69,2.94-7.66,11.27-7.66
				c21.86,0,43.72-0.01,65.58,0.03c9.74,0.02,19.48,0.53,28.7,3.98c7.3,2.73,12.7,7.66,8.83,17.35
				c-3.53,8.85-10.2,15.24-16.96,21.49c-19.9,18.39-42.42,33.26-65.5,47.19c-23.72,14.31-47.97,27.76-72,41.57
				c-1.22,0.7-2.53,1.24-4.6,2.24c0.54-2.21,0.77-3.67,1.25-5.04c4.15-11.61,8.38-23.2,12.5-34.82c2.93-8.27,5.82-16.55,8.52-24.89
				c1.02-3.16,2.45-4.56,6.1-4.5c14.61,0.24,29.25-0.3,43.85,0.19c15.45,0.52,25.73-6.52,32.39-19.9
				C2520.75,336.2,2522.81,332.26,2525.48,327.04z"/>
			<path class="st0" d="M2410.21,320.44c-8.04-8.14-12.79-16.82-15.11-27.16c-5.75-25.64,11.28-54.42,34.58-64
				c9.49-3.9,19.52-5.53,29.65-5.57c43.33-0.19,86.67-0.09,130-0.08c1.27,0,2.54,0.16,4.43,0.28c-7.1,22.41-21.01,38.74-40.22,52.44
				c2.21-4.78,4.05-8.46,5.61-12.25c1.15-2.78,0.5-4.41-3.07-4.4c-32.4,0.09-64.81-0.16-97.2,0.21
				c-14.71,0.17-27.08,5.6-33.56,19.96c-2.69,5.97-4.71,12.24-6.99,18.4C2415.7,305.38,2413.12,312.5,2410.21,320.44z"/>
		</g>
		<g>
			<g>
				<path class="st0" d="M2329.5,253.32c11.97-0.25,21.22,7.3,21.53,19.18c0.59,22.72,0.17,45.46,0.17,68.16
					c-6.83,1.25-14.44-2.04-17.97-8.65c-2.04-3.82-3.76-8.35-3.84-12.6c-0.38-21.56-0.17-43.14-0.16-64.71
					C2329.24,254.33,2329.38,253.96,2329.5,253.32z"/>
				<path class="st0" d="M2378.58,343.94c-9.03,0.45-15.82-4.08-19.05-10.7c-1.8-3.69-2.78-7.57-2.77-11.71
					c0.02-28.21,0.01-56.42,0.01-84.63c0-0.65,0-1.3,0-2.19c5.34-0.17,10.14,1.09,14.2,4.52c5.3,4.48,7.63,10.55,7.67,17.21
					c0.17,28.73,0.08,57.47,0.07,86.2C2378.71,343.08,2378.63,343.52,2378.58,343.94z"/>
				<path class="st0" d="M2322.68,311.12c-5.8,0.33-10.51-3.63-10.7-9.92c-0.34-11.15-0.1-22.32-0.1-33.66
					c3.9-0.12,7.09,1.13,8.98,4.47c1.02,1.81,1.82,4.02,1.86,6.06c0.18,10.78,0.09,21.56,0.09,32.34
					C2322.8,310.6,2322.74,310.79,2322.68,311.12z"/>
			</g>
			<g>
				<path class="st0" d="M2644.29,340.5c-11.62,0.87-21.53-7.45-21.79-19.39c-0.5-22.48-0.16-44.98-0.15-67.48
					c0-0.23,0.21-0.46,0.32-0.69c11.79-0.52,21.1,7.46,21.45,20.24C2644.73,295.51,2644.29,317.86,2644.29,340.5z"/>
				<path class="st0" d="M2617.09,342.34c-8.73,0.47-15.33-3.9-18.51-10.24c-1.73-3.46-2.76-7.11-2.76-11
					c-0.01-28.04-0.01-56.07,0-84.11c0-0.25,0.04-0.5,0.08-1c5.27-0.15,10.05,1.13,14.04,4.66c5,4.41,7.15,10.29,7.19,16.7
					c0.15,28.04,0.07,56.07,0.06,84.11C2617.19,341.71,2617.13,341.96,2617.09,342.34z"/>
				<path class="st0" d="M2648.8,267.96c6.15,0.05,10.41,3.93,10.53,10.12c0.2,10.62,0.05,21.25,0.04,31.88
					c0,0.11-0.09,0.23-0.14,0.34c-5.48,0.8-10.43-3.87-10.48-10.16c-0.09-10.44-0.03-20.87-0.03-31.31
					C2648.71,268.59,2648.76,268.34,2648.8,267.96z"/>
			</g>
		</g>
	</g>
	<g>
		<g>
			<path class="st1" d="M3008.91,329.12c-25.66,0-50.03,0-75.22,0c3.06-8.62,5.71-16.39,8.56-24.08c2.85-7.69,2.94-7.66,11.27-7.66
				c21.86,0,43.72-0.01,65.58,0.03c9.74,0.02,19.48,0.53,28.7,3.98c7.3,2.73,12.7,7.66,8.83,17.35
				c-3.53,8.85-10.2,15.24-16.96,21.49c-19.9,18.39-42.42,33.26-65.5,47.19c-23.73,14.31-47.97,27.76-72,41.57
				c-1.22,0.7-2.53,1.24-4.6,2.24c0.54-2.21,0.77-3.67,1.25-5.04c4.15-11.61,8.38-23.2,12.5-34.82c2.93-8.27,5.82-16.55,8.52-24.89
				c1.02-3.16,2.45-4.56,6.1-4.5c14.61,0.24,29.25-0.3,43.85,0.19c15.45,0.52,25.73-6.52,32.39-19.9
				C3004.18,338.29,3006.24,334.35,3008.91,329.12z"/>
			<path class="st1" d="M2893.64,322.52c-8.04-8.14-12.79-16.82-15.11-27.16c-5.75-25.64,11.28-54.42,34.58-64
				c9.49-3.9,19.52-5.53,29.65-5.57c43.33-0.19,86.67-0.09,130-0.08c1.27,0,2.54,0.16,4.43,0.28c-7.1,22.41-21.01,38.74-40.22,52.44
				c2.21-4.78,4.05-8.46,5.61-12.25c1.15-2.78,0.5-4.41-3.07-4.4c-32.4,0.09-64.81-0.16-97.2,0.21
				c-14.71,0.17-27.08,5.6-33.56,19.96c-2.69,5.97-4.71,12.24-6.99,18.4C2899.13,307.46,2896.55,314.58,2893.64,322.52z"/>
		</g>
		<g>
			<g>
				<path class="st1" d="M2812.93,255.4c11.97-0.25,21.22,7.3,21.53,19.18c0.59,22.72,0.17,45.46,0.17,68.16
					c-6.83,1.25-14.44-2.04-17.97-8.65c-2.04-3.82-3.76-8.35-3.84-12.6c-0.38-21.56-0.17-43.14-0.16-64.71
					C2812.67,256.41,2812.8,256.04,2812.93,255.4z"/>
				<path class="st1" d="M2862.01,346.03c-9.03,0.45-15.82-4.08-19.05-10.7c-1.8-3.69-2.78-7.57-2.77-11.71
					c0.02-28.21,0.01-56.42,0.01-84.63c0-0.65,0-1.3,0-2.19c5.34-0.17,10.14,1.09,14.2,4.52c5.3,4.48,7.63,10.55,7.67,17.21
					c0.17,28.73,0.08,57.47,0.07,86.2C2862.14,345.16,2862.05,345.6,2862.01,346.03z"/>
				<path class="st1" d="M2806.11,313.2c-5.8,0.33-10.51-3.63-10.7-9.92c-0.34-11.15-0.1-22.32-0.1-33.66
					c3.9-0.12,7.09,1.13,8.98,4.47c1.02,1.81,1.82,4.02,1.86,6.06c0.18,10.78,0.09,21.56,0.09,32.34
					C2806.23,312.68,2806.17,312.87,2806.11,313.2z"/>
			</g>
			<g>
				<path class="st1" d="M3127.72,342.58c-11.62,0.87-21.53-7.45-21.79-19.39c-0.5-22.48-0.16-44.98-0.15-67.48
					c0-0.23,0.21-0.46,0.32-0.69c11.79-0.52,21.1,7.46,21.45,20.24C3128.15,297.59,3127.72,319.95,3127.72,342.58z"/>
				<path class="st1" d="M3100.52,344.43c-8.73,0.47-15.33-3.9-18.51-10.24c-1.73-3.46-2.76-7.11-2.76-11
					c-0.01-28.04-0.01-56.07,0-84.11c0-0.25,0.04-0.5,0.08-1c5.27-0.15,10.05,1.13,14.04,4.66c5,4.41,7.15,10.29,7.19,16.7
					c0.15,28.04,0.07,56.07,0.06,84.11C3100.61,343.8,3100.56,344.04,3100.52,344.43z"/>
				<path class="st1" d="M3132.22,270.04c6.15,0.05,10.41,3.93,10.53,10.12c0.2,10.62,0.05,21.25,0.04,31.88
					c0,0.11-0.09,0.23-0.14,0.34c-5.48,0.8-10.43-3.87-10.48-10.16c-0.09-10.44-0.03-20.87-0.03-31.31
					C3132.14,270.67,3132.19,270.43,3132.22,270.04z"/>
			</g>
		</g>
	</g>
	<g>
		<g>
			<path d="M2514.06,701.38c-25.66,0-50.03,0-75.22,0c3.05-8.62,5.71-16.39,8.56-24.08c2.85-7.69,2.94-7.66,11.27-7.66
				c21.86,0,43.72-0.01,65.58,0.03c9.74,0.02,19.48,0.53,28.7,3.98c7.3,2.73,12.7,7.66,8.83,17.35
				c-3.53,8.85-10.2,15.24-16.96,21.49c-19.9,18.39-42.42,33.26-65.5,47.19c-23.72,14.31-47.97,27.76-72,41.57
				c-1.22,0.7-2.53,1.24-4.6,2.24c0.54-2.21,0.77-3.67,1.25-5.04c4.15-11.61,8.38-23.2,12.5-34.82c2.93-8.27,5.82-16.55,8.52-24.89
				c1.02-3.16,2.45-4.56,6.1-4.5c14.61,0.24,29.25-0.3,43.85,0.19c15.45,0.52,25.73-6.52,32.39-19.9
				C2509.33,710.55,2511.39,706.61,2514.06,701.38z"/>
			<path d="M2398.79,694.78c-8.04-8.14-12.79-16.82-15.11-27.16c-5.75-25.64,11.28-54.42,34.58-64c9.49-3.9,19.52-5.53,29.65-5.57
				c43.33-0.19,86.67-0.09,130-0.08c1.27,0,2.54,0.16,4.43,0.28c-7.1,22.41-21.01,38.74-40.22,52.44c2.21-4.78,4.05-8.46,5.61-12.25
				c1.15-2.78,0.5-4.41-3.07-4.4c-32.4,0.09-64.81-0.16-97.2,0.21c-14.71,0.17-27.08,5.6-33.56,19.96
				c-2.69,5.97-4.71,12.24-6.99,18.4C2404.28,679.72,2401.7,686.84,2398.79,694.78z"/>
		</g>
		<g>
			<g>
				<path d="M2318.08,627.66c11.97-0.25,21.22,7.3,21.53,19.18c0.59,22.72,0.17,45.46,0.17,68.16c-6.83,1.25-14.44-2.04-17.97-8.65
					c-2.04-3.82-3.76-8.35-3.84-12.6c-0.38-21.56-0.17-43.14-0.16-64.71C2317.82,628.67,2317.96,628.3,2318.08,627.66z"/>
				<path d="M2367.17,718.29c-9.03,0.45-15.82-4.08-19.05-10.7c-1.8-3.69-2.78-7.57-2.77-11.71c0.02-28.21,0.01-56.42,0.01-84.63
					c0-0.65,0-1.3,0-2.19c5.34-0.17,10.14,1.09,14.2,4.52c5.3,4.48,7.63,10.55,7.67,17.21c0.17,28.73,0.08,57.47,0.07,86.2
					C2367.29,717.42,2367.21,717.86,2367.17,718.29z"/>
				<path d="M2311.26,685.47c-5.8,0.33-10.51-3.63-10.7-9.92c-0.34-11.15-0.1-22.32-0.1-33.66c3.9-0.12,7.09,1.13,8.98,4.47
					c1.02,1.81,1.82,4.02,1.86,6.06c0.18,10.78,0.09,21.56,0.09,32.34C2311.38,684.95,2311.32,685.13,2311.26,685.47z"/>
			</g>
			<g>
				<path d="M2632.87,714.84c-11.62,0.87-21.53-7.45-21.79-19.39c-0.5-22.48-0.16-44.98-0.15-67.48c0-0.23,0.21-0.46,0.32-0.69
					c11.79-0.52,21.1,7.46,21.45,20.24C2633.31,669.85,2632.87,692.21,2632.87,714.84z"/>
				<path d="M2605.67,716.69c-8.73,0.47-15.33-3.9-18.51-10.24c-1.73-3.46-2.76-7.11-2.76-11c-0.01-28.04-0.01-56.07,0-84.11
					c0-0.25,0.04-0.5,0.08-1c5.27-0.15,10.05,1.13,14.04,4.66c5,4.41,7.15,10.29,7.19,16.7c0.15,28.04,0.07,56.07,0.06,84.11
					C2605.77,716.06,2605.72,716.31,2605.67,716.69z"/>
				<path d="M2637.38,642.31c6.15,0.05,10.41,3.93,10.53,10.12c0.2,10.62,0.05,21.25,0.04,31.88c0,0.11-0.09,0.23-0.14,0.34
					c-5.48,0.8-10.43-3.87-10.48-10.16c-0.09-10.44-0.03-20.87-0.03-31.31C2637.29,642.94,2637.34,642.69,2637.38,642.31z"/>
			</g>
		</g>
	</g>
	<g>
		<g>
			<path class="st2" d="M2993.93,711.73c-25.66,0-50.03,0-75.22,0c3.06-8.62,5.71-16.39,8.56-24.08c2.85-7.69,2.94-7.66,11.27-7.66
				c21.86,0,43.72-0.01,65.58,0.03c9.74,0.02,19.48,0.53,28.7,3.98c7.3,2.73,12.7,7.66,8.83,17.35
				c-3.53,8.85-10.2,15.24-16.96,21.49c-19.9,18.39-42.42,33.26-65.5,47.19c-23.72,14.31-47.97,27.76-72,41.57
				c-1.22,0.7-2.53,1.24-4.6,2.24c0.54-2.21,0.77-3.67,1.25-5.04c4.15-11.61,8.38-23.2,12.5-34.82c2.93-8.27,5.82-16.55,8.52-24.89
				c1.02-3.16,2.45-4.56,6.1-4.5c14.61,0.24,29.25-0.3,43.85,0.19c15.45,0.52,25.73-6.52,32.4-19.9
				C2989.19,720.89,2991.25,716.95,2993.93,711.73z"/>
			<path class="st2" d="M2878.66,705.13c-8.04-8.14-12.79-16.82-15.11-27.16c-5.75-25.64,11.28-54.42,34.58-64
				c9.49-3.9,19.52-5.53,29.65-5.57c43.33-0.19,86.67-0.09,130-0.08c1.27,0,2.54,0.16,4.43,0.28c-7.1,22.41-21.01,38.74-40.22,52.44
				c2.21-4.78,4.05-8.46,5.61-12.25c1.15-2.78,0.5-4.41-3.07-4.4c-32.4,0.09-64.81-0.16-97.2,0.21
				c-14.71,0.17-27.08,5.6-33.56,19.96c-2.69,5.97-4.71,12.24-6.99,18.4C2884.14,690.07,2881.56,697.19,2878.66,705.13z"/>
		</g>
		<g>
			<g>
				<path class="st2" d="M2797.94,638.01c11.97-0.25,21.22,7.3,21.53,19.18c0.59,22.72,0.17,45.46,0.17,68.16
					c-6.83,1.25-14.44-2.04-17.97-8.65c-2.04-3.82-3.76-8.35-3.84-12.6c-0.38-21.56-0.17-43.14-0.16-64.71
					C2797.68,639.02,2797.82,638.64,2797.94,638.01z"/>
				<path class="st2" d="M2847.03,728.63c-9.03,0.45-15.82-4.08-19.05-10.7c-1.8-3.69-2.78-7.57-2.77-11.71
					c0.02-28.21,0.01-56.42,0.01-84.63c0-0.65,0-1.3,0-2.19c5.34-0.17,10.14,1.09,14.2,4.52c5.3,4.48,7.63,10.55,7.67,17.21
					c0.17,28.73,0.08,57.47,0.07,86.2C2847.15,727.77,2847.07,728.21,2847.03,728.63z"/>
				<path class="st2" d="M2791.13,695.81c-5.8,0.33-10.51-3.63-10.7-9.92c-0.34-11.15-0.1-22.32-0.1-33.66
					c3.9-0.12,7.09,1.13,8.98,4.47c1.02,1.81,1.82,4.02,1.86,6.06c0.18,10.78,0.09,21.56,0.09,32.34
					C2791.25,695.29,2791.19,695.48,2791.13,695.81z"/>
			</g>
			<g>
				<path class="st2" d="M3112.73,725.19c-11.62,0.87-21.53-7.45-21.79-19.39c-0.5-22.48-0.16-44.98-0.15-67.48
					c0-0.23,0.21-0.46,0.32-0.69c11.79-0.52,21.1,7.46,21.45,20.24C3113.17,680.19,3112.73,702.55,3112.73,725.19z"/>
				<path class="st2" d="M3085.53,727.03c-8.73,0.47-15.33-3.9-18.51-10.24c-1.73-3.46-2.76-7.11-2.76-11
					c-0.01-28.04-0.01-56.07,0-84.11c0-0.25,0.04-0.5,0.08-1c5.27-0.15,10.05,1.13,14.04,4.66c5,4.41,7.15,10.29,7.19,16.7
					c0.15,28.04,0.07,56.07,0.06,84.11C3085.63,726.4,3085.58,726.65,3085.53,727.03z"/>
				<path class="st2" d="M3117.24,652.65c6.15,0.05,10.41,3.93,10.53,10.12c0.2,10.62,0.05,21.25,0.04,31.88
					c0,0.11-0.09,0.23-0.14,0.34c-5.48,0.8-10.43-3.87-10.48-10.16c-0.09-10.44-0.03-20.87-0.03-31.31
					C3117.15,653.28,3117.2,653.03,3117.24,652.65z"/>
			</g>
		</g>
	</g>
</g>
</svg>
