<svg width="19" height="19" viewBox="0 0 19 19" fill="none" xmlns="http://www.w3.org/2000/svg">
<path d="M4.9043 9.61989C4.9043 9.8188 4.98331 10.0096 5.12397 10.1502C5.26462 10.2909 5.45538 10.3699 5.6543 10.3699H10.6543V15.8899C10.6543 16.6855 10.3382 17.4486 9.77562 18.0112C9.21301 18.5738 8.44995 18.8899 7.6543 18.8899H3.6543C2.85865 18.8899 2.09559 18.5738 1.53298 18.0112C0.970367 17.4486 0.654297 16.6855 0.654297 15.8899V3.88989C0.654297 3.09424 0.970367 2.33118 1.53298 1.76857C2.09559 1.20596 2.85865 0.889893 3.6543 0.889893H7.6543C8.44995 0.889893 9.21301 1.20596 9.77562 1.76857C10.3382 2.33118 10.6543 3.09424 10.6543 3.88989V8.88989H5.6543C5.4588 8.88982 5.27101 8.96609 5.13091 9.10244C4.99082 9.2388 4.90951 9.42447 4.9043 9.61989Z" fill="white"/>
<path d="M18.3443 9.88989C18.3063 9.97914 18.2521 10.0605 18.1843 10.1299L14.5843 13.7299C14.4437 13.8703 14.253 13.9492 14.0543 13.9492C13.8555 13.9492 13.6649 13.8703 13.5243 13.7299C13.3838 13.5893 13.305 13.3986 13.305 13.1999C13.305 13.0011 13.3838 12.8105 13.5243 12.6699L15.8443 10.3499H10.6543V8.88989H15.8443L13.5243 6.54989C13.4506 6.48123 13.3915 6.39843 13.3505 6.30643C13.3095 6.21443 13.2875 6.11512 13.2857 6.01441C13.2839 5.91371 13.3025 5.81368 13.3402 5.72029C13.3779 5.62691 13.434 5.54207 13.5053 5.47085C13.5765 5.39964 13.6613 5.34349 13.7547 5.30577C13.8481 5.26805 13.9481 5.24952 14.0488 5.2513C14.1495 5.25308 14.2488 5.27512 14.3408 5.31611C14.4328 5.3571 14.5156 5.41621 14.5843 5.48989L18.1543 9.08989C18.2221 9.15925 18.2763 9.24064 18.3143 9.32989C18.356 9.41665 18.3801 9.51079 18.3852 9.6069C18.3904 9.703 18.3765 9.79918 18.3443 9.88989Z" fill="white"/>
</svg>
