<svg width="17" height="17" viewBox="0 0 17 17" fill="none" xmlns="http://www.w3.org/2000/svg">
<path d="M8.52002 9.76001C9.21038 9.76001 9.77002 9.20037 9.77002 8.51001C9.77002 7.81965 9.21038 7.26001 8.52002 7.26001C7.82966 7.26001 7.27002 7.81965 7.27002 8.51001C7.27002 9.20037 7.82966 9.76001 8.52002 9.76001Z" fill="white"/>
<path d="M15.52 6.76001H14.77C14.605 6.75846 14.4442 6.70836 14.3075 6.61596C14.1708 6.52356 14.0643 6.39294 14.0014 6.24042C13.9385 6.0879 13.9218 5.92022 13.9536 5.75832C13.9854 5.59641 14.0641 5.44744 14.18 5.33001L14.71 4.80001C14.8037 4.70705 14.8781 4.59645 14.9289 4.47459C14.9797 4.35273 15.0058 4.22202 15.0058 4.09001C15.0058 3.958 14.9797 3.82729 14.9289 3.70543C14.8781 3.58357 14.8037 3.47297 14.71 3.38001L13.65 2.32001C13.5571 2.22628 13.4465 2.15189 13.3246 2.10112C13.2027 2.05035 13.072 2.02421 12.94 2.02421C12.808 2.02421 12.6773 2.05035 12.5554 2.10112C12.4336 2.15189 12.323 2.22628 12.23 2.32001L11.7 2.85001C11.5826 2.96591 11.4336 3.04465 11.2717 3.07642C11.1098 3.10818 10.9421 3.09157 10.7896 3.02864C10.6371 2.96571 10.5065 2.85926 10.4141 2.72257C10.3217 2.58587 10.2716 2.425 10.27 2.26001V1.51001C10.27 1.24479 10.1647 0.99044 9.97713 0.802903C9.78959 0.615367 9.53524 0.51001 9.27002 0.51001H7.77002C7.5048 0.51001 7.25045 0.615367 7.06291 0.802903C6.87538 0.99044 6.77002 1.24479 6.77002 1.51001V2.26001C6.76847 2.425 6.71837 2.58587 6.62597 2.72257C6.53357 2.85926 6.40295 2.96571 6.25043 3.02864C6.09791 3.09157 5.93023 3.10818 5.76833 3.07642C5.60642 3.04465 5.45745 2.96591 5.34002 2.85001L4.81002 2.32001C4.71706 2.22628 4.60646 2.15189 4.4846 2.10112C4.36274 2.05035 4.23203 2.02421 4.10002 2.02421C3.96801 2.02421 3.8373 2.05035 3.71544 2.10112C3.59358 2.15189 3.48298 2.22628 3.39002 2.32001L2.33002 3.38001C2.23629 3.47297 2.1619 3.58357 2.11113 3.70543C2.06036 3.82729 2.03422 3.958 2.03422 4.09001C2.03422 4.22202 2.06036 4.35273 2.11113 4.47459C2.1619 4.59645 2.23629 4.70705 2.33002 4.80001L2.86002 5.33001C2.97592 5.44744 3.05466 5.59641 3.08643 5.75832C3.11819 5.92022 3.10158 6.0879 3.03865 6.24042C2.97572 6.39294 2.86927 6.52356 2.73257 6.61596C2.59588 6.70836 2.43501 6.75846 2.27002 6.76001H1.52002C1.2548 6.76001 1.00045 6.86537 0.812913 7.0529C0.625377 7.24044 0.52002 7.49479 0.52002 7.76001V9.26001C0.52002 9.52523 0.625377 9.77958 0.812913 9.96712C1.00045 10.1547 1.2548 10.26 1.52002 10.26H2.27002C2.43501 10.2616 2.59588 10.3117 2.73257 10.4041C2.86927 10.4965 2.97572 10.6271 3.03865 10.7796C3.10158 10.9321 3.11819 11.0998 3.08643 11.2617C3.05466 11.4236 2.97592 11.5726 2.86002 11.69L2.33002 12.22C2.14377 12.4074 2.03923 12.6608 2.03923 12.925C2.03923 13.1892 2.14377 13.4426 2.33002 13.63L3.39002 14.69C3.48298 14.7837 3.59358 14.8581 3.71544 14.9089C3.8373 14.9597 3.96801 14.9858 4.10002 14.9858C4.23203 14.9858 4.36274 14.9597 4.4846 14.9089C4.60646 14.8581 4.71706 14.7837 4.81002 14.69L5.34002 14.16C5.45806 14.0435 5.60794 13.9646 5.77077 13.9332C5.93361 13.9017 6.1021 13.9192 6.25502 13.9833C6.40794 14.0475 6.53845 14.1555 6.6301 14.2937C6.72175 14.4319 6.77043 14.5942 6.77002 14.76V15.51C6.77002 15.7752 6.87538 16.0296 7.06291 16.2171C7.25045 16.4047 7.5048 16.51 7.77002 16.51H9.27002C9.53524 16.51 9.78959 16.4047 9.97713 16.2171C10.1647 16.0296 10.27 15.7752 10.27 15.51V14.76C10.2696 14.5942 10.3183 14.4319 10.4099 14.2937C10.5016 14.1555 10.6321 14.0475 10.785 13.9833C10.9379 13.9192 11.1064 13.9017 11.2693 13.9332C11.4321 13.9646 11.582 14.0435 11.7 14.16L12.23 14.69C12.323 14.7837 12.4336 14.8581 12.5554 14.9089C12.6773 14.9597 12.808 14.9858 12.94 14.9858C13.072 14.9858 13.2027 14.9597 13.3246 14.9089C13.4465 14.8581 13.5571 14.7837 13.65 14.69L14.71 13.63C14.8963 13.4426 15.0008 13.1892 15.0008 12.925C15.0008 12.6608 14.8963 12.4074 14.71 12.22L14.18 11.69C14.0641 11.5726 13.9854 11.4236 13.9536 11.2617C13.9218 11.0998 13.9385 10.9321 14.0014 10.7796C14.0643 10.6271 14.1708 10.4965 14.3075 10.4041C14.4442 10.3117 14.605 10.2616 14.77 10.26H15.52C15.7852 10.26 16.0396 10.1547 16.2271 9.96712C16.4147 9.77958 16.52 9.52523 16.52 9.26001V7.76001C16.52 7.62869 16.4942 7.49865 16.4439 7.37733C16.3936 7.256 16.32 7.14576 16.2271 7.0529C16.1343 6.96004 16.024 6.88638 15.9027 6.83613C15.7814 6.78588 15.6513 6.76001 15.52 6.76001ZM8.52002 11.26C7.97612 11.26 7.44444 11.0987 6.9922 10.7966C6.53997 10.4944 6.18749 10.0649 5.97935 9.56239C5.77121 9.05989 5.71675 8.50696 5.82286 7.97351C5.92897 7.44006 6.19088 6.95006 6.57548 6.56547C6.96007 6.18087 7.45007 5.91896 7.98352 5.81285C8.51697 5.70674 9.0699 5.7612 9.5724 5.96934C10.0749 6.17748 10.5044 6.52996 10.8066 6.98219C11.1087 7.43443 11.27 7.96611 11.27 8.51001C11.27 9.23936 10.9803 9.93883 10.4646 10.4546C9.94884 10.9703 9.24936 11.26 8.52002 11.26Z" fill="white"/>
</svg>
