<svg width="15" height="19" viewBox="0 0 15 19" fill="none" xmlns="http://www.w3.org/2000/svg">
<path d="M11.8401 1.51C11.7595 1.50723 11.681 1.53597 11.6213 1.59011C11.5615 1.64425 11.5252 1.71954 11.5201 1.8C11.4489 2.40721 11.1568 2.967 10.6994 3.37272C10.2421 3.77843 9.65142 4.00171 9.04006 4H6.04006C5.42526 4.00665 4.82973 3.7856 4.36817 3.37942C3.9066 2.97324 3.61163 2.41066 3.54006 1.8C3.5349 1.71954 3.4986 1.64425 3.43886 1.59011C3.37912 1.53597 3.30063 1.50723 3.22006 1.51C2.47749 1.58462 1.78939 1.93334 1.29014 2.48807C0.790882 3.0428 0.516317 3.7637 0.520057 4.51V15.51C0.520057 16.3056 0.836128 17.0687 1.39874 17.6313C1.96135 18.1939 2.72441 18.51 3.52006 18.51H11.5201C12.3157 18.51 13.0788 18.1939 13.6414 17.6313C14.204 17.0687 14.5201 16.3056 14.5201 15.51V4.51C14.5243 3.76681 14.2525 3.0485 13.7574 2.49425C13.2623 1.94 12.579 1.58926 11.8401 1.51ZM8.14006 14H4.54006C4.34114 14 4.15038 13.921 4.00973 13.7803C3.86908 13.6397 3.79006 13.4489 3.79006 13.25C3.79006 13.0511 3.86908 12.8603 4.00973 12.7197C4.15038 12.579 4.34114 12.5 4.54006 12.5H8.14006C8.33897 12.5 8.52973 12.579 8.67039 12.7197C8.81104 12.8603 8.89006 13.0511 8.89006 13.25C8.89006 13.4489 8.81104 13.6397 8.67039 13.7803C8.52973 13.921 8.33897 14 8.14006 14ZM10.5401 11H4.54006C4.34114 11 4.15038 10.921 4.00973 10.7803C3.86908 10.6397 3.79006 10.4489 3.79006 10.25C3.79006 10.0511 3.86908 9.86032 4.00973 9.71967C4.15038 9.57902 4.34114 9.5 4.54006 9.5H10.5401C10.739 9.5 10.9297 9.57902 11.0704 9.71967C11.211 9.86032 11.2901 10.0511 11.2901 10.25C11.2901 10.4489 11.211 10.6397 11.0704 10.7803C10.9297 10.921 10.739 11 10.5401 11ZM10.5401 8H4.54006C4.34114 8 4.15038 7.92098 4.00973 7.78033C3.86908 7.63968 3.79006 7.44891 3.79006 7.25C3.79006 7.05109 3.86908 6.86032 4.00973 6.71967C4.15038 6.57902 4.34114 6.5 4.54006 6.5H10.5401C10.739 6.5 10.9297 6.57902 11.0704 6.71967C11.211 6.86032 11.2901 7.05109 11.2901 7.25C11.2901 7.44891 11.211 7.63968 11.0704 7.78033C10.9297 7.92098 10.739 8 10.5401 8Z" fill="white"/>
<path d="M6.04006 3H9.04006C9.43788 3 9.81941 2.84196 10.1007 2.56066C10.382 2.27936 10.5401 1.89782 10.5401 1.5C10.5401 1.10218 10.382 0.720644 10.1007 0.43934C9.81941 0.158035 9.43788 5.92805e-09 9.04006 0H6.04006C5.64223 5.92805e-09 5.2607 0.158035 4.9794 0.43934C4.69809 0.720644 4.54006 1.10218 4.54006 1.5C4.54006 1.89782 4.69809 2.27936 4.9794 2.56066C5.2607 2.84196 5.64223 3 6.04006 3Z" fill="white"/>
</svg>
