<svg width="20" height="17" viewBox="0 0 20 17" fill="none" xmlns="http://www.w3.org/2000/svg">
<path d="M7.49017 6.51001C9.14702 6.51001 10.4902 5.16686 10.4902 3.51001C10.4902 1.85316 9.14702 0.51001 7.49017 0.51001C5.83331 0.51001 4.49017 1.85316 4.49017 3.51001C4.49017 5.16686 5.83331 6.51001 7.49017 6.51001Z" fill="white"/>
<path d="M0.300166 16.89C0.25945 16.8887 0.219388 16.8794 0.182269 16.8626C0.145151 16.8458 0.111705 16.8219 0.0838435 16.7922C0.0559818 16.7625 0.0342508 16.7275 0.0198929 16.6894C0.00553504 16.6513 -0.00116818 16.6107 0.000166417 16.57C0.000166458 14.5809 0.790343 12.6732 2.19687 11.2667C3.60339 9.86019 5.51104 9.07001 7.50017 9.07001C9.48929 9.07001 11.3969 9.86019 12.8035 11.2667C14.21 12.6732 15.0002 14.5809 15.0002 16.57C15.0015 16.6107 14.9948 16.6513 14.9804 16.6894C14.9661 16.7275 14.9444 16.7625 14.9165 16.7922C14.8886 16.8219 14.8552 16.8458 14.8181 16.8626C14.7809 16.8794 14.7409 16.8887 14.7002 16.89H0.300166Z" fill="white"/>
<path d="M13.4502 8.36001C14.8033 8.36001 15.9002 7.26311 15.9002 5.91001C15.9002 4.55691 14.8033 3.46001 13.4502 3.46001C12.0971 3.46001 11.0002 4.55691 11.0002 5.91001C11.0002 7.26311 12.0971 8.36001 13.4502 8.36001Z" fill="white"/>
<path d="M19.0402 16.59C19.0402 16.6563 19.0138 16.7199 18.9669 16.7668C18.9201 16.8137 18.8565 16.84 18.7902 16.84H16.6302C16.5945 16.8358 16.5613 16.8197 16.5359 16.7943C16.5105 16.7689 16.4944 16.7357 16.4902 16.7V16.53C16.4892 14.7808 15.9362 13.0766 14.9102 11.66C14.8706 11.6078 14.8492 11.544 14.8492 11.4785C14.8493 11.413 14.8708 11.3492 14.9105 11.2971C14.9501 11.2449 15.0058 11.2072 15.069 11.1897C15.1321 11.1721 15.1993 11.1758 15.2602 11.2C16.3376 11.6459 17.2656 12.3898 17.9351 13.3445C18.6047 14.2992 18.988 15.4251 19.0402 16.59Z" fill="white"/>
</svg>
