<svg width="19" height="15" viewBox="0 0 19 15" fill="none" xmlns="http://www.w3.org/2000/svg">
<path d="M6.46 14.36C7.01228 14.36 7.46 13.9123 7.46 13.36C7.46 12.8077 7.01228 12.36 6.46 12.36C5.90772 12.36 5.46 12.8077 5.46 13.36C5.46 13.9123 5.90772 14.36 6.46 14.36Z" fill="white"/>
<path d="M14.46 14.36C15.0123 14.36 15.46 13.9123 15.46 13.36C15.46 12.8077 15.0123 12.36 14.46 12.36C13.9077 12.36 13.46 12.8077 13.46 13.36C13.46 13.9123 13.9077 14.36 14.46 14.36Z" fill="white"/>
<path d="M17.84 1.75C17.6359 1.51797 17.3853 1.33133 17.1045 1.20214C16.8238 1.07295 16.519 1.00409 16.21 1H4.36C4.15293 0.691673 3.87306 0.439127 3.54516 0.264708C3.21725 0.0902896 2.85141 -0.000626425 2.48 3.24861e-06H0.75C0.651509 3.24568e-06 0.553982 0.0194025 0.462987 0.0570935C0.371993 0.0947846 0.289314 0.150029 0.21967 0.219673C0.150026 0.289317 0.0947813 0.371996 0.0570903 0.462991C0.0193993 0.553985 0 0.651512 0 0.750003C0 0.848495 0.0193993 0.946022 0.0570903 1.03702C0.0947813 1.12801 0.150026 1.21069 0.21967 1.28033C0.289314 1.34998 0.371993 1.40522 0.462987 1.44291C0.553982 1.4806 0.651509 1.5 0.75 1.5H2.48C2.66389 1.50411 2.83987 1.57565 2.97446 1.70102C3.10905 1.8264 3.19288 1.99686 3.21 2.18L3.94 9.48C4.00157 10.0307 4.26419 10.5393 4.67753 10.9084C5.09088 11.2774 5.62587 11.481 6.18 11.48H15.48C16.0341 11.481 16.5691 11.2774 16.9825 10.9084C17.3958 10.5393 17.6584 10.0307 17.72 9.48L18.38 3.48C18.4161 3.16991 18.3867 2.85568 18.2937 2.55767C18.2006 2.25966 18.0461 1.9845 17.84 1.75Z" fill="white"/>
</svg>
