<?xml version="1.0" encoding="utf-8"?>
<!-- Generator: Adobe Illustrator 28.2.0, SVG Export Plug-In . SVG Version: 6.00 Build 0)  -->
<svg version="1.1" id="Capa_1" xmlns="http://www.w3.org/2000/svg" xmlns:xlink="http://www.w3.org/1999/xlink" x="0px" y="0px"
	 viewBox="0 0 1080 1080" style="enable-background:new 0 0 1080 1080;" xml:space="preserve">
<style type="text/css">
	.st0{fill:#A6F506;}
	.st1{fill:#FFFFFF;}
	.st2{fill:#DF0000;}
</style>
<g>
	<g>
		<path class="st0" d="M575.1,477.4c-25.7,0-50,0-75.2,0c3.1-8.6,5.7-16.4,8.6-24.1s2.9-7.7,11.3-7.7c21.9,0,43.7,0,65.6,0
			c9.7,0,19.5,0.5,28.7,4c7.3,2.7,12.7,7.7,8.8,17.4c-3.5,8.9-10.2,15.2-17,21.5c-19.9,18.4-42.4,33.3-65.5,47.2
			c-23.7,14.3-48,27.8-72,41.6c-1.2,0.7-2.5,1.2-4.6,2.2c0.5-2.2,0.8-3.7,1.2-5c4.1-11.6,8.4-23.2,12.5-34.8
			c2.9-8.3,5.8-16.5,8.5-24.9c1-3.2,2.5-4.6,6.1-4.5c14.6,0.2,29.2-0.3,43.9,0.2c15.5,0.5,25.7-6.5,32.4-19.9
			C570.4,486.6,572.4,482.7,575.1,477.4z"/>
		<path class="st0" d="M459.8,470.8c-8-8.1-12.8-16.8-15.1-27.2c-5.8-25.6,11.3-54.4,34.6-64c9.5-3.9,19.5-5.5,29.6-5.6
			c43.3-0.2,86.7-0.1,130-0.1c1.3,0,2.5,0.2,4.4,0.3c-7.1,22.4-21,38.7-40.2,52.4c2.2-4.8,4-8.5,5.6-12.2c1.2-2.8,0.5-4.4-3.1-4.4
			c-32.4,0.1-64.8-0.2-97.2,0.2c-14.7,0.2-27.1,5.6-33.6,20c-2.7,6-4.7,12.2-7,18.4C465.3,455.8,462.7,462.9,459.8,470.8z"/>
	</g>
	<g>
		<g>
			<path class="st0" d="M379.1,403.7c12-0.2,21.2,7.3,21.5,19.2c0.6,22.7,0.2,45.5,0.2,68.2c-6.8,1.2-14.4-2-18-8.6
				c-2-3.8-3.8-8.4-3.8-12.6c-0.4-21.6-0.2-43.1-0.2-64.7C378.9,404.7,379,404.4,379.1,403.7z"/>
			<path class="st0" d="M428.2,494.4c-9,0.5-15.8-4.1-19-10.7c-1.8-3.7-2.8-7.6-2.8-11.7c0-28.2,0-56.4,0-84.6c0-0.6,0-1.3,0-2.2
				c5.3-0.2,10.1,1.1,14.2,4.5c5.3,4.5,7.6,10.6,7.7,17.2c0.2,28.7,0.1,57.5,0.1,86.2C428.3,493.5,428.2,493.9,428.2,494.4z"/>
			<path class="st0" d="M372.3,461.5c-5.8,0.3-10.5-3.6-10.7-9.9c-0.3-11.1-0.1-22.3-0.1-33.7c3.9-0.1,7.1,1.1,9,4.5
				c1,1.8,1.8,4,1.9,6.1c0.2,10.8,0.1,21.6,0.1,32.3C372.4,461,372.4,461.2,372.3,461.5z"/>
		</g>
		<g>
			<path class="st0" d="M693.9,490.9c-11.6,0.9-21.5-7.5-21.8-19.4c-0.5-22.5-0.2-45-0.1-67.5c0-0.2,0.2-0.5,0.3-0.7
				c11.8-0.5,21.1,7.5,21.5,20.2C694.3,445.9,693.9,468.3,693.9,490.9z"/>
			<path class="st0" d="M666.7,492.8c-8.7,0.5-15.3-3.9-18.5-10.2c-1.7-3.5-2.8-7.1-2.8-11c0-28,0-56.1,0-84.1c0-0.2,0-0.5,0.1-1
				c5.3-0.1,10,1.1,14,4.7c5,4.4,7.1,10.3,7.2,16.7c0.2,28,0.1,56.1,0.1,84.1C666.8,492.1,666.8,492.4,666.7,492.8z"/>
			<path class="st0" d="M698.4,418.4c6.2,0,10.4,3.9,10.5,10.1c0.2,10.6,0,21.2,0,31.9c0,0.1-0.1,0.2-0.1,0.3
				c-5.5,0.8-10.4-3.9-10.5-10.2c-0.1-10.4,0-20.9,0-31.3C698.3,419,698.4,418.8,698.4,418.4z"/>
		</g>
	</g>
</g>
<g>
	<path class="st0" d="M377,631.7v7.9h-21c0,0-5.1-0.1-5.1,4.3c0,4.4,5.1,4.3,5.1,4.3h10.5c0,0,12,0.3,12,12.2
		c0,11.9-12,12.2-12,12.2h-22.1v-7.9h21c0,0,5.1,0.1,5.1-4.3c0-4.3-5.1-4.3-5.1-4.3h-10.5c0,0-12-0.3-12-12.2
		c0-11.9,12-12.2,12-12.2H377z"/>
	<path class="st0" d="M420.7,648.2c0,0,5.1,0.1,5.1-4.3c0-4.3-5.1-4.3-5.1-4.3h-19.9v-7.9h21c0,0,12,0.3,12,12.2
		c0,11.9-12,12.2-12,12.2h-13.1v16.5h-7.9l0-24.4H420.7z"/>
	<path class="st0" d="M472,631.7l12.8,40.9h-9.1l-10.6-33.2l-10.6,33.2h-9.1l12.8-40.9H472z"/>
	<path class="st0" d="M533.9,631.7v7.9h-14.3c0,0-11,0.7-11,12.5s11,12.5,11,12.5h14.3v7.9h-14.7c0,0-18.7-0.6-18.7-20.5
		s18.7-20.5,18.7-20.5H533.9z"/>
	<path class="st0" d="M586.1,631.7v7.9h-31.9v-7.9H586.1z M586.1,648.2v7.9h-31.9v-7.9H586.1z M586.1,664.7v7.9h-31.9v-7.9H586.1z"
		/>
	<path class="st0" d="M641.9,631.7v7.9H610v-7.9H641.9z M641.9,648.2v7.9h-23.9v16.5H610v-16.5V650v-1.8H641.9z M610,672.7h7.9H610z
		"/>
	<path class="st0" d="M664.3,672.7v-40.9h7.9v40.9L664.3,672.7L664.3,672.7z"/>
	<path class="st0" d="M705.7,672.7v-33h-13v-7.9h13h7.9h13v7.9h-13v33H705.7z"/>
</g>
<g>
	<path class="st1" d="M609.8,826.8v7.9h-21c0,0-5.1-0.1-5.1,4.3s5.1,4.3,5.1,4.3h10.5c0,0,12,0.3,12,12.2s-12,12.2-12,12.2h-22.1
		v-7.9h21c0,0,5.1,0.1,5.1-4.3s-5.1-4.3-5.1-4.3h-10.5c0,0-12-0.3-12-12.2s12-12.2,12-12.2H609.8z"/>
	<path class="st1" d="M653.5,843.3c0,0,5.1,0.1,5.1-4.3s-5.1-4.3-5.1-4.3h-19.9v-7.9h21c0,0,12,0.3,12,12.2s-12,12.2-12,12.2h-13
		v16.5h-7.9l0-24.4H653.5z"/>
	<path class="st1" d="M704.8,826.8l12.8,40.9h-9.1l-10.6-33.2l-10.6,33.2h-9.1l12.8-40.9H704.8z"/>
	<path class="st1" d="M766.7,826.8v7.9h-14.3c0,0-11,0.7-11,12.5c0,11.9,11,12.5,11,12.5h14.3v7.9H752c0,0-18.7-0.6-18.7-20.5
		s18.7-20.5,18.7-20.5H766.7z"/>
	<path class="st1" d="M818.9,826.8v7.9h-31.9v-7.9H818.9z M818.9,843.3v7.9h-31.9v-7.9H818.9z M818.9,859.8v7.9h-31.9v-7.9H818.9z"
		/>
	<path class="st1" d="M874.6,826.8v7.9h-31.9v-7.9H874.6z M874.6,843.3v7.9h-23.9v16.5h-7.9v-16.5v-6.1v-1.8H874.6z M842.8,867.7
		h7.9H842.8z"/>
	<path class="st1" d="M897.1,867.7v-40.9h7.9v40.9H897.1z"/>
	<path class="st1" d="M938.5,867.7v-33h-13v-7.9h13h7.9h13v7.9h-13v33H938.5z"/>
</g>
<g>
	<rect x="1637.9" y="542.8" width="418.7" height="462.9"/>
	<g>
		<g>
			<g>
				<path class="st0" d="M1434.5,281.9c-19.9,0-38.8,0-58.3,0c2.4-6.7,4.4-12.7,6.6-18.7c2.2-6,2.3-5.9,8.7-5.9
					c16.9,0,33.9,0,50.8,0c7.6,0,15.1,0.4,22.2,3.1c5.7,2.1,9.8,5.9,6.8,13.5c-2.7,6.9-7.9,11.8-13.1,16.7
					c-15.4,14.2-32.9,25.8-50.8,36.6c-18.4,11.1-37.2,21.5-55.8,32.2c-0.9,0.5-2,1-3.6,1.7c0.4-1.7,0.6-2.9,1-3.9
					c3.2-9,6.5-18,9.7-27c2.3-6.4,4.5-12.8,6.6-19.3c0.8-2.5,1.9-3.5,4.7-3.5c11.3,0.2,22.7-0.2,34,0.1c12,0.4,19.9-5,25.1-15.4
					C1430.8,289,1432.4,285.9,1434.5,281.9z"/>
				<path class="st0" d="M1345.1,276.7c-6.2-6.3-9.9-13-11.7-21.1c-4.5-19.9,8.7-42.2,26.8-49.6c7.3-3,15.1-4.3,23-4.3
					c33.6-0.1,67.2-0.1,100.8-0.1c1,0,2,0.1,3.4,0.2c-5.5,17.4-16.3,30-31.2,40.6c1.7-3.7,3.1-6.6,4.3-9.5c0.9-2.2,0.4-3.4-2.4-3.4
					c-25.1,0.1-50.2-0.1-75.3,0.2c-11.4,0.1-21,4.3-26,15.5c-2.1,4.6-3.7,9.5-5.4,14.3C1349.4,265.1,1347.4,270.6,1345.1,276.7z"/>
			</g>
			<g>
				<g>
					<path class="st0" d="M1282.6,224.7c9.3-0.2,16.4,5.7,16.7,14.9c0.5,17.6,0.1,35.2,0.1,52.8c-5.3,1-11.2-1.6-13.9-6.7
						c-1.6-3-2.9-6.5-3-9.8c-0.3-16.7-0.1-33.4-0.1-50.1C1282.4,225.5,1282.5,225.2,1282.6,224.7z"/>
					<path class="st0" d="M1320.6,295c-7,0.4-12.3-3.2-14.8-8.3c-1.4-2.9-2.2-5.9-2.2-9.1c0-21.9,0-43.7,0-65.6c0-0.5,0-1,0-1.7
						c4.1-0.1,7.9,0.8,11,3.5c4.1,3.5,5.9,8.2,5.9,13.3c0.1,22.3,0.1,44.5,0.1,66.8C1320.7,294.3,1320.7,294.6,1320.6,295z"/>
					<path class="st0" d="M1277.3,269.5c-4.5,0.3-8.1-2.8-8.3-7.7c-0.3-8.6-0.1-17.3-0.1-26.1c3-0.1,5.5,0.9,7,3.5
						c0.8,1.4,1.4,3.1,1.4,4.7c0.1,8.4,0.1,16.7,0.1,25.1C1277.4,269.1,1277.3,269.3,1277.3,269.5z"/>
				</g>
				<g>
					<path class="st0" d="M1526.6,292.3c-9,0.7-16.7-5.8-16.9-15c-0.4-17.4-0.1-34.9-0.1-52.3c0-0.2,0.2-0.4,0.2-0.5
						c9.1-0.4,16.4,5.8,16.6,15.7C1526.9,257.4,1526.6,274.8,1526.6,292.3z"/>
					<path class="st0" d="M1505.5,293.7c-6.8,0.4-11.9-3-14.3-7.9c-1.3-2.7-2.1-5.5-2.1-8.5c0-21.7,0-43.5,0-65.2
						c0-0.2,0-0.4,0.1-0.8c4.1-0.1,7.8,0.9,10.9,3.6c3.9,3.4,5.5,8,5.6,12.9c0.1,21.7,0.1,43.5,0.1,65.2
						C1505.5,293.2,1505.5,293.4,1505.5,293.7z"/>
					<path class="st0" d="M1530,236.1c4.8,0,8.1,3.1,8.2,7.8c0.2,8.2,0,16.5,0,24.7c0,0.1-0.1,0.2-0.1,0.3c-4.2,0.6-8.1-3-8.1-7.9
						c-0.1-8.1,0-16.2,0-24.3C1530,236.6,1530,236.4,1530,236.1z"/>
				</g>
			</g>
		</g>
		<g>
			<path d="M1243.6,303.5l-3.3,0.3l-0.8-8.8c0,0-0.2-2.1-2-2c-1.8,0.2-1.6,2.3-1.6,2.3l0.4,4.4c0,0,0.4,5-4.6,5.5
				c-5,0.5-5.6-4.5-5.6-4.5l-0.9-9.2l3.3-0.3l0.8,8.8c0,0,0.2,2.1,2,2c1.8-0.2,1.6-2.3,1.6-2.3l-0.4-4.4c0,0-0.4-5,4.6-5.5
				c5-0.5,5.6,4.5,5.6,4.5L1243.6,303.5z"/>
			<path d="M1228.5,317.3l13.4-3.3l1.8-0.4l1.5-0.4l2.1,8.6c0,0,1.1,4.9-3.8,6.1c-4.9,1.2-6.2-3.7-6.2-3.7l-1.3-5.3l-6.7,1.6
				L1228.5,317.3z M1239.3,318.1l1.2,4.9c0,0,0.5,2.1,2.2,1.7s1.2-2.5,1.2-2.5l-1.2-4.9L1239.3,318.1z"/>
			<path d="M1253.8,341.8l-14.2,11.1l-1.4-3.6l2.9-2.3l-2.4-6.2l-3.8,0.2l-1.4-3.6l18-1.1L1253.8,341.8z M1244,344.8l5.8-4.6
				l-7.4,0.4L1244,344.8z"/>
			<path d="M1265.2,365l-2.9,1.6l-2.9-5.3c0,0-2.5-3.9-6.8-1.6c-4.4,2.4-2.4,6.6-2.4,6.6l2.9,5.3l-2.9,1.6l-2.9-5.4
				c0,0-3.5-7,3.8-11c7.3-4,11.3,2.8,11.3,2.8L1265.2,365z"/>
			<path d="M1277.7,382.9l-2.7,2l-5.9-8.1l-2.9,2.1l5.9,8.1l-2.7,2l-5.9-8.1l-2.9,2.1l5.9,8.1l-2.7,2l-7.9-10.8l1.3-1l1.3-1l2.9-2.1
				l2.7-2l2.9-2.1l1.4-1.1l1.2-0.9L1277.7,382.9z"/>
			<path d="M1293.5,400l-2.4,2.3l-7-7.2l-2.6,2.5l7,7.2l-2.4,2.3l-7-7.2l-4.9,4.9l-2.3-2.4l4.9-4.9l2.4-2.3l2.6-2.5l0.8-0.8l1.6-1.5
				L1293.5,400z M1271.9,402.5l2.3,2.4L1271.9,402.5z"/>
			<path d="M1289.8,419.5l10.9-13.3l2.6,2.1l-10.9,13.3L1289.8,419.5z"/>
			<path d="M1305.2,431l7.6-11.6l-4.6-3l1.8-2.8l4.6,3l2.8,1.8l4.6,3l-1.8,2.8l-4.6-3l-7.6,11.6L1305.2,431z"/>
			<path d="M1354.9,436.4l-1.2,3.1l-8.2-3.1c0,0-2-0.8-2.7,0.9s1.4,2.4,1.4,2.4l4.1,1.5c0,0,4.7,1.9,2.9,6.6s-6.5,3-6.5,3l-8.7-3.2
				l1.2-3.1l8.2,3.1c0,0,2,0.8,2.7-0.9s-1.4-2.4-1.4-2.4l-4.1-1.5c0,0-4.7-1.9-2.9-6.6c1.8-4.7,6.5-3,6.5-3L1354.9,436.4z"/>
			<path d="M1360.8,456l2.9-13.5l0.4-1.8l0.3-1.5l8.6,1.9c0,0,4.9,1.2,3.8,6.1s-6,4-6,4l-5.4-1.1l-1.4,6.8L1360.8,456z
				 M1366.2,446.7l4.9,1c0,0,2.1,0.5,2.5-1.3c0.4-1.8-1.7-2.2-1.7-2.2l-4.9-1L1366.2,446.7z"/>
			<path d="M1393.9,443.9l3.8,17.6l-3.8-0.3l-0.8-3.7l-6.6-0.6l-1.4,3.5l-3.8-0.3l6.8-16.6L1393.9,443.9z M1392.3,454.1l-1.6-7.2
				l-2.9,6.8L1392.3,454.1z"/>
			<path d="M1419.7,443.8l0.1,3.3l-6,0.3c0,0-4.6,0.5-4.4,5.5c0.2,5,4.9,5,4.9,5l6-0.3l0.1,3.3l-6.2,0.3c0,0-7.8,0.1-8.2-8.2
				c-0.4-8.3,7.5-8.9,7.5-8.9L1419.7,443.8z"/>
			<path d="M1441.3,440.5l0.6,3.3l-9.9,1.8l0.6,3.5l9.9-1.8l0.6,3.3l-9.9,1.8l0.6,3.5l9.9-1.8l0.6,3.3l-13.2,2.4l-0.3-1.6l-0.3-1.6
				l-0.6-3.5l-0.6-3.3l-0.6-3.5l-0.3-1.8l-0.3-1.5L1441.3,440.5z"/>
			<path d="M1463.5,433.8l1.1,3.2l-9.5,3.2l1.1,3.4l9.5-3.2l1.1,3.2l-9.5,3.2l2.2,6.6l-3.2,1l-2.2-6.6l-1.1-3.2l-1.1-3.4l-0.4-1.1
				l-0.7-2.1L1463.5,433.8z M1456.3,454.4l3.2-1L1456.3,454.4z"/>
			<path d="M1479.5,445.7l-7.2-15.6l3-1.4l7.2,15.6L1479.5,445.7z"/>
			<path d="M1496.6,436.9l-7.1-11.9l-4.7,2.8l-1.7-2.9l4.7-2.8l2.9-1.7l4.7-2.8l1.7,2.9l-4.7,2.8l7.1,11.9L1496.6,436.9z"/>
			<path d="M1523.2,394.5l2.3,2.4l-6.4,6.1c0,0-1.6,1.5-0.3,2.8s2.8-0.2,2.8-0.2l3.2-3c0,0,3.7-3.4,7.2,0.2s-0.1,7.2-0.1,7.2
				l-6.7,6.4l-2.3-2.4l6.4-6.1c0,0,1.6-1.5,0.3-2.8c-1.3-1.3-2.8,0.2-2.8,0.2l-3.2,3c0,0-3.7,3.4-7.2-0.2c-3.5-3.6,0.1-7.2,0.1-7.2
				L1523.2,394.5z"/>
			<path d="M1543.3,397.8l-10.9-8.5l-1.4-1.1l-1.2-0.9l5.4-6.9c0,0,3.2-3.9,7.2-0.8c3.9,3.1,0.9,7.1,0.9,7.1l-3.4,4.3l5.4,4.3
				L1543.3,397.8z M1537.3,388.8l3.1-3.9c0,0,1.4-1.7-0.1-2.8c-1.4-1.1-2.7,0.6-2.7,0.6l-3.1,3.9L1537.3,388.8z"/>
			<path d="M1546.9,362.8l17.5,4.3l-2,3.3l-3.7-0.9l-3.4,5.7l2.5,2.8l-2,3.3l-11.9-13.5L1546.9,362.8z M1555.4,368.6l-7.2-1.7
				l4.9,5.6L1555.4,368.6z"/>
			<path d="M1558.2,339.5l3.1,1.3l-2.4,5.5c0,0-1.6,4.4,3,6.4s6.7-2.2,6.7-2.2l2.4-5.5l3.1,1.3l-2.4,5.7c0,0-3.3,7.1-11,3.8
				c-7.7-3.3-4.8-10.6-4.8-10.6L1558.2,339.5z"/>
			<path d="M1564.6,318.6l3.2,0.9l-2.7,9.7l3.4,1l2.7-9.7l3.2,0.9l-2.7,9.7l3.5,1l2.7-9.7l3.2,0.9l-3.6,12.9l-1.6-0.5l-1.6-0.5
				l-3.5-1l-3.2-0.9l-3.5-1l-1.7-0.5l-1.5-0.4L1564.6,318.6z"/>
			<path d="M1568.3,295.7l3.3,0.4l-1.3,10l3.6,0.5l1.3-10l3.3,0.4l-1.3,10l6.9,0.9l-0.4,3.3l-6.9-0.9l-3.3-0.4l-3.6-0.5l-1.2-0.1
				l-2.2-0.3L1568.3,295.7z M1583.7,311.2l0.4-3.3L1583.7,311.2z"/>
			<path d="M1586,286.5l-17.2-0.4l0.1-3.3l17.2,0.4L1586,286.5z"/>
			<path d="M1585.5,267.3l-13.8,1.2l0.5,5.4l-3.3,0.3l-0.5-5.4l-0.3-3.3l-0.5-5.4l3.3-0.3l0.5,5.4l13.8-1.2L1585.5,267.3z"/>
		</g>
		<g>
			<path d="M1223.7,241.2l3,0.1l-0.3,8c0,0-0.1,2,1.6,2s1.7-1.9,1.7-1.9l0.2-4c0,0,0.3-4.6,4.8-4.4c4.6,0.2,4.5,4.8,4.5,4.8
				l-0.3,8.4l-3-0.1l0.3-8c0,0,0.1-2-1.6-2s-1.7,1.9-1.7,1.9l-0.2,4c0,0-0.3,4.6-4.8,4.4c-4.6-0.2-4.5-4.8-4.5-4.8L1223.7,241.2z"/>
			<path d="M1240.3,232.6l-12.4-2.1l-1.6-0.3l-1.4-0.2l1.4-7.9c0,0,0.9-4.5,5.4-3.7c4.5,0.8,3.8,5.3,3.8,5.3l-0.8,4.9l6.2,1.1
				L1240.3,232.6z M1231.7,228l0.8-4.5c0,0,0.4-1.9-1.3-2.2c-1.6-0.3-1.9,1.7-1.9,1.7l-0.8,4.5L1231.7,228z"/>
			<path d="M1231.3,201.6l16.4-0.3l-1,3.3l-3.4,0.1l-1.7,5.8l2.8,1.9l-1,3.3l-13.7-9.1L1231.3,201.6z M1240.1,204.7l-6.7,0.2
				l5.6,3.8L1240.1,204.7z"/>
			<path d="M1240.5,177.6l2.8,1.2l-2.2,5c0,0-1.4,4,2.7,5.8c4.2,1.8,6.1-2,6.1-2l2.2-5l2.8,1.2l-2.2,5.2c0,0-3,6.5-10,3.5
				s-4.4-9.7-4.4-9.7L1240.5,177.6z"/>
			<path d="M1251.1,158.3l2.6,1.5l-4.6,7.9l2.8,1.6l4.6-7.9l2.6,1.5l-4.6,7.9l2.8,1.6l4.6-7.9l2.6,1.5l-6.2,10.5l-1.3-0.8l-1.3-0.8
				l-2.8-1.6l-2.6-1.5l-2.8-1.6l-1.4-0.8l-1.2-0.7L1251.1,158.3z"/>
			<path d="M1264.9,139.3l2.4,1.9l-5.6,7.2l2.6,2l5.6-7.2l2.4,1.9l-5.6,7.2l5,3.9l-1.9,2.4l-5-3.9l-2.4-1.9l-2.6-2l-0.8-0.6
				l-1.6-1.2L1264.9,139.3z M1269.8,158.5l1.9-2.4L1269.8,158.5z"/>
			<path d="M1283.2,142.4l-11.3-10.8l2.1-2.2l11.3,10.8L1283.2,142.4z"/>
			<path d="M1294.7,131.2l-8.2-9.5l-3.8,3.2l-2-2.3l3.8-3.2l2.3-2l3.8-3.2l2,2.3l-3.8,3.2l8.2,9.5L1294.7,131.2z"/>
			<path d="M1321.1,94.2l1.5,2.7l-7,3.9c0,0-1.7,0.9-0.9,2.4c0.8,1.4,2.5,0.5,2.5,0.5l3.5-1.9c0,0,4.1-2.2,6.3,1.8s-1.7,6.3-1.7,6.3
				l-7.4,4.1l-1.5-2.7l7-3.9c0,0,1.7-0.9,0.9-2.4c-0.8-1.4-2.5-0.5-2.5-0.5l-3.5,1.9c0,0-4.1,2.2-6.3-1.8s1.7-6.3,1.7-6.3
				L1321.1,94.2z"/>
			<path d="M1337.1,103.9l-4.7-11.7l-0.6-1.5l-0.5-1.3l7.5-3c0,0,4.3-1.6,6,2.7c1.7,4.2-2.5,6-2.5,6l-4.6,1.8l2.3,5.9L1337.1,103.9z
				 M1336.4,94.1l4.2-1.7c0,0,1.8-0.7,1.2-2.2c-0.6-1.5-2.4-0.8-2.4-0.8l-4.2,1.7L1336.4,94.1z"/>
			<path d="M1358.9,79.9l8.8,13.8l-3.3,0.9l-1.8-2.9l-5.8,1.6l-0.2,3.4l-3.3,0.9l0.6-16.4L1358.9,79.9z M1360.8,89.1l-3.7-5.7
				l-0.3,6.7L1360.8,89.1z"/>
			<path d="M1384.2,75.3l0.4,3l-5.4,0.8c0,0-4.1,0.8-3.5,5.3c0.6,4.5,4.9,4.1,4.9,4.1l5.4-0.8l0.4,3l-5.6,0.8c0,0-7.1,0.8-8.2-6.7
				c-1.1-7.5,6-8.8,6-8.8L1384.2,75.3z"/>
			<path d="M1406.2,74.3l0.1,3l-9.1,0.2l0.1,3.3l9.1-0.2l0.1,3l-9.1,0.2l0.1,3.3l9.1-0.2l0.1,3l-12.2,0.2l0-1.5l0-1.5l-0.1-3.3
				l-0.1-3l-0.1-3.3l0-1.6l0-1.4L1406.2,74.3z"/>
			<path d="M1429.5,76.1l-0.3,3l-9.1-1l-0.4,3.2l9.1,1l-0.3,3l-9.1-1l-0.7,6.3l-3-0.3l0.7-6.3l0.3-3l0.4-3.2l0.1-1.1l0.2-2
				L1429.5,76.1z M1415.7,90.3l3,0.3L1415.7,90.3z"/>
			<path d="M1436.4,93.3l3.2-15.3l3,0.6l-3.2,15.3L1436.4,93.3z"/>
			<path d="M1452,97.2l3.8-12l-4.7-1.5l0.9-2.9l4.7,1.5l2.9,0.9l4.7,1.5l-0.9,2.9l-4.7-1.5l-3.8,12L1452,97.2z"/>
			<path d="M1508.9,108.2l-1.7,2.5l-6.7-4.5c0,0-1.6-1.1-2.5,0.3s0.7,2.4,0.7,2.4l3.3,2.2c0,0,3.8,2.6,1.2,6.4
				c-2.5,3.8-6.4,1.3-6.4,1.3l-7-4.7l1.7-2.5l6.7,4.5c0,0,1.6,1.1,2.5-0.3c0.9-1.4-0.7-2.4-0.7-2.4l-3.3-2.2c0,0-3.8-2.6-1.2-6.4
				c2.5-3.8,6.4-1.3,6.4-1.3L1508.9,108.2z"/>
			<path d="M1507.5,126.8l8.3-9.5l1.1-1.2l0.9-1l6,5.3c0,0,3.4,3.1,0.4,6.5c-3,3.4-6.5,0.5-6.5,0.5l-3.8-3.3l-4.2,4.7L1507.5,126.8z
				 M1516,121.8l3.4,3c0,0,1.5,1.3,2.6,0.1c1.1-1.2-0.4-2.5-0.4-2.5l-3.4-3L1516,121.8z"/>
			<path d="M1538.7,135.4l-8.3,14.1l-2.3-2.6l1.7-3l-4.1-4.5l-3.1,1.4l-2.3-2.6l14.8-6.9L1538.7,135.4z M1531.4,141.2l3.4-5.8
				l-6.1,2.8L1531.4,141.2z"/>
			<path d="M1554.4,155.7l-2.5,1.8l-3.2-4.5c0,0-2.7-3.3-6.3-0.7c-3.7,2.6-1.5,6.2-1.5,6.2l3.2,4.5l-2.5,1.8l-3.2-4.6
				c0,0-3.9-6,2.2-10.4s10.5,1.3,10.5,1.3L1554.4,155.7z"/>
			<path d="M1565.3,174.8l-2.7,1.4l-4.3-8.1l-2.9,1.6l4.3,8.1l-2.7,1.4l-4.3-8.1l-2.9,1.6l4.3,8.1l-2.7,1.4l-5.8-10.7l1.3-0.7
				l1.3-0.7l2.9-1.6l2.7-1.4l2.9-1.6l1.4-0.8l1.2-0.7L1565.3,174.8z"/>
			<path d="M1574.3,196.5l-2.8,1.1l-3.2-8.6l-3.1,1.1l3.2,8.6l-2.8,1.1l-3.2-8.6l-5.9,2.2l-1.1-2.8l5.9-2.2l2.8-1.1l3.1-1.1l1-0.4
				l1.8-0.7L1574.3,196.5z M1555.4,190.7l1.1,2.8L1555.4,190.7z"/>
			<path d="M1562.2,210.5l15.1-4l0.8,2.9l-15.1,4L1562.2,210.5z"/>
			<path d="M1565.7,226.1l12.4-2.1l-0.8-4.9l3-0.5l0.8,4.9l0.5,3l0.8,4.9l-3,0.5l-0.8-4.9l-12.4,2.1L1565.7,226.1z"/>
		</g>
	</g>
	<g>
		<g>
			<g>
				<path class="st2" d="M1879.7,282.3c-19.9,0-38.8,0-58.3,0c2.4-6.7,4.4-12.7,6.6-18.7c2.2-6,2.3-5.9,8.7-5.9
					c16.9,0,33.9,0,50.8,0c7.6,0,15.1,0.4,22.2,3.1c5.7,2.1,9.8,5.9,6.8,13.5c-2.7,6.9-7.9,11.8-13.1,16.7
					c-15.4,14.2-32.9,25.8-50.8,36.6c-18.4,11.1-37.2,21.5-55.8,32.2c-0.9,0.5-2,1-3.6,1.7c0.4-1.7,0.6-2.9,1-3.9
					c3.2-9,6.5-18,9.7-27c2.3-6.4,4.5-12.8,6.6-19.3c0.8-2.5,1.9-3.5,4.7-3.5c11.3,0.2,22.7-0.2,34,0.1c12,0.4,19.9-5,25.1-15.4
					C1876,289.4,1877.6,286.3,1879.7,282.3z"/>
				<path class="st2" d="M1790.3,277.1c-6.2-6.3-9.9-13-11.7-21c-4.5-19.9,8.7-42.2,26.8-49.6c7.3-3,15.1-4.3,23-4.3
					c33.6-0.1,67.2-0.1,100.8-0.1c1,0,2,0.1,3.4,0.2c-5.5,17.4-16.3,30-31.2,40.6c1.7-3.7,3.1-6.6,4.3-9.5c0.9-2.2,0.4-3.4-2.4-3.4
					c-25.1,0.1-50.2-0.1-75.3,0.2c-11.4,0.1-21,4.3-26,15.5c-2.1,4.6-3.7,9.5-5.4,14.3C1794.6,265.5,1792.6,271,1790.3,277.1z"/>
			</g>
			<g>
				<g>
					<path class="st2" d="M1727.8,225.1c9.3-0.2,16.4,5.7,16.7,14.9c0.5,17.6,0.1,35.2,0.1,52.8c-5.3,1-11.2-1.6-13.9-6.7
						c-1.6-3-2.9-6.5-3-9.8c-0.3-16.7-0.1-33.4-0.1-50.1C1727.6,225.9,1727.7,225.6,1727.8,225.1z"/>
					<path class="st2" d="M1765.8,295.4c-7,0.4-12.3-3.2-14.8-8.3c-1.4-2.9-2.2-5.9-2.2-9.1c0-21.9,0-43.7,0-65.6c0-0.5,0-1,0-1.7
						c4.1-0.1,7.9,0.8,11,3.5c4.1,3.5,5.9,8.2,5.9,13.3c0.1,22.3,0.1,44.5,0.1,66.8C1765.9,294.7,1765.9,295,1765.8,295.4z"/>
					<path class="st2" d="M1722.5,269.9c-4.5,0.3-8.1-2.8-8.3-7.7c-0.3-8.6-0.1-17.3-0.1-26.1c3-0.1,5.5,0.9,7,3.5
						c0.8,1.4,1.4,3.1,1.4,4.7c0.1,8.4,0.1,16.7,0.1,25.1C1722.6,269.5,1722.6,269.7,1722.5,269.9z"/>
				</g>
				<g>
					<path class="st2" d="M1971.8,292.7c-9,0.7-16.7-5.8-16.9-15c-0.4-17.4-0.1-34.9-0.1-52.3c0-0.2,0.2-0.4,0.2-0.5
						c9.1-0.4,16.4,5.8,16.6,15.7C1972.1,257.8,1971.8,275.1,1971.8,292.7z"/>
					<path class="st2" d="M1950.7,294.1c-6.8,0.4-11.9-3-14.3-7.9c-1.3-2.7-2.1-5.5-2.1-8.5c0-21.7,0-43.5,0-65.2
						c0-0.2,0-0.4,0.1-0.8c4.1-0.1,7.8,0.9,10.9,3.6c3.9,3.4,5.5,8,5.6,12.9c0.1,21.7,0.1,43.5,0.1,65.2
						C1950.8,293.6,1950.7,293.8,1950.7,294.1z"/>
					<path class="st2" d="M1975.2,236.5c4.8,0,8.1,3.1,8.2,7.8c0.2,8.2,0,16.5,0,24.7c0,0.1-0.1,0.2-0.1,0.3c-4.2,0.6-8.1-3-8.1-7.9
						c-0.1-8.1,0-16.2,0-24.3C1975.2,237,1975.2,236.8,1975.2,236.5z"/>
				</g>
			</g>
		</g>
		<g>
			<path d="M1688.8,303.9l-3.3,0.3l-0.8-8.8c0,0-0.2-2.1-2-2c-1.8,0.2-1.6,2.3-1.6,2.3l0.4,4.4c0,0,0.4,5-4.6,5.5
				c-5,0.5-5.6-4.5-5.6-4.5l-0.9-9.2l3.3-0.3l0.8,8.8c0,0,0.2,2.1,2,2c1.8-0.2,1.6-2.3,1.6-2.3l-0.4-4.4c0,0-0.4-5,4.6-5.5
				c5-0.5,5.6,4.5,5.6,4.5L1688.8,303.9z"/>
			<path d="M1673.8,317.7l13.4-3.3l1.8-0.4l1.5-0.4l2.1,8.6c0,0,1.1,4.9-3.8,6.1c-4.9,1.2-6.2-3.7-6.2-3.7l-1.3-5.3l-6.7,1.6
				L1673.8,317.7z M1684.5,318.5l1.2,4.9c0,0,0.5,2.1,2.2,1.7s1.2-2.5,1.2-2.5l-1.2-4.9L1684.5,318.5z"/>
			<path d="M1699.1,342.2l-14.2,11.1l-1.4-3.6l2.9-2.3l-2.4-6.2l-3.8,0.2l-1.4-3.6l18-1.1L1699.1,342.2z M1689.2,345.2l5.8-4.6
				l-7.4,0.4L1689.2,345.2z"/>
			<path d="M1710.5,365.4l-2.9,1.6l-2.9-5.3c0,0-2.5-3.9-6.8-1.6c-4.4,2.4-2.4,6.6-2.4,6.6l2.9,5.3l-2.9,1.6l-2.9-5.4
				c0,0-3.5-7,3.8-11c7.3-4,11.3,2.8,11.3,2.8L1710.5,365.4z"/>
			<path d="M1722.9,383.3l-2.7,2l-5.9-8.1l-2.9,2.1l5.9,8.1l-2.7,2l-5.9-8.1l-2.9,2.1l5.9,8.1l-2.7,2l-7.9-10.8l1.3-1l1.3-1l2.9-2.1
				l2.7-2l2.9-2.1l1.4-1.1l1.2-0.9L1722.9,383.3z"/>
			<path d="M1738.7,400.4l-2.4,2.3l-7-7.2l-2.6,2.5l7,7.2l-2.4,2.3l-7-7.2l-4.9,4.9l-2.3-2.4l4.9-4.9l2.4-2.3l2.6-2.5l0.8-0.8
				l1.6-1.5L1738.7,400.4z M1717.1,402.9l2.3,2.4L1717.1,402.9z"/>
			<path d="M1735,419.9l10.9-13.3l2.6,2.1l-10.9,13.3L1735,419.9z"/>
			<path d="M1750.4,431.4l7.6-11.6l-4.6-3l1.8-2.8l4.6,3l2.8,1.8l4.6,3l-1.8,2.8l-4.6-3l-7.6,11.6L1750.4,431.4z"/>
			<path d="M1800.1,436.8l-1.2,3.1l-8.2-3.1c0,0-2-0.8-2.7,0.9s1.4,2.4,1.4,2.4l4.1,1.5c0,0,4.7,1.9,2.9,6.6s-6.5,3-6.5,3l-8.7-3.2
				l1.2-3.1l8.2,3.1c0,0,2,0.8,2.7-0.9s-1.4-2.4-1.4-2.4l-4.1-1.5c0,0-4.7-1.9-2.9-6.6c1.8-4.7,6.5-3,6.5-3L1800.1,436.8z"/>
			<path d="M1806,456.4l2.9-13.5l0.4-1.8l0.3-1.5l8.6,1.9c0,0,4.9,1.2,3.8,6.1s-6,4-6,4l-5.4-1.1l-1.4,6.8L1806,456.4z
				 M1811.4,447.1l4.9,1c0,0,2.1,0.5,2.5-1.3c0.4-1.8-1.7-2.2-1.7-2.2l-4.9-1L1811.4,447.1z"/>
			<path d="M1839.1,444.3l3.8,17.6l-3.8-0.3l-0.8-3.7l-6.6-0.6l-1.4,3.5l-3.8-0.3l6.8-16.6L1839.1,444.3z M1837.5,454.5l-1.6-7.2
				l-2.9,6.8L1837.5,454.5z"/>
			<path d="M1864.9,444.2l0.1,3.3l-6,0.3c0,0-4.6,0.5-4.4,5.5c0.2,5,4.9,5,4.9,5l6-0.3l0.1,3.3l-6.2,0.3c0,0-7.8,0.1-8.2-8.2
				c-0.4-8.3,7.5-8.9,7.5-8.9L1864.9,444.2z"/>
			<path d="M1886.5,440.9l0.6,3.3l-9.9,1.8l0.6,3.5l9.9-1.8l0.6,3.3l-9.9,1.8l0.6,3.5l9.9-1.8l0.6,3.3l-13.2,2.4l-0.3-1.6l-0.3-1.6
				l-0.6-3.5l-0.6-3.3l-0.6-3.5l-0.3-1.8l-0.3-1.5L1886.5,440.9z"/>
			<path d="M1908.8,434.2l1.1,3.2l-9.5,3.2l1.1,3.4l9.5-3.2l1.1,3.2l-9.5,3.2l2.2,6.6l-3.2,1l-2.2-6.6l-1.1-3.2l-1.1-3.4l-0.4-1.1
				l-0.7-2.1L1908.8,434.2z M1901.5,454.8l3.2-1L1901.5,454.8z"/>
			<path d="M1924.7,446.1l-7.2-15.6l3-1.4l7.2,15.6L1924.7,446.1z"/>
			<path d="M1941.8,437.2l-7.1-11.9l-4.7,2.8l-1.7-2.9l4.7-2.8l2.9-1.7l4.7-2.8l1.7,2.9l-4.7,2.8l7.1,11.9L1941.8,437.2z"/>
			<path d="M1968.4,394.9l2.3,2.4l-6.4,6.1c0,0-1.6,1.5-0.3,2.8s2.8-0.2,2.8-0.2l3.2-3c0,0,3.7-3.4,7.2,0.2s-0.1,7.2-0.1,7.2
				l-6.7,6.4l-2.3-2.4l6.4-6.1c0,0,1.6-1.5,0.3-2.8c-1.3-1.3-2.8,0.2-2.8,0.2l-3.2,3c0,0-3.7,3.4-7.2-0.2c-3.5-3.6,0.1-7.2,0.1-7.2
				L1968.4,394.9z"/>
			<path d="M1988.5,398.1l-10.9-8.5l-1.4-1.1l-1.2-0.9l5.4-6.9c0,0,3.2-3.9,7.2-0.8c3.9,3.1,0.9,7.1,0.9,7.1l-3.4,4.3l5.4,4.3
				L1988.5,398.1z M1982.5,389.2l3.1-3.9c0,0,1.4-1.7-0.1-2.8c-1.4-1.1-2.7,0.6-2.7,0.6l-3.1,3.9L1982.5,389.2z"/>
			<path d="M1992.2,363.2l17.5,4.3l-2,3.3l-3.7-0.9l-3.4,5.7l2.5,2.8l-2,3.3l-11.9-13.5L1992.2,363.2z M2000.6,369l-7.2-1.7l4.9,5.6
				L2000.6,369z"/>
			<path d="M2003.4,339.9l3.1,1.3l-2.4,5.5c0,0-1.6,4.4,3,6.4s6.7-2.2,6.7-2.2l2.4-5.5l3.1,1.3l-2.4,5.7c0,0-3.3,7.1-11,3.8
				s-4.8-10.6-4.8-10.6L2003.4,339.9z"/>
			<path d="M2009.8,319l3.2,0.9l-2.7,9.7l3.4,1l2.7-9.7l3.2,0.9l-2.7,9.7l3.5,1l2.7-9.7l3.2,0.9l-3.6,12.9l-1.6-0.5l-1.6-0.5l-3.5-1
				l-3.2-0.9l-3.5-1l-1.7-0.5l-1.5-0.4L2009.8,319z"/>
			<path d="M2013.6,296.1l3.3,0.4l-1.3,10l3.6,0.5l1.3-10l3.3,0.4l-1.3,10l6.9,0.9l-0.4,3.3l-6.9-0.9l-3.3-0.4l-3.6-0.5l-1.2-0.1
				l-2.2-0.3L2013.6,296.1z M2028.9,311.6l0.4-3.3L2028.9,311.6z"/>
			<path d="M2031.2,286.9l-17.2-0.4l0.1-3.3l17.2,0.4L2031.2,286.9z"/>
			<path d="M2030.8,267.7l-13.8,1.2l0.5,5.4l-3.3,0.3l-0.5-5.4l-0.3-3.3l-0.5-5.4l3.3-0.3l0.5,5.4l13.8-1.2L2030.8,267.7z"/>
		</g>
		<g>
			<path d="M1668.9,241.6l3,0.1l-0.3,8c0,0-0.1,2,1.6,2s1.7-1.9,1.7-1.9l0.2-4c0,0,0.3-4.6,4.8-4.4c4.6,0.2,4.5,4.8,4.5,4.8
				l-0.3,8.4l-3-0.1l0.3-8c0,0,0.1-2-1.6-2s-1.7,1.9-1.7,1.9l-0.2,4c0,0-0.3,4.6-4.8,4.4c-4.6-0.2-4.5-4.8-4.5-4.8L1668.9,241.6z"/>
			<path d="M1685.5,233l-12.4-2.1l-1.6-0.3l-1.4-0.2l1.4-7.9c0,0,0.9-4.5,5.4-3.7c4.5,0.8,3.8,5.3,3.8,5.3l-0.8,4.9l6.2,1.1
				L1685.5,233z M1676.9,228.4l0.8-4.5c0,0,0.4-1.9-1.3-2.2c-1.6-0.3-1.9,1.7-1.9,1.7l-0.8,4.5L1676.9,228.4z"/>
			<path d="M1676.5,201.9l16.4-0.3l-1,3.3l-3.4,0.1l-1.7,5.8l2.8,1.9l-1,3.3L1675,207L1676.5,201.9z M1685.3,205.1l-6.7,0.2l5.6,3.8
				L1685.3,205.1z"/>
			<path d="M1685.7,178l2.8,1.2l-2.2,5c0,0-1.4,4,2.7,5.8c4.2,1.8,6.1-2,6.1-2l2.2-5l2.8,1.2l-2.2,5.2c0,0-3,6.5-10,3.5
				s-4.4-9.7-4.4-9.7L1685.7,178z"/>
			<path d="M1696.3,158.7l2.6,1.5l-4.6,7.9l2.8,1.6l4.6-7.9l2.6,1.5l-4.6,7.9l2.8,1.6l4.6-7.9l2.6,1.5l-6.2,10.5l-1.3-0.8l-1.3-0.8
				l-2.8-1.6l-2.6-1.5l-2.8-1.6l-1.4-0.8l-1.2-0.7L1696.3,158.7z"/>
			<path d="M1710.1,139.7l2.4,1.9l-5.6,7.2l2.6,2l5.6-7.2l2.4,1.9l-5.6,7.2l5,3.9l-1.9,2.4l-5-3.9l-2.4-1.9l-2.6-2l-0.8-0.6
				l-1.6-1.2L1710.1,139.7z M1715,158.9l1.9-2.4L1715,158.9z"/>
			<path d="M1728.4,142.8l-11.3-10.8l2.1-2.2l11.3,10.8L1728.4,142.8z"/>
			<path d="M1739.9,131.6l-8.2-9.5l-3.8,3.2l-2-2.3l3.8-3.2l2.3-2l3.8-3.2l2,2.3l-3.8,3.2l8.2,9.5L1739.9,131.6z"/>
			<path d="M1766.3,94.6l1.5,2.7l-7,3.9c0,0-1.7,0.9-0.9,2.4c0.8,1.4,2.5,0.5,2.5,0.5l3.5-1.9c0,0,4.1-2.2,6.3,1.8s-1.7,6.3-1.7,6.3
				l-7.4,4.1l-1.5-2.7l7-3.9c0,0,1.7-0.9,0.9-2.4s-2.5-0.5-2.5-0.5l-3.5,1.9c0,0-4.1,2.2-6.3-1.8s1.7-6.3,1.7-6.3L1766.3,94.6z"/>
			<path d="M1782.3,104.3l-4.7-11.7L1777,91l-0.5-1.3l7.5-3c0,0,4.3-1.6,6,2.7c1.7,4.2-2.5,6-2.5,6l-4.6,1.8l2.3,5.9L1782.3,104.3z
				 M1781.7,94.5l4.2-1.7c0,0,1.8-0.7,1.2-2.2c-0.6-1.5-2.4-0.8-2.4-0.8l-4.2,1.7L1781.7,94.5z"/>
			<path d="M1804.1,80.3l8.8,13.8l-3.3,0.9l-1.8-2.9l-5.8,1.6l-0.2,3.4l-3.3,0.9l0.6-16.4L1804.1,80.3z M1806,89.5l-3.7-5.7
				l-0.3,6.7L1806,89.5z"/>
			<path d="M1829.4,75.7l0.4,3l-5.4,0.8c0,0-4.1,0.8-3.5,5.3c0.6,4.5,4.9,4.1,4.9,4.1l5.4-0.8l0.4,3L1826,92c0,0-7.1,0.8-8.2-6.7
				c-1.1-7.5,6-8.8,6-8.8L1829.4,75.7z"/>
			<path d="M1851.4,74.7l0.1,3l-9.1,0.2l0.1,3.3l9.1-0.2l0.1,3l-9.1,0.2l0.1,3.3l9.1-0.2l0.1,3l-12.2,0.2l0-1.5l0-1.5l-0.1-3.3
				l-0.1-3l-0.1-3.3l0-1.6l0-1.4L1851.4,74.7z"/>
			<path d="M1874.7,76.5l-0.3,3l-9.1-1l-0.4,3.2l9.1,1l-0.3,3l-9.1-1l-0.7,6.3l-3-0.3l0.7-6.3l0.3-3l0.4-3.2l0.1-1.1l0.2-2
				L1874.7,76.5z M1860.9,90.7l3,0.3L1860.9,90.7z"/>
			<path d="M1881.7,93.7l3.2-15.3l3,0.6l-3.2,15.3L1881.7,93.7z"/>
			<path d="M1897.2,97.7l3.8-12l-4.7-1.5l0.9-2.9l4.7,1.5l2.9,0.9l4.7,1.5l-0.9,2.9l-4.7-1.5l-3.8,12L1897.2,97.7z"/>
			<path d="M1954.1,108.6l-1.7,2.5l-6.7-4.5c0,0-1.6-1.1-2.5,0.3s0.7,2.4,0.7,2.4l3.3,2.2c0,0,3.8,2.6,1.2,6.4
				c-2.5,3.8-6.4,1.3-6.4,1.3l-7-4.7l1.7-2.5l6.7,4.5c0,0,1.6,1.1,2.5-0.3c0.9-1.4-0.7-2.4-0.7-2.4l-3.3-2.2c0,0-3.8-2.6-1.2-6.4
				c2.5-3.8,6.4-1.3,6.4-1.3L1954.1,108.6z"/>
			<path d="M1952.7,127.2l8.3-9.5l1.1-1.2l0.9-1l6,5.3c0,0,3.4,3.1,0.4,6.5c-3,3.4-6.5,0.5-6.5,0.5l-3.8-3.3l-4.2,4.7L1952.7,127.2z
				 M1961.2,122.2l3.4,3c0,0,1.5,1.3,2.6,0.1c1.1-1.2-0.4-2.5-0.4-2.5l-3.4-3L1961.2,122.2z"/>
			<path d="M1983.9,135.8l-8.3,14.1l-2.3-2.6l1.7-3l-4.1-4.5l-3.1,1.4l-2.3-2.6l14.8-6.9L1983.9,135.8z M1976.6,141.6l3.4-5.8
				l-6.1,2.8L1976.6,141.6z"/>
			<path d="M1999.6,156.1l-2.5,1.8l-3.2-4.5c0,0-2.7-3.3-6.3-0.7c-3.7,2.6-1.5,6.2-1.5,6.2l3.2,4.5l-2.5,1.8l-3.2-4.6
				c0,0-3.9-6,2.2-10.4s10.5,1.3,10.5,1.3L1999.6,156.1z"/>
			<path d="M2010.5,175.2l-2.7,1.4l-4.3-8.1l-2.9,1.6l4.3,8.1l-2.7,1.4l-4.3-8.1l-2.9,1.6l4.3,8.1l-2.7,1.4l-5.8-10.7l1.3-0.7
				l1.3-0.7l2.9-1.6l2.7-1.4l2.9-1.6l1.4-0.8l1.2-0.7L2010.5,175.2z"/>
			<path d="M2019.5,196.9l-2.8,1.1l-3.2-8.6l-3.1,1.1l3.2,8.6l-2.8,1.1l-3.2-8.6l-5.9,2.2l-1.1-2.8l5.9-2.2l2.8-1.1l3.1-1.1l1-0.4
				l1.8-0.7L2019.5,196.9z M2000.6,191.1l1.1,2.8L2000.6,191.1z"/>
			<path d="M2007.4,210.9l15.1-4l0.8,2.9l-15.1,4L2007.4,210.9z"/>
			<path d="M2010.9,226.5l12.4-2.1l-0.8-4.9l3-0.5l0.8,4.9l0.5,3l0.8,4.9l-3,0.5l-0.8-4.9l-12.4,2.1L2010.9,226.5z"/>
		</g>
	</g>
	<g>
		<g>
			<g>
				<path d="M1436.2,778.4c-19.9,0-38.8,0-58.3,0c2.4-6.7,4.4-12.7,6.6-18.7c2.2-6,2.3-5.9,8.7-5.9c16.9,0,33.9,0,50.8,0
					c7.6,0,15.1,0.4,22.2,3.1c5.7,2.1,9.8,5.9,6.8,13.5c-2.7,6.9-7.9,11.8-13.1,16.7c-15.4,14.2-32.9,25.8-50.8,36.6
					c-18.4,11.1-37.2,21.5-55.8,32.2c-0.9,0.5-2,1-3.6,1.7c0.4-1.7,0.6-2.8,1-3.9c3.2-9,6.5-18,9.7-27c2.3-6.4,4.5-12.8,6.6-19.3
					c0.8-2.5,1.9-3.5,4.7-3.5c11.3,0.2,22.7-0.2,34,0.2c12,0.4,19.9-5,25.1-15.4C1432.6,785.5,1434.1,782.4,1436.2,778.4z"/>
				<path d="M1346.9,773.3c-6.2-6.3-9.9-13-11.7-21c-4.5-19.9,8.7-42.2,26.8-49.6c7.3-3,15.1-4.3,23-4.3
					c33.6-0.2,67.2-0.1,100.8-0.1c1,0,2,0.1,3.4,0.2c-5.5,17.4-16.3,30-31.2,40.6c1.7-3.7,3.1-6.5,4.3-9.5c0.9-2.2,0.4-3.4-2.4-3.4
					c-25.1,0.1-50.2-0.1-75.3,0.2c-11.4,0.1-21,4.3-26,15.5c-2.1,4.6-3.7,9.5-5.4,14.3C1351.1,761.6,1349.1,767.1,1346.9,773.3z"/>
			</g>
			<g>
				<g>
					<path d="M1284.3,721.2c9.3-0.2,16.4,5.7,16.7,14.9c0.5,17.6,0.1,35.2,0.1,52.8c-5.3,1-11.2-1.6-13.9-6.7c-1.6-3-2.9-6.5-3-9.8
						c-0.3-16.7-0.1-33.4-0.1-50.2C1284.1,722,1284.2,721.7,1284.3,721.2z"/>
					<path d="M1322.4,791.5c-7,0.3-12.3-3.2-14.8-8.3c-1.4-2.9-2.2-5.9-2.2-9.1c0-21.9,0-43.7,0-65.6c0-0.5,0-1,0-1.7
						c4.1-0.1,7.9,0.8,11,3.5c4.1,3.5,5.9,8.2,5.9,13.3c0.1,22.3,0.1,44.5,0.1,66.8C1322.5,790.8,1322.4,791.2,1322.4,791.5z"/>
					<path d="M1279,766c-4.5,0.3-8.1-2.8-8.3-7.7c-0.3-8.6-0.1-17.3-0.1-26.1c3-0.1,5.5,0.9,7,3.5c0.8,1.4,1.4,3.1,1.4,4.7
						c0.1,8.3,0.1,16.7,0.1,25.1C1279.1,765.6,1279.1,765.8,1279,766z"/>
				</g>
				<g>
					<path d="M1528.3,788.8c-9,0.7-16.7-5.8-16.9-15c-0.4-17.4-0.1-34.9-0.1-52.3c0-0.2,0.2-0.4,0.2-0.5c9.1-0.4,16.4,5.8,16.6,15.7
						C1528.6,753.9,1528.3,771.3,1528.3,788.8z"/>
					<path d="M1507.2,790.2c-6.8,0.4-11.9-3-14.3-7.9c-1.3-2.7-2.1-5.5-2.1-8.5c0-21.7,0-43.5,0-65.2c0-0.2,0-0.4,0.1-0.8
						c4.1-0.1,7.8,0.9,10.9,3.6c3.9,3.4,5.5,8,5.6,13c0.1,21.7,0.1,43.5,0.1,65.2C1507.3,789.8,1507.2,790,1507.2,790.2z"/>
					<path d="M1531.8,732.6c4.8,0,8.1,3,8.2,7.8c0.2,8.2,0,16.5,0,24.7c0,0.1-0.1,0.2-0.1,0.3c-4.2,0.6-8.1-3-8.1-7.9
						c-0.1-8.1,0-16.2,0-24.3C1531.7,733.1,1531.8,732.9,1531.8,732.6z"/>
				</g>
			</g>
		</g>
		<g>
			<path d="M1245.3,800l-3.3,0.3l-0.8-8.8c0,0-0.2-2.2-2-2c-1.8,0.2-1.6,2.3-1.6,2.3l0.4,4.4c0,0,0.4,5-4.6,5.5
				c-5,0.5-5.6-4.5-5.6-4.5l-0.9-9.2l3.3-0.3l0.8,8.8c0,0,0.2,2.2,2,2c1.8-0.2,1.6-2.3,1.6-2.3l-0.4-4.4c0,0-0.4-5,4.6-5.5
				c5-0.5,5.6,4.5,5.6,4.5L1245.3,800z"/>
			<path d="M1230.3,813.9l13.4-3.3l1.8-0.4l1.5-0.4l2.1,8.6c0,0,1.1,4.9-3.8,6.1s-6.2-3.7-6.2-3.7l-1.3-5.3l-6.7,1.6L1230.3,813.9z
				 M1241,814.7l1.2,4.9c0,0,0.5,2.1,2.2,1.7s1.2-2.5,1.2-2.5l-1.2-4.9L1241,814.7z"/>
			<path d="M1255.6,838.3l-14.2,11.1l-1.4-3.6l2.9-2.3l-2.4-6.2l-3.8,0.2l-1.4-3.6l18-1.1L1255.6,838.3z M1245.8,841.3l5.8-4.6
				l-7.4,0.4L1245.8,841.3z"/>
			<path d="M1267,861.5l-2.9,1.6l-2.9-5.3c0,0-2.5-3.9-6.8-1.6c-4.4,2.4-2.4,6.6-2.4,6.6l2.9,5.3l-2.9,1.6l-2.9-5.4
				c0,0-3.5-7,3.8-11c7.3-4,11.3,2.8,11.3,2.8L1267,861.5z"/>
			<path d="M1279.5,879.4l-2.7,2l-5.9-8.1l-2.9,2.1l5.9,8.1l-2.7,2l-5.9-8.1l-2.9,2.1l5.9,8.1l-2.7,2l-7.9-10.8l1.3-1l1.3-1l2.9-2.1
				l2.7-2l2.9-2.1l1.4-1.1l1.2-0.9L1279.5,879.4z"/>
			<path d="M1295.2,896.5l-2.4,2.3l-7-7.2l-2.6,2.5l7,7.2l-2.4,2.3l-7-7.2l-4.9,4.8l-2.3-2.4l4.9-4.8l2.4-2.3l2.6-2.5l0.8-0.8
				l1.6-1.5L1295.2,896.5z M1273.6,899l2.3,2.4L1273.6,899z"/>
			<path d="M1291.5,916l10.9-13.3l2.6,2.1l-10.9,13.3L1291.5,916z"/>
			<path d="M1306.9,927.6l7.6-11.6l-4.6-3l1.8-2.8l4.6,3l2.8,1.8l4.6,3l-1.8,2.8l-4.6-3l-7.6,11.6L1306.9,927.6z"/>
			<path d="M1356.7,933l-1.2,3.1l-8.2-3.1c0,0-2-0.8-2.7,0.9s1.4,2.4,1.4,2.4l4.1,1.5c0,0,4.7,1.9,2.9,6.6s-6.5,3-6.5,3l-8.7-3.2
				l1.2-3.1l8.2,3.1c0,0,2,0.8,2.7-0.9s-1.4-2.4-1.4-2.4l-4.1-1.5c0,0-4.7-1.9-2.9-6.6c1.8-4.7,6.5-3,6.5-3L1356.7,933z"/>
			<path d="M1362.5,952.5l2.9-13.5l0.4-1.8l0.3-1.5l8.6,1.8c0,0,4.9,1.2,3.8,6.1s-6,4-6,4l-5.4-1.2l-1.4,6.8L1362.5,952.5z
				 M1367.9,943.2l4.9,1c0,0,2.1,0.5,2.5-1.3c0.4-1.8-1.7-2.2-1.7-2.2l-4.9-1L1367.9,943.2z"/>
			<path d="M1395.6,940.4l3.8,17.6l-3.8-0.3l-0.8-3.7l-6.6-0.6l-1.4,3.5l-3.8-0.3l6.8-16.6L1395.6,940.4z M1394.1,950.6l-1.6-7.2
				l-2.9,6.8L1394.1,950.6z"/>
			<path d="M1421.4,940.3l0.1,3.3l-6,0.3c0,0-4.6,0.5-4.4,5.5c0.2,5,4.9,5,4.9,5l6-0.3l0.1,3.3l-6.2,0.3c0,0-7.8,0.1-8.2-8.2
				c-0.4-8.3,7.5-8.9,7.5-8.9L1421.4,940.3z"/>
			<path d="M1443,937l0.6,3.3l-9.9,1.8l0.6,3.5l9.9-1.8l0.6,3.3l-9.9,1.8l0.6,3.5l9.9-1.8l0.6,3.3l-13.2,2.4l-0.3-1.7l-0.3-1.6
				l-0.6-3.5l-0.6-3.3l-0.6-3.5l-0.3-1.8l-0.3-1.5L1443,937z"/>
			<path d="M1465.3,930.4l1.1,3.2l-9.5,3.2l1.1,3.4l9.5-3.2l1.1,3.2l-9.5,3.2l2.2,6.6l-3.2,1l-2.2-6.6l-1.1-3.2l-1.1-3.4l-0.4-1.1
				l-0.7-2.1L1465.3,930.4z M1458,950.9l3.2-1L1458,950.9z"/>
			<path d="M1481.2,942.2l-7.2-15.6l3-1.4l7.2,15.6L1481.2,942.2z"/>
			<path d="M1498.3,933.4l-7.1-11.9l-4.7,2.8l-1.7-2.9l4.7-2.8l2.9-1.7l4.7-2.8l1.7,2.9l-4.7,2.8l7.1,11.9L1498.3,933.4z"/>
			<path d="M1524.9,891l2.3,2.4l-6.4,6.1c0,0-1.6,1.5-0.3,2.8s2.8-0.2,2.8-0.2l3.2-3c0,0,3.7-3.4,7.2,0.2s-0.1,7.2-0.1,7.2l-6.7,6.4
				l-2.3-2.4l6.4-6.1c0,0,1.6-1.5,0.3-2.8c-1.3-1.3-2.8,0.2-2.8,0.2l-3.2,3c0,0-3.7,3.4-7.2-0.2c-3.5-3.6,0.1-7.2,0.1-7.2
				L1524.9,891z"/>
			<path d="M1545.1,894.3l-10.9-8.5l-1.4-1.1l-1.2-0.9l5.4-6.9c0,0,3.2-3.9,7.2-0.8c3.9,3.1,0.9,7.1,0.9,7.1l-3.4,4.3l5.4,4.3
				L1545.1,894.3z M1539.1,885.3l3.1-3.9c0,0,1.4-1.7-0.1-2.8c-1.4-1.1-2.7,0.6-2.7,0.6l-3.1,3.9L1539.1,885.3z"/>
			<path d="M1548.7,859.3l17.5,4.3l-2,3.3l-3.7-0.9l-3.4,5.7l2.5,2.8l-2,3.3l-11.9-13.5L1548.7,859.3z M1557.2,865.2l-7.2-1.7
				l4.9,5.6L1557.2,865.2z"/>
			<path d="M1560,836l3.1,1.3l-2.4,5.5c0,0-1.6,4.4,3,6.3s6.7-2.2,6.7-2.2l2.4-5.5l3.1,1.3l-2.4,5.7c0,0-3.3,7.1-11,3.8
				s-4.8-10.6-4.8-10.6L1560,836z"/>
			<path d="M1566.4,815.2l3.2,0.9l-2.7,9.7l3.4,1l2.7-9.7l3.2,0.9l-2.7,9.7l3.5,1l2.7-9.7l3.2,0.9l-3.6,12.9l-1.6-0.5l-1.6-0.5
				l-3.5-1l-3.2-0.9l-3.5-1l-1.7-0.5l-1.5-0.4L1566.4,815.2z"/>
			<path d="M1570.1,792.2l3.3,0.4l-1.3,10l3.6,0.5l1.3-10l3.3,0.4l-1.3,10l6.9,0.9l-0.4,3.3l-6.9-0.9l-3.3-0.4l-3.6-0.5l-1.2-0.2
				l-2.2-0.3L1570.1,792.2z M1585.4,807.7l0.4-3.3L1585.4,807.7z"/>
			<path d="M1587.7,783l-17.2-0.4l0.1-3.3l17.2,0.4L1587.7,783z"/>
			<path d="M1587.3,763.8l-13.8,1.2l0.5,5.4l-3.3,0.3l-0.5-5.4l-0.3-3.3l-0.5-5.4l3.3-0.3l0.5,5.4l13.8-1.2L1587.3,763.8z"/>
		</g>
		<g>
			<path d="M1225.5,737.8l3,0.1l-0.3,8c0,0-0.1,2,1.6,2s1.7-1.9,1.7-1.9l0.2-4c0,0,0.3-4.6,4.8-4.4c4.6,0.2,4.5,4.8,4.5,4.8
				l-0.3,8.4l-3-0.1l0.3-8c0,0,0.1-2-1.6-2s-1.7,1.9-1.7,1.9l-0.2,4c0,0-0.3,4.6-4.8,4.4c-4.6-0.2-4.5-4.8-4.5-4.8L1225.5,737.8z"/>
			<path d="M1242.1,729.1l-12.4-2.1l-1.6-0.3l-1.4-0.2l1.4-7.9c0,0,0.9-4.5,5.4-3.7c4.5,0.8,3.8,5.3,3.8,5.3l-0.8,4.9l6.2,1.1
				L1242.1,729.1z M1233.4,724.6l0.8-4.5c0,0,0.4-1.9-1.3-2.2s-1.9,1.7-1.9,1.7l-0.8,4.5L1233.4,724.6z"/>
			<path d="M1233,698.1l16.4-0.3l-1,3.3l-3.4,0.1l-1.7,5.8l2.8,1.9l-1,3.3l-13.7-9.1L1233,698.1z M1241.8,701.3l-6.7,0.2l5.6,3.8
				L1241.8,701.3z"/>
			<path d="M1242.2,674.1l2.8,1.2l-2.2,5c0,0-1.4,4,2.7,5.8c4.2,1.8,6.1-2,6.1-2l2.2-5l2.8,1.2l-2.2,5.2c0,0-3,6.5-10,3.5
				s-4.4-9.7-4.4-9.7L1242.2,674.1z"/>
			<path d="M1252.9,654.8l2.6,1.5l-4.6,7.9l2.8,1.7l4.6-7.9l2.6,1.5l-4.6,7.9l2.8,1.7l4.6-7.9l2.6,1.5l-6.2,10.5l-1.3-0.8l-1.3-0.8
				l-2.8-1.7l-2.6-1.5l-2.8-1.7l-1.4-0.8l-1.2-0.7L1252.9,654.8z"/>
			<path d="M1266.7,635.8l2.4,1.9l-5.6,7.2l2.6,2l5.6-7.2l2.4,1.9l-5.6,7.2l5,3.9l-1.9,2.4l-5-3.9l-2.4-1.9l-2.6-2l-0.8-0.7
				l-1.6-1.2L1266.7,635.8z M1271.5,655l1.9-2.4L1271.5,655z"/>
			<path d="M1284.9,638.9l-11.3-10.8l2.1-2.2l11.3,10.8L1284.9,638.9z"/>
			<path d="M1296.4,627.7l-8.2-9.5l-3.8,3.2l-2-2.3l3.8-3.2l2.3-2l3.8-3.2l2,2.3l-3.8,3.2l8.2,9.5L1296.4,627.7z"/>
			<path d="M1322.8,590.7l1.5,2.7l-7,3.9c0,0-1.7,0.9-0.9,2.4s2.5,0.5,2.5,0.5l3.5-2c0,0,4.1-2.2,6.3,1.8c2.2,4-1.7,6.3-1.7,6.3
				l-7.4,4.1l-1.5-2.7l7-3.9c0,0,1.7-0.9,0.9-2.4c-0.8-1.5-2.5-0.5-2.5-0.5l-3.5,2c0,0-4.1,2.2-6.3-1.8c-2.2-4,1.7-6.3,1.7-6.3
				L1322.8,590.7z"/>
			<path d="M1338.8,600.4l-4.7-11.7l-0.6-1.5l-0.5-1.3l7.5-3c0,0,4.3-1.6,6,2.7c1.7,4.2-2.5,6-2.5,6l-4.6,1.8l2.3,5.9L1338.8,600.4z
				 M1338.2,590.6l4.2-1.7c0,0,1.8-0.7,1.2-2.2c-0.6-1.5-2.4-0.8-2.4-0.8l-4.2,1.7L1338.2,590.6z"/>
			<path d="M1360.6,576.5l8.8,13.8l-3.3,0.9l-1.8-2.9l-5.8,1.6l-0.2,3.4l-3.3,0.9l0.6-16.4L1360.6,576.5z M1362.5,585.7l-3.7-5.7
				l-0.3,6.7L1362.5,585.7z"/>
			<path d="M1385.9,571.8l0.4,3l-5.4,0.8c0,0-4.1,0.8-3.5,5.3c0.6,4.5,4.9,4.1,4.9,4.1l5.4-0.8l0.4,3l-5.6,0.8c0,0-7.1,0.8-8.2-6.7
				c-1.1-7.5,6-8.8,6-8.8L1385.9,571.8z"/>
			<path d="M1407.9,570.8l0.1,3l-9.1,0.2l0.1,3.3l9.1-0.2l0.1,3l-9.1,0.2l0.1,3.3l9.1-0.2l0.1,3l-12.2,0.2l0-1.5l0-1.5l-0.1-3.3
				l-0.1-3l-0.1-3.3l0-1.6l0-1.4L1407.9,570.8z"/>
			<path d="M1431.3,572.7l-0.3,3l-9.1-1l-0.4,3.2l9.1,1l-0.3,3l-9.1-1l-0.7,6.3l-3-0.3l0.7-6.3l0.3-3l0.4-3.2l0.1-1l0.2-2
				L1431.3,572.7z M1417.4,586.9l3,0.3L1417.4,586.9z"/>
			<path d="M1438.2,589.8l3.2-15.3l3,0.6l-3.2,15.3L1438.2,589.8z"/>
			<path d="M1453.7,593.8l3.8-12l-4.7-1.5l0.9-2.9l4.7,1.5l2.9,0.9l4.7,1.5l-0.9,2.9l-4.7-1.5l-3.8,12L1453.7,593.8z"/>
			<path d="M1510.6,604.7l-1.7,2.5l-6.7-4.5c0,0-1.6-1.1-2.5,0.3c-0.9,1.4,0.7,2.5,0.7,2.5l3.3,2.2c0,0,3.8,2.6,1.2,6.4
				c-2.5,3.8-6.4,1.3-6.4,1.3l-7-4.7l1.7-2.5l6.7,4.5c0,0,1.6,1.1,2.5-0.3s-0.7-2.5-0.7-2.5l-3.3-2.2c0,0-3.8-2.6-1.2-6.4
				c2.5-3.8,6.4-1.3,6.4-1.3L1510.6,604.7z"/>
			<path d="M1509.3,623.4l8.3-9.5l1.1-1.2l0.9-1l6,5.3c0,0,3.4,3.1,0.4,6.5c-3,3.4-6.5,0.5-6.5,0.5l-3.8-3.3l-4.2,4.7L1509.3,623.4z
				 M1517.7,618.4l3.4,3c0,0,1.5,1.3,2.6,0.1c1.1-1.2-0.4-2.5-0.4-2.5l-3.4-3L1517.7,618.4z"/>
			<path d="M1540.5,631.9l-8.3,14.1l-2.3-2.6l1.7-3l-4.1-4.5l-3.1,1.4l-2.3-2.6l14.8-6.9L1540.5,631.9z M1533.2,637.8l3.4-5.8
				l-6.1,2.8L1533.2,637.8z"/>
			<path d="M1556.1,652.2l-2.5,1.8l-3.2-4.5c0,0-2.7-3.3-6.3-0.7c-3.7,2.6-1.5,6.2-1.5,6.2l3.2,4.5l-2.5,1.8l-3.2-4.6
				c0,0-3.9-6,2.2-10.3c6.2-4.4,10.5,1.3,10.5,1.3L1556.1,652.2z"/>
			<path d="M1567.1,671.3l-2.7,1.4l-4.3-8l-2.9,1.5l4.3,8l-2.7,1.4l-4.3-8l-2.9,1.5l4.3,8l-2.7,1.4l-5.8-10.7l1.3-0.7l1.3-0.7
				l2.9-1.5l2.7-1.4l2.9-1.5l1.4-0.8l1.2-0.7L1567.1,671.3z"/>
			<path d="M1576.1,693l-2.8,1.1l-3.2-8.5l-3.1,1.2l3.2,8.5l-2.8,1.1l-3.2-8.5l-5.9,2.2l-1.1-2.8l5.9-2.2l2.8-1.1l3.1-1.2l1-0.4
				l1.8-0.7L1576.1,693z M1557.1,687.2l1.1,2.8L1557.1,687.2z"/>
			<path d="M1563.9,707l15.1-4l0.8,2.9l-15.1,4L1563.9,707z"/>
			<path d="M1567.4,722.7l12.4-2l-0.8-4.9l3-0.5l0.8,4.9l0.5,3l0.8,4.9l-3,0.5l-0.8-4.9l-12.4,2L1567.4,722.7z"/>
		</g>
	</g>
	<g>
		<g>
			<g>
				<path class="st1" d="M1876.9,779.4c-19.9,0-38.8,0-58.3,0c2.4-6.7,4.4-12.7,6.6-18.7c2.2-6,2.3-5.9,8.7-5.9
					c16.9,0,33.9,0,50.8,0c7.6,0,15.1,0.4,22.2,3.1c5.7,2.1,9.8,5.9,6.8,13.5c-2.7,6.9-7.9,11.8-13.1,16.7
					c-15.4,14.2-32.9,25.8-50.8,36.6c-18.4,11.1-37.2,21.5-55.8,32.2c-0.9,0.5-2,1-3.6,1.7c0.4-1.7,0.6-2.8,1-3.9
					c3.2-9,6.5-18,9.7-27c2.3-6.4,4.5-12.8,6.6-19.3c0.8-2.5,1.9-3.5,4.7-3.5c11.3,0.2,22.7-0.2,34,0.2c12,0.4,19.9-5,25.1-15.4
					C1873.2,786.5,1874.8,783.4,1876.9,779.4z"/>
				<path class="st1" d="M1787.5,774.3c-6.2-6.3-9.9-13-11.7-21c-4.5-19.9,8.7-42.2,26.8-49.6c7.3-3,15.1-4.3,23-4.3
					c33.6-0.2,67.2-0.1,100.8-0.1c1,0,2,0.1,3.4,0.2c-5.5,17.4-16.3,30-31.2,40.6c1.7-3.7,3.1-6.5,4.3-9.5c0.9-2.2,0.4-3.4-2.4-3.4
					c-25.1,0.1-50.2-0.1-75.3,0.2c-11.4,0.1-21,4.3-26,15.5c-2.1,4.6-3.7,9.5-5.4,14.3C1791.8,762.6,1789.8,768.1,1787.5,774.3z"/>
			</g>
			<g>
				<g>
					<path class="st1" d="M1725,722.2c9.3-0.2,16.4,5.7,16.7,14.9c0.5,17.6,0.1,35.2,0.1,52.8c-5.3,1-11.2-1.6-13.9-6.7
						c-1.6-3-2.9-6.5-3-9.8c-0.3-16.7-0.1-33.4-0.1-50.2C1724.8,723,1724.9,722.8,1725,722.2z"/>
					<path class="st1" d="M1763,792.5c-7,0.3-12.3-3.2-14.8-8.3c-1.4-2.9-2.2-5.9-2.2-9.1c0-21.9,0-43.7,0-65.6c0-0.5,0-1,0-1.7
						c4.1-0.1,7.9,0.8,11,3.5c4.1,3.5,5.9,8.2,5.9,13.3c0.1,22.3,0.1,44.5,0.1,66.8C1763.1,791.8,1763.1,792.2,1763,792.5z"/>
					<path class="st1" d="M1719.7,767c-4.5,0.3-8.1-2.8-8.3-7.7c-0.3-8.6-0.1-17.3-0.1-26.1c3-0.1,5.5,0.9,7,3.5
						c0.8,1.4,1.4,3.1,1.4,4.7c0.1,8.3,0.1,16.7,0.1,25.1C1719.8,766.7,1719.7,766.8,1719.7,767z"/>
				</g>
				<g>
					<path class="st1" d="M1968.9,789.8c-9,0.7-16.7-5.8-16.9-15c-0.4-17.4-0.1-34.9-0.1-52.3c0-0.2,0.2-0.4,0.2-0.5
						c9.1-0.4,16.4,5.8,16.6,15.7C1969.3,755,1968.9,772.3,1968.9,789.8z"/>
					<path class="st1" d="M1947.9,791.2c-6.8,0.4-11.9-3-14.3-7.9c-1.3-2.7-2.1-5.5-2.1-8.5c0-21.7,0-43.5,0-65.2
						c0-0.2,0-0.4,0.1-0.8c4.1-0.1,7.8,0.9,10.9,3.6c3.9,3.4,5.5,8,5.6,13c0.1,21.7,0.1,43.5,0.1,65.2
						C1947.9,790.8,1947.9,791,1947.9,791.2z"/>
					<path class="st1" d="M1972.4,733.6c4.8,0,8.1,3,8.2,7.8c0.2,8.2,0,16.5,0,24.7c0,0.1-0.1,0.2-0.1,0.3c-4.2,0.6-8.1-3-8.1-7.9
						c-0.1-8.1,0-16.2,0-24.3C1972.4,734.1,1972.4,733.9,1972.4,733.6z"/>
				</g>
			</g>
		</g>
		<g>
			<path class="st1" d="M1686,801l-3.3,0.3l-0.8-8.8c0,0-0.2-2.2-2-2c-1.8,0.2-1.6,2.3-1.6,2.3l0.4,4.4c0,0,0.4,5-4.6,5.5
				c-5,0.5-5.6-4.5-5.6-4.5l-0.9-9.2l3.3-0.3l0.8,8.8c0,0,0.2,2.2,2,2c1.8-0.2,1.6-2.3,1.6-2.3l-0.4-4.4c0,0-0.4-5,4.6-5.5
				c5-0.5,5.6,4.5,5.6,4.5L1686,801z"/>
			<path class="st1" d="M1670.9,814.9l13.4-3.3l1.8-0.4l1.5-0.4l2.1,8.6c0,0,1.1,4.9-3.8,6.1s-6.2-3.7-6.2-3.7l-1.3-5.3l-6.7,1.6
				L1670.9,814.9z M1681.7,815.7l1.2,4.9c0,0,0.5,2.1,2.2,1.7s1.2-2.5,1.2-2.5l-1.2-4.9L1681.7,815.7z"/>
			<path class="st1" d="M1696.2,839.3l-14.2,11.1l-1.4-3.6l2.9-2.3l-2.4-6.2l-3.8,0.2l-1.4-3.6l18-1.1L1696.2,839.3z M1686.4,842.3
				l5.8-4.6l-7.4,0.4L1686.4,842.3z"/>
			<path class="st1" d="M1707.6,862.5l-2.9,1.6l-2.9-5.3c0,0-2.5-3.9-6.8-1.6c-4.4,2.4-2.4,6.6-2.4,6.6l2.9,5.3l-2.9,1.6l-2.9-5.4
				c0,0-3.5-7,3.8-11c7.3-4,11.3,2.8,11.3,2.8L1707.6,862.5z"/>
			<path class="st1" d="M1720.1,880.4l-2.7,2l-5.9-8.1l-2.9,2.1l5.9,8.1l-2.7,2l-5.9-8.1l-2.9,2.1l5.9,8.1l-2.7,2l-7.9-10.8l1.3-1
				l1.3-1l2.9-2.1l2.7-2l2.9-2.1l1.4-1.1l1.2-0.9L1720.1,880.4z"/>
			<path class="st1" d="M1735.9,897.5l-2.4,2.3l-7-7.2l-2.6,2.5l7,7.2l-2.4,2.3l-7-7.2l-4.9,4.8l-2.3-2.4l4.9-4.8l2.4-2.3l2.6-2.5
				l0.8-0.8l1.6-1.5L1735.9,897.5z M1714.2,900l2.3,2.4L1714.2,900z"/>
			<path class="st1" d="M1732.2,917l10.9-13.3l2.6,2.1l-10.9,13.3L1732.2,917z"/>
			<path class="st1" d="M1747.6,928.6l7.6-11.6l-4.6-3l1.8-2.8l4.6,3l2.8,1.8l4.6,3l-1.8,2.8l-4.6-3l-7.6,11.6L1747.6,928.6z"/>
			<path class="st1" d="M1797.3,934l-1.2,3.1l-8.2-3.1c0,0-2-0.8-2.7,0.9s1.4,2.4,1.4,2.4l4.1,1.5c0,0,4.7,1.9,2.9,6.6s-6.5,3-6.5,3
				l-8.7-3.2l1.2-3.1l8.2,3.1c0,0,2,0.8,2.7-0.9s-1.4-2.4-1.4-2.4l-4.1-1.5c0,0-4.7-1.9-2.9-6.6c1.8-4.7,6.5-3,6.5-3L1797.3,934z"/>
			<path class="st1" d="M1803.2,953.5l2.9-13.5l0.4-1.8l0.3-1.5l8.6,1.8c0,0,4.9,1.2,3.8,6.1s-6,4-6,4l-5.4-1.2l-1.4,6.8
				L1803.2,953.5z M1808.6,944.2l4.9,1c0,0,2.1,0.5,2.5-1.3c0.4-1.8-1.7-2.2-1.7-2.2l-4.9-1L1808.6,944.2z"/>
			<path class="st1" d="M1836.3,941.4l3.8,17.6l-3.8-0.3l-0.8-3.7l-6.6-0.6l-1.4,3.5l-3.8-0.3l6.8-16.6L1836.3,941.4z M1834.7,951.6
				l-1.6-7.2l-2.9,6.8L1834.7,951.6z"/>
			<path class="st1" d="M1862.1,941.3l0.1,3.3l-6,0.3c0,0-4.6,0.5-4.4,5.5c0.2,5,4.9,5,4.9,5l6-0.3l0.1,3.3l-6.2,0.3
				c0,0-7.8,0.1-8.2-8.2c-0.4-8.3,7.5-8.9,7.5-8.9L1862.1,941.3z"/>
			<path class="st1" d="M1883.7,938l0.6,3.3l-9.9,1.8l0.6,3.5l9.9-1.8l0.6,3.3l-9.9,1.8l0.6,3.5l9.9-1.8l0.6,3.3l-13.2,2.4l-0.3-1.7
				l-0.3-1.6l-0.6-3.5l-0.6-3.3l-0.6-3.5l-0.3-1.8l-0.3-1.5L1883.7,938z"/>
			<path class="st1" d="M1905.9,931.4l1.1,3.2l-9.5,3.2l1.1,3.4l9.5-3.2l1.1,3.2l-9.5,3.2l2.2,6.6l-3.2,1l-2.2-6.6l-1.1-3.2
				l-1.1-3.4l-0.4-1.1l-0.7-2.1L1905.9,931.4z M1898.7,951.9l3.2-1L1898.7,951.9z"/>
			<path class="st1" d="M1921.9,943.2l-7.2-15.6l3-1.4l7.2,15.6L1921.9,943.2z"/>
			<path class="st1" d="M1939,934.4l-7.1-11.9l-4.7,2.8l-1.7-2.9l4.7-2.8l2.9-1.7l4.7-2.8l1.7,2.9l-4.7,2.8l7.1,11.9L1939,934.4z"/>
			<path class="st1" d="M1965.6,892l2.3,2.4l-6.4,6.1c0,0-1.6,1.5-0.3,2.8s2.8-0.2,2.8-0.2l3.2-3c0,0,3.7-3.4,7.2,0.2
				s-0.1,7.2-0.1,7.2l-6.7,6.4l-2.3-2.4l6.4-6.1c0,0,1.6-1.5,0.3-2.8c-1.3-1.3-2.8,0.2-2.8,0.2l-3.2,3c0,0-3.7,3.4-7.2-0.2
				c-3.5-3.6,0.1-7.2,0.1-7.2L1965.6,892z"/>
			<path class="st1" d="M1985.7,895.3l-10.9-8.5l-1.4-1.1l-1.2-0.9l5.4-6.9c0,0,3.2-3.9,7.2-0.8c3.9,3.1,0.9,7.1,0.9,7.1l-3.4,4.3
				l5.4,4.3L1985.7,895.3z M1979.7,886.3l3.1-3.9c0,0,1.4-1.7-0.1-2.8c-1.4-1.1-2.7,0.6-2.7,0.6l-3.1,3.9L1979.7,886.3z"/>
			<path class="st1" d="M1989.3,860.3l17.5,4.3l-2,3.3l-3.7-0.9l-3.4,5.7l2.5,2.8l-2,3.3l-11.9-13.5L1989.3,860.3z M1997.8,866.2
				l-7.2-1.7l4.9,5.6L1997.8,866.2z"/>
			<path class="st1" d="M2000.6,837l3.1,1.3l-2.4,5.5c0,0-1.6,4.4,3,6.3s6.7-2.2,6.7-2.2l2.4-5.5l3.1,1.3l-2.4,5.7
				c0,0-3.3,7.1-11,3.8s-4.8-10.6-4.8-10.6L2000.6,837z"/>
			<path class="st1" d="M2007,816.2l3.2,0.9l-2.7,9.7l3.4,1l2.7-9.7l3.2,0.9l-2.7,9.7l3.5,1l2.7-9.7l3.2,0.9l-3.6,12.9l-1.6-0.5
				l-1.6-0.5l-3.5-1l-3.2-0.9l-3.5-1l-1.7-0.5l-1.5-0.4L2007,816.2z"/>
			<path class="st1" d="M2010.7,793.2l3.3,0.4l-1.3,10l3.6,0.5l1.3-10l3.3,0.4l-1.3,10l6.9,0.9l-0.4,3.3l-6.9-0.9l-3.3-0.4l-3.6-0.5
				l-1.2-0.2l-2.2-0.3L2010.7,793.2z M2026,808.7l0.4-3.3L2026,808.7z"/>
			<path class="st1" d="M2028.4,784l-17.2-0.4l0.1-3.3l17.2,0.4L2028.4,784z"/>
			<path class="st1" d="M2027.9,764.8l-13.8,1.2l0.5,5.4l-3.3,0.3l-0.5-5.4l-0.3-3.3l-0.5-5.4l3.3-0.3l0.5,5.4l13.8-1.2
				L2027.9,764.8z"/>
		</g>
		<g>
			<path class="st1" d="M1666.1,738.8l3,0.1l-0.3,8c0,0-0.1,2,1.6,2s1.7-1.9,1.7-1.9l0.2-4c0,0,0.3-4.6,4.8-4.4
				c4.6,0.2,4.5,4.8,4.5,4.8l-0.3,8.4l-3-0.1l0.3-8c0,0,0.1-2-1.6-2s-1.7,1.9-1.7,1.9l-0.2,4c0,0-0.3,4.6-4.8,4.4
				c-4.6-0.2-4.5-4.8-4.5-4.8L1666.1,738.8z"/>
			<path class="st1" d="M1682.7,730.1l-12.4-2.1l-1.6-0.3l-1.4-0.2l1.4-7.9c0,0,0.9-4.5,5.4-3.7c4.5,0.8,3.8,5.3,3.8,5.3l-0.8,4.9
				l6.2,1.1L1682.7,730.1z M1674,725.6l0.8-4.5c0,0,0.4-1.9-1.3-2.2s-1.9,1.7-1.9,1.7l-0.8,4.5L1674,725.6z"/>
			<path class="st1" d="M1673.7,699.1l16.4-0.3l-1,3.3l-3.4,0.1l-1.7,5.8l2.8,1.9l-1,3.3l-13.7-9.1L1673.7,699.1z M1682.5,702.3
				l-6.7,0.2l5.6,3.8L1682.5,702.3z"/>
			<path class="st1" d="M1682.9,675.1l2.8,1.2l-2.2,5c0,0-1.4,4,2.7,5.8c4.2,1.8,6.1-2,6.1-2l2.2-5l2.8,1.2l-2.2,5.2
				c0,0-3,6.5-10,3.5s-4.4-9.7-4.4-9.7L1682.9,675.1z"/>
			<path class="st1" d="M1693.5,655.8l2.6,1.5l-4.6,7.9l2.8,1.7l4.6-7.9l2.6,1.5l-4.6,7.9l2.8,1.7l4.6-7.9l2.6,1.5l-6.2,10.5
				l-1.3-0.8l-1.3-0.8l-2.8-1.7l-2.6-1.5l-2.8-1.7l-1.4-0.8l-1.2-0.7L1693.5,655.8z"/>
			<path class="st1" d="M1707.3,636.8l2.4,1.9l-5.6,7.2l2.6,2l5.6-7.2l2.4,1.9l-5.6,7.2l5,3.9l-1.9,2.4l-5-3.9l-2.4-1.9l-2.6-2
				l-0.8-0.7l-1.6-1.2L1707.3,636.8z M1712.2,656l1.9-2.4L1712.2,656z"/>
			<path class="st1" d="M1725.6,639.9l-11.3-10.8l2.1-2.2l11.3,10.8L1725.6,639.9z"/>
			<path class="st1" d="M1737.1,628.7l-8.2-9.5l-3.8,3.2l-2-2.3l3.8-3.2l2.3-2l3.8-3.2l2,2.3l-3.8,3.2l8.2,9.5L1737.1,628.7z"/>
			<path class="st1" d="M1763.5,591.7l1.5,2.7l-7,3.9c0,0-1.7,0.9-0.9,2.4c0.8,1.5,2.5,0.5,2.5,0.5l3.5-2c0,0,4.1-2.2,6.3,1.8
				c2.2,4-1.7,6.3-1.7,6.3l-7.4,4.1l-1.5-2.7l7-3.9c0,0,1.7-0.9,0.9-2.4s-2.5-0.5-2.5-0.5l-3.5,2c0,0-4.1,2.2-6.3-1.8
				c-2.2-4,1.7-6.3,1.7-6.3L1763.5,591.7z"/>
			<path class="st1" d="M1779.5,601.4l-4.7-11.7l-0.6-1.5l-0.5-1.3l7.5-3c0,0,4.3-1.6,6,2.7c1.7,4.2-2.5,6-2.5,6l-4.6,1.8l2.3,5.9
				L1779.5,601.4z M1778.8,591.6l4.2-1.7c0,0,1.8-0.7,1.2-2.2c-0.6-1.5-2.4-0.8-2.4-0.8l-4.2,1.7L1778.8,591.6z"/>
			<path class="st1" d="M1801.3,577.5l8.8,13.8l-3.3,0.9l-1.8-2.9l-5.8,1.6l-0.2,3.4l-3.3,0.9l0.6-16.4L1801.3,577.5z M1803.1,586.7
				l-3.7-5.7l-0.3,6.7L1803.1,586.7z"/>
			<path class="st1" d="M1826.5,572.8l0.4,3l-5.4,0.8c0,0-4.1,0.8-3.5,5.3c0.6,4.5,4.9,4.1,4.9,4.1l5.4-0.8l0.4,3l-5.6,0.8
				c0,0-7.1,0.8-8.2-6.7c-1.1-7.5,6-8.8,6-8.8L1826.5,572.8z"/>
			<path class="st1" d="M1848.6,571.8l0.1,3l-9.1,0.2l0.1,3.3l9.1-0.2l0.1,3l-9.1,0.2l0.1,3.3l9.1-0.2l0.1,3l-12.2,0.2l0-1.5l0-1.5
				l-0.1-3.3l-0.1-3l-0.1-3.3l0-1.6l0-1.4L1848.6,571.8z"/>
			<path class="st1" d="M1871.9,573.7l-0.3,3l-9.1-1l-0.4,3.2l9.1,1l-0.3,3l-9.1-1l-0.7,6.3l-3-0.3l0.7-6.3l0.3-3l0.4-3.2l0.1-1
				l0.2-2L1871.9,573.7z M1858.1,587.9l3,0.3L1858.1,587.9z"/>
			<path class="st1" d="M1878.8,590.8l3.2-15.3l3,0.6l-3.2,15.3L1878.8,590.8z"/>
			<path class="st1" d="M1894.4,594.8l3.8-12l-4.7-1.5l0.9-2.9l4.7,1.5l2.9,0.9l4.7,1.5l-0.9,2.9l-4.7-1.5l-3.8,12L1894.4,594.8z"/>
			<path class="st1" d="M1951.3,605.7l-1.7,2.5l-6.7-4.5c0,0-1.6-1.1-2.5,0.3s0.7,2.5,0.7,2.5l3.3,2.2c0,0,3.8,2.6,1.2,6.4
				c-2.5,3.8-6.4,1.3-6.4,1.3l-7-4.7l1.7-2.5l6.7,4.5c0,0,1.6,1.1,2.5-0.3c0.9-1.4-0.7-2.5-0.7-2.5l-3.3-2.2c0,0-3.8-2.6-1.2-6.4
				c2.5-3.8,6.4-1.3,6.4-1.3L1951.3,605.7z"/>
			<path class="st1" d="M1949.9,624.4l8.3-9.5l1.1-1.2l0.9-1l6,5.3c0,0,3.4,3.1,0.4,6.5c-3,3.4-6.5,0.5-6.5,0.5l-3.8-3.3l-4.2,4.7
				L1949.9,624.4z M1958.4,619.4l3.4,3c0,0,1.5,1.3,2.6,0.1c1.1-1.2-0.4-2.5-0.4-2.5l-3.4-3L1958.4,619.4z"/>
			<path class="st1" d="M1981.1,632.9l-8.3,14.1l-2.3-2.6l1.7-3l-4.1-4.5l-3.1,1.4l-2.3-2.6l14.8-6.9L1981.1,632.9z M1973.8,638.8
				l3.4-5.8l-6.1,2.8L1973.8,638.8z"/>
			<path class="st1" d="M1996.8,653.2l-2.5,1.8l-3.2-4.5c0,0-2.7-3.3-6.3-0.7c-3.7,2.6-1.5,6.2-1.5,6.2l3.2,4.5l-2.5,1.8l-3.2-4.6
				c0,0-3.9-6,2.2-10.3c6.2-4.4,10.5,1.3,10.5,1.3L1996.8,653.2z"/>
			<path class="st1" d="M2007.7,672.3l-2.7,1.4l-4.3-8l-2.9,1.5l4.3,8l-2.7,1.4l-4.3-8l-2.9,1.5l4.3,8l-2.7,1.4l-5.8-10.7l1.3-0.7
				l1.3-0.7l2.9-1.5l2.7-1.4l2.9-1.5l1.4-0.8l1.2-0.7L2007.7,672.3z"/>
			<path class="st1" d="M2016.7,694l-2.8,1.1l-3.2-8.5l-3.1,1.2l3.2,8.5l-2.8,1.1l-3.2-8.5l-5.9,2.2l-1.1-2.8l5.9-2.2l2.8-1.1
				l3.1-1.2l1-0.4l1.8-0.7L2016.7,694z M1997.8,688.2l1.1,2.8L1997.8,688.2z"/>
			<path class="st1" d="M2004.6,708l15.1-4l0.8,2.9l-15.1,4L2004.6,708z"/>
			<path class="st1" d="M2008.1,723.7l12.4-2l-0.8-4.9l3-0.5l0.8,4.9l0.5,3l0.8,4.9l-3,0.5l-0.8-4.9l-12.4,2L2008.1,723.7z"/>
		</g>
	</g>
</g>
<g>
	<rect x="2740.8" y="570.3" width="438.9" height="286.1"/>
	<g>
		<g>
			<path class="st0" d="M2525.5,327c-25.7,0-50,0-75.2,0c3.1-8.6,5.7-16.4,8.6-24.1s2.9-7.7,11.3-7.7c21.9,0,43.7,0,65.6,0
				c9.7,0,19.5,0.5,28.7,4c7.3,2.7,12.7,7.7,8.8,17.4c-3.5,8.9-10.2,15.2-17,21.5c-19.9,18.4-42.4,33.3-65.5,47.2
				c-23.7,14.3-48,27.8-72,41.6c-1.2,0.7-2.5,1.2-4.6,2.2c0.5-2.2,0.8-3.7,1.2-5c4.1-11.6,8.4-23.2,12.5-34.8
				c2.9-8.3,5.8-16.5,8.5-24.9c1-3.2,2.4-4.6,6.1-4.5c14.6,0.2,29.2-0.3,43.9,0.2c15.4,0.5,25.7-6.5,32.4-19.9
				C2520.8,336.2,2522.8,332.3,2525.5,327z"/>
			<path class="st0" d="M2410.2,320.4c-8-8.1-12.8-16.8-15.1-27.2c-5.8-25.6,11.3-54.4,34.6-64c9.5-3.9,19.5-5.5,29.6-5.6
				c43.3-0.2,86.7-0.1,130-0.1c1.3,0,2.5,0.2,4.4,0.3c-7.1,22.4-21,38.7-40.2,52.4c2.2-4.8,4.1-8.5,5.6-12.2
				c1.1-2.8,0.5-4.4-3.1-4.4c-32.4,0.1-64.8-0.2-97.2,0.2c-14.7,0.2-27.1,5.6-33.6,20c-2.7,6-4.7,12.2-7,18.4
				C2415.7,305.4,2413.1,312.5,2410.2,320.4z"/>
		</g>
		<g>
			<g>
				<path class="st0" d="M2329.5,253.3c12-0.2,21.2,7.3,21.5,19.2c0.6,22.7,0.2,45.5,0.2,68.2c-6.8,1.2-14.4-2-18-8.6
					c-2-3.8-3.8-8.4-3.8-12.6c-0.4-21.6-0.2-43.1-0.2-64.7C2329.2,254.3,2329.4,254,2329.5,253.3z"/>
				<path class="st0" d="M2378.6,343.9c-9,0.5-15.8-4.1-19.1-10.7c-1.8-3.7-2.8-7.6-2.8-11.7c0-28.2,0-56.4,0-84.6
					c0-0.6,0-1.3,0-2.2c5.3-0.2,10.1,1.1,14.2,4.5c5.3,4.5,7.6,10.6,7.7,17.2c0.2,28.7,0.1,57.5,0.1,86.2
					C2378.7,343.1,2378.6,343.5,2378.6,343.9z"/>
				<path class="st0" d="M2322.7,311.1c-5.8,0.3-10.5-3.6-10.7-9.9c-0.3-11.1-0.1-22.3-0.1-33.7c3.9-0.1,7.1,1.1,9,4.5
					c1,1.8,1.8,4,1.9,6.1c0.2,10.8,0.1,21.6,0.1,32.3C2322.8,310.6,2322.7,310.8,2322.7,311.1z"/>
			</g>
			<g>
				<path class="st0" d="M2644.3,340.5c-11.6,0.9-21.5-7.5-21.8-19.4c-0.5-22.5-0.2-45-0.1-67.5c0-0.2,0.2-0.5,0.3-0.7
					c11.8-0.5,21.1,7.5,21.4,20.2C2644.7,295.5,2644.3,317.9,2644.3,340.5z"/>
				<path class="st0" d="M2617.1,342.3c-8.7,0.5-15.3-3.9-18.5-10.2c-1.7-3.5-2.8-7.1-2.8-11c0-28,0-56.1,0-84.1c0-0.2,0-0.5,0.1-1
					c5.3-0.1,10.1,1.1,14,4.7c5,4.4,7.1,10.3,7.2,16.7c0.1,28,0.1,56.1,0.1,84.1C2617.2,341.7,2617.1,342,2617.1,342.3z"/>
				<path class="st0" d="M2648.8,268c6.1,0,10.4,3.9,10.5,10.1c0.2,10.6,0.1,21.2,0,31.9c0,0.1-0.1,0.2-0.1,0.3
					c-5.5,0.8-10.4-3.9-10.5-10.2c-0.1-10.4,0-20.9,0-31.3C2648.7,268.6,2648.8,268.3,2648.8,268z"/>
			</g>
		</g>
	</g>
	<g>
		<g>
			<path class="st2" d="M3008.9,329.1c-25.7,0-50,0-75.2,0c3.1-8.6,5.7-16.4,8.6-24.1c2.9-7.7,2.9-7.7,11.3-7.7
				c21.9,0,43.7,0,65.6,0c9.7,0,19.5,0.5,28.7,4c7.3,2.7,12.7,7.7,8.8,17.4c-3.5,8.9-10.2,15.2-17,21.5
				c-19.9,18.4-42.4,33.3-65.5,47.2c-23.7,14.3-48,27.8-72,41.6c-1.2,0.7-2.5,1.2-4.6,2.2c0.5-2.2,0.8-3.7,1.2-5
				c4.1-11.6,8.4-23.2,12.5-34.8c2.9-8.3,5.8-16.5,8.5-24.9c1-3.2,2.4-4.6,6.1-4.5c14.6,0.2,29.2-0.3,43.9,0.2
				c15.4,0.5,25.7-6.5,32.4-19.9C3004.2,338.3,3006.2,334.4,3008.9,329.1z"/>
			<path class="st2" d="M2893.6,322.5c-8-8.1-12.8-16.8-15.1-27.2c-5.8-25.6,11.3-54.4,34.6-64c9.5-3.9,19.5-5.5,29.6-5.6
				c43.3-0.2,86.7-0.1,130-0.1c1.3,0,2.5,0.2,4.4,0.3c-7.1,22.4-21,38.7-40.2,52.4c2.2-4.8,4.1-8.5,5.6-12.2
				c1.1-2.8,0.5-4.4-3.1-4.4c-32.4,0.1-64.8-0.2-97.2,0.2c-14.7,0.2-27.1,5.6-33.6,20c-2.7,6-4.7,12.2-7,18.4
				C2899.1,307.5,2896.6,314.6,2893.6,322.5z"/>
		</g>
		<g>
			<g>
				<path class="st2" d="M2812.9,255.4c12-0.2,21.2,7.3,21.5,19.2c0.6,22.7,0.2,45.5,0.2,68.2c-6.8,1.2-14.4-2-18-8.6
					c-2-3.8-3.8-8.4-3.8-12.6c-0.4-21.6-0.2-43.1-0.2-64.7C2812.7,256.4,2812.8,256,2812.9,255.4z"/>
				<path class="st2" d="M2862,346c-9,0.5-15.8-4.1-19.1-10.7c-1.8-3.7-2.8-7.6-2.8-11.7c0-28.2,0-56.4,0-84.6c0-0.6,0-1.3,0-2.2
					c5.3-0.2,10.1,1.1,14.2,4.5c5.3,4.5,7.6,10.6,7.7,17.2c0.2,28.7,0.1,57.5,0.1,86.2C2862.1,345.2,2862.1,345.6,2862,346z"/>
				<path class="st2" d="M2806.1,313.2c-5.8,0.3-10.5-3.6-10.7-9.9c-0.3-11.1-0.1-22.3-0.1-33.7c3.9-0.1,7.1,1.1,9,4.5
					c1,1.8,1.8,4,1.9,6.1c0.2,10.8,0.1,21.6,0.1,32.3C2806.2,312.7,2806.2,312.9,2806.1,313.2z"/>
			</g>
			<g>
				<path class="st2" d="M3127.7,342.6c-11.6,0.9-21.5-7.5-21.8-19.4c-0.5-22.5-0.2-45-0.1-67.5c0-0.2,0.2-0.5,0.3-0.7
					c11.8-0.5,21.1,7.5,21.4,20.2C3128.1,297.6,3127.7,320,3127.7,342.6z"/>
				<path class="st2" d="M3100.5,344.4c-8.7,0.5-15.3-3.9-18.5-10.2c-1.7-3.5-2.8-7.1-2.8-11c0-28,0-56.1,0-84.1c0-0.2,0-0.5,0.1-1
					c5.3-0.1,10.1,1.1,14,4.7c5,4.4,7.1,10.3,7.2,16.7c0.1,28,0.1,56.1,0.1,84.1C3100.6,343.8,3100.6,344,3100.5,344.4z"/>
				<path class="st2" d="M3132.2,270c6.1,0,10.4,3.9,10.5,10.1c0.2,10.6,0.1,21.2,0,31.9c0,0.1-0.1,0.2-0.1,0.3
					c-5.5,0.8-10.4-3.9-10.5-10.2c-0.1-10.4,0-20.9,0-31.3C3132.1,270.7,3132.2,270.4,3132.2,270z"/>
			</g>
		</g>
	</g>
	<g>
		<g>
			<path d="M2514.1,701.4c-25.7,0-50,0-75.2,0c3.1-8.6,5.7-16.4,8.6-24.1s2.9-7.7,11.3-7.7c21.9,0,43.7,0,65.6,0
				c9.7,0,19.5,0.5,28.7,4c7.3,2.7,12.7,7.7,8.8,17.3c-3.5,8.8-10.2,15.2-17,21.5c-19.9,18.4-42.4,33.3-65.5,47.2
				c-23.7,14.3-48,27.8-72,41.6c-1.2,0.7-2.5,1.2-4.6,2.2c0.5-2.2,0.8-3.7,1.2-5c4.1-11.6,8.4-23.2,12.5-34.8
				c2.9-8.3,5.8-16.5,8.5-24.9c1-3.2,2.4-4.6,6.1-4.5c14.6,0.2,29.2-0.3,43.9,0.2c15.4,0.5,25.7-6.5,32.4-19.9
				C2509.3,710.5,2511.4,706.6,2514.1,701.4z"/>
			<path d="M2398.8,694.8c-8-8.1-12.8-16.8-15.1-27.2c-5.8-25.6,11.3-54.4,34.6-64c9.5-3.9,19.5-5.5,29.6-5.6
				c43.3-0.2,86.7-0.1,130-0.1c1.3,0,2.5,0.2,4.4,0.3c-7.1,22.4-21,38.7-40.2,52.4c2.2-4.8,4.1-8.5,5.6-12.2
				c1.1-2.8,0.5-4.4-3.1-4.4c-32.4,0.1-64.8-0.2-97.2,0.2c-14.7,0.2-27.1,5.6-33.6,20c-2.7,6-4.7,12.2-7,18.4
				C2404.3,679.7,2401.7,686.8,2398.8,694.8z"/>
		</g>
		<g>
			<g>
				<path d="M2318.1,627.7c12-0.2,21.2,7.3,21.5,19.2c0.6,22.7,0.2,45.5,0.2,68.2c-6.8,1.2-14.4-2-18-8.7c-2-3.8-3.8-8.3-3.8-12.6
					c-0.4-21.6-0.2-43.1-0.2-64.7C2317.8,628.7,2318,628.3,2318.1,627.7z"/>
				<path d="M2367.2,718.3c-9,0.5-15.8-4.1-19.1-10.7c-1.8-3.7-2.8-7.6-2.8-11.7c0-28.2,0-56.4,0-84.6c0-0.7,0-1.3,0-2.2
					c5.3-0.2,10.1,1.1,14.2,4.5c5.3,4.5,7.6,10.5,7.7,17.2c0.2,28.7,0.1,57.5,0.1,86.2C2367.3,717.4,2367.2,717.9,2367.2,718.3z"/>
				<path d="M2311.3,685.5c-5.8,0.3-10.5-3.6-10.7-9.9c-0.3-11.2-0.1-22.3-0.1-33.7c3.9-0.1,7.1,1.1,9,4.5c1,1.8,1.8,4,1.9,6.1
					c0.2,10.8,0.1,21.6,0.1,32.3C2311.4,685,2311.3,685.1,2311.3,685.5z"/>
			</g>
			<g>
				<path d="M2632.9,714.8c-11.6,0.9-21.5-7.5-21.8-19.4c-0.5-22.5-0.2-45-0.1-67.5c0-0.2,0.2-0.5,0.3-0.7
					c11.8-0.5,21.1,7.5,21.4,20.2C2633.3,669.8,2632.9,692.2,2632.9,714.8z"/>
				<path d="M2605.7,716.7c-8.7,0.5-15.3-3.9-18.5-10.2c-1.7-3.5-2.8-7.1-2.8-11c0-28,0-56.1,0-84.1c0-0.2,0-0.5,0.1-1
					c5.3-0.2,10.1,1.1,14,4.7c5,4.4,7.1,10.3,7.2,16.7c0.1,28,0.1,56.1,0.1,84.1C2605.8,716.1,2605.7,716.3,2605.7,716.7z"/>
				<path d="M2637.4,642.3c6.1,0,10.4,3.9,10.5,10.1c0.2,10.6,0.1,21.2,0,31.9c0,0.1-0.1,0.2-0.1,0.3c-5.5,0.8-10.4-3.9-10.5-10.2
					c-0.1-10.4,0-20.9,0-31.3C2637.3,642.9,2637.3,642.7,2637.4,642.3z"/>
			</g>
		</g>
	</g>
	<g>
		<g>
			<path class="st1" d="M2993.9,711.7c-25.7,0-50,0-75.2,0c3.1-8.6,5.7-16.4,8.6-24.1s2.9-7.7,11.3-7.7c21.9,0,43.7,0,65.6,0
				c9.7,0,19.5,0.5,28.7,4c7.3,2.7,12.7,7.7,8.8,17.3c-3.5,8.8-10.2,15.2-17,21.5c-19.9,18.4-42.4,33.3-65.5,47.2
				c-23.7,14.3-48,27.8-72,41.6c-1.2,0.7-2.5,1.2-4.6,2.2c0.5-2.2,0.8-3.7,1.2-5c4.1-11.6,8.4-23.2,12.5-34.8
				c2.9-8.3,5.8-16.5,8.5-24.9c1-3.2,2.4-4.6,6.1-4.5c14.6,0.2,29.2-0.3,43.9,0.2c15.4,0.5,25.7-6.5,32.4-19.9
				C2989.2,720.9,2991.2,717,2993.9,711.7z"/>
			<path class="st1" d="M2878.7,705.1c-8-8.1-12.8-16.8-15.1-27.2c-5.8-25.6,11.3-54.4,34.6-64c9.5-3.9,19.5-5.5,29.6-5.6
				c43.3-0.2,86.7-0.1,130-0.1c1.3,0,2.5,0.2,4.4,0.3c-7.1,22.4-21,38.7-40.2,52.4c2.2-4.8,4.1-8.5,5.6-12.2
				c1.1-2.8,0.5-4.4-3.1-4.4c-32.4,0.1-64.8-0.2-97.2,0.2c-14.7,0.2-27.1,5.6-33.6,20c-2.7,6-4.7,12.2-7,18.4
				C2884.1,690.1,2881.6,697.2,2878.7,705.1z"/>
		</g>
		<g>
			<g>
				<path class="st1" d="M2797.9,638c12-0.2,21.2,7.3,21.5,19.2c0.6,22.7,0.2,45.5,0.2,68.2c-6.8,1.2-14.4-2-18-8.7
					c-2-3.8-3.8-8.3-3.8-12.6c-0.4-21.6-0.2-43.1-0.2-64.7C2797.7,639,2797.8,638.6,2797.9,638z"/>
				<path class="st1" d="M2847,728.6c-9,0.5-15.8-4.1-19.1-10.7c-1.8-3.7-2.8-7.6-2.8-11.7c0-28.2,0-56.4,0-84.6c0-0.7,0-1.3,0-2.2
					c5.3-0.2,10.1,1.1,14.2,4.5c5.3,4.5,7.6,10.5,7.7,17.2c0.2,28.7,0.1,57.5,0.1,86.2C2847.1,727.8,2847.1,728.2,2847,728.6z"/>
				<path class="st1" d="M2791.1,695.8c-5.8,0.3-10.5-3.6-10.7-9.9c-0.3-11.2-0.1-22.3-0.1-33.7c3.9-0.1,7.1,1.1,9,4.5
					c1,1.8,1.8,4,1.9,6.1c0.2,10.8,0.1,21.6,0.1,32.3C2791.2,695.3,2791.2,695.5,2791.1,695.8z"/>
			</g>
			<g>
				<path class="st1" d="M3112.7,725.2c-11.6,0.9-21.5-7.5-21.8-19.4c-0.5-22.5-0.2-45-0.1-67.5c0-0.2,0.2-0.5,0.3-0.7
					c11.8-0.5,21.1,7.5,21.4,20.2C3113.2,680.2,3112.7,702.5,3112.7,725.2z"/>
				<path class="st1" d="M3085.5,727c-8.7,0.5-15.3-3.9-18.5-10.2c-1.7-3.5-2.8-7.1-2.8-11c0-28,0-56.1,0-84.1c0-0.2,0-0.5,0.1-1
					c5.3-0.2,10.1,1.1,14,4.7c5,4.4,7.1,10.3,7.2,16.7c0.1,28,0.1,56.1,0.1,84.1C3085.6,726.4,3085.6,726.7,3085.5,727z"/>
				<path class="st1" d="M3117.2,652.7c6.1,0,10.4,3.9,10.5,10.1c0.2,10.6,0.1,21.2,0,31.9c0,0.1-0.1,0.2-0.1,0.3
					c-5.5,0.8-10.4-3.9-10.5-10.2c-0.1-10.4,0-20.9,0-31.3C3117.1,653.3,3117.2,653,3117.2,652.7z"/>
			</g>
		</g>
	</g>
</g>
</svg>
